<svg version="1.1" id="Layer_1" xmlns="http://www.w3.org/2000/svg" xmlns:xlink="http://www.w3.org/1999/xlink" x="0px" y="0px" viewBox="0 0 500 500" style="width: 158px;" xml:space="preserve" data-imageid="coughing-71" imageName="Coughing" class="illustrations_image">
<style type="text/css">
	.st0_coughing-71{fill:#FFFFFF;}
	.st1_coughing-71{fill:#231F20;}
	.st2_coughing-71{fill:#68E1FD;}
	.st3_coughing-71{fill:#D1D3D4;}
</style>
<g id="Character_coughing-71">
	<path class="st0_coughing-71" d="M256.9,173.7c0,0-22.7,3.3-42.1-3.2s-41.1,5.6-41.1,5.6s11.5,9.7,16.1,22.2c0,0,14.6-5.6,35.9-2.2&#10;&#9;&#9;s37.3-2.3,37.3-2.3L256.9,173.7z"/>
	<path class="st1_coughing-71" d="M189.8,199c-0.1,0-0.2,0-0.3-0.1c-0.2-0.1-0.3-0.2-0.4-0.4c-4.5-12.2-15.8-21.8-15.9-21.9&#10;&#9;&#9;c-0.3-0.2-0.3-0.7-0.1-1c0.1-0.1,0.1-0.1,0.2-0.2c0.2-0.1,22.1-12.2,41.6-5.6c19.1,6.4,41.6,3.2,41.8,3.2c0.3,0,0.7,0.2,0.8,0.5&#10;&#9;&#9;l6.2,20c0.1,0.4-0.1,0.7-0.4,0.9c-0.2,0.1-16.4,5.7-37.6,2.4c-20.9-3.3-35.4,2.1-35.6,2.2C190,199,189.9,199,189.8,199z M175,176.2&#10;&#9;&#9;c2.6,2.4,11.2,10.7,15.3,21.2c3.1-1,16.9-5,35.6-2.1c12.1,1.9,24.5,1.2,36.3-2.1l-5.8-18.8c-3.7,0.5-24.2,2.6-41.9-3.3&#10;&#9;&#9;C197.8,165.5,179.2,174.1,175,176.2z"/>
	<path class="st0_coughing-71" d="M343.2,187c-0.5,0.8-0.9,1.7-1,2.6c-0.7,4.3,0.7,8.6,3.6,11.7c1.6,1.7,4.1,3,6.2,1.9c1.1-0.6,1.8-1.7,2.1-2.9&#10;&#9;&#9;c0.2-1.2,0.2-2.5,0-3.7C353.4,192,349.4,178.9,343.2,187z"/>
	<path class="st1_coughing-71" d="M350.4,204.3c-1.9-0.1-3.8-1-5-2.5c-3.1-3.3-4.5-7.9-3.8-12.3c0.1-1,0.5-2,1.1-2.9l0,0&#10;&#9;&#9;c1.7-2.3,3.5-3.2,5.3-2.8c4.2,1.1,6.4,9.8,6.9,12.7c0.3,1.3,0.3,2.7,0,4c-0.3,1.4-1.2,2.7-2.5,3.4&#10;&#9;&#9;C351.7,204.2,351.1,204.4,350.4,204.3z M347.1,185.1c-1,0-2.1,0.8-3.3,2.3l0,0c-0.5,0.7-0.8,1.5-0.8,2.3c-0.6,4,0.6,8.2,3.5,11.1&#10;&#9;&#9;c1.4,1.5,3.6,2.6,5.3,1.8c0.9-0.5,1.5-1.4,1.7-2.5c0.2-1.1,0.2-2.3,0-3.4c-0.5-3.6-2.8-10.8-5.8-11.6&#10;&#9;&#9;C347.4,185.1,347.3,185.1,347.1,185.1z M343.2,187L343.2,187z"/>
	<path class="st0_coughing-71" d="M355.6,226.8c0,0,1.8-13.8,1.8-15.6s-2-9.6-2-9.6s-7.8-3.4-9.3-9.3s8-17.4,10.4-17.4s1.8,1.8,3.5,1.5&#10;&#9;&#9;s4.5-1,5.8,1.4s1.4,3.9,2.6,4.2s4.3-1.2,5.6,1.9s1.2-0.2,3.9,3.5s4.5,12,5.7,17.7s-8,37-8,37L355.6,226.8z"/>
	<path class="st1_coughing-71" d="M375.6,242.8c-0.2,0-0.3-0.1-0.4-0.1l-20-15.3c-0.2-0.2-0.3-0.4-0.3-0.6c0.6-4.8,1.8-14.1,1.8-15.5&#10;&#9;&#9;c-0.5-3.1-1.1-6.1-1.9-9.1c-1.5-0.7-8-4.1-9.4-9.7c-1.2-4.5,3.4-11,4.8-12.9c1.9-2.5,4.7-5.4,6.2-5.4c1-0.1,2,0.4,2.6,1.2&#10;&#9;&#9;c0.3,0.4,0.4,0.4,0.7,0.4h0.2c1.7-0.3,4.9-0.9,6.4,1.8c0.5,0.8,0.8,1.6,1,2.2c0.5,1.1,0.7,1.6,1.1,1.7c0.3,0,0.7,0,1,0&#10;&#9;&#9;c1.5-0.1,3.9-0.4,5.1,2.4c0.4,1,0.6,1.1,0.6,1.1h0.2c0.8,0,1.5,0.2,3,2.3c2.7,3.8,4.6,12.1,5.8,17.9s-7.6,36.1-8,37.4&#10;&#9;&#9;C376.1,242.6,375.9,242.8,375.6,242.8C375.7,242.8,375.6,242.8,375.6,242.8z M356.4,226.5l18.8,14.4c3.2-11,8.5-31.4,7.7-35.7&#10;&#9;&#9;c-1.2-5.8-3-13.8-5.5-17.4c-1.2-1.6-1.6-1.7-1.9-1.7c-0.8-0.1-1.3-0.3-2-2s-2-1.7-3.6-1.5c-0.5,0.1-1,0.1-1.5,0&#10;&#9;&#9;c-1.1-0.3-1.5-1.2-2.1-2.5c-0.3-0.7-0.6-1.4-1-2c-0.9-1.7-2.8-1.5-4.9-1.1h-0.2c-0.8,0.2-1.6-0.1-2.1-0.8c-0.3-0.5-0.9-0.8-1.5-0.7&#10;&#9;&#9;c-0.5,0-2.5,1.4-5.1,4.9c-2.7,3.6-5.4,8.6-4.6,11.7c1.4,5.6,8.9,8.8,8.9,8.9c0.2,0.1,0.3,0.3,0.4,0.5c0.2,0.8,2,8,2,9.8&#10;&#9;&#9;S356.7,224.1,356.4,226.5z"/>
	<path class="st1_coughing-71" d="M369.9,215.4c-0.1,0-0.3,0-0.4-0.1c-1.9-1.3-3-3.5-2.6-5.8c-1,0.8-2.2,1.1-3.4,0.7c-1.9-0.7-2.5-3.4-3.1-6.6&#10;&#9;&#9;c-0.7-3.9,3.6-9.4,5.5-11.6c2.3-2.7,2.8-2.7,3-2.7c0.4,0,0.7,0.3,0.7,0.7c0,0,0,0,0,0c0,0.3-0.2,0.5-0.5,0.6&#10;&#9;&#9;c-1.1,0.8-8.1,8.4-7.4,12.6c0.5,2.5,1,5.1,2.2,5.5c0.8,0.3,2-0.3,3.6-1.7c0.3-0.2,0.6-0.2,0.9,0c0.3,0.2,0.4,0.5,0.2,0.8&#10;&#9;&#9;c-0.1,0.2-1.6,4,1.6,6.1c0.3,0.2,0.4,0.7,0.2,1C370.3,215.3,370.1,215.4,369.9,215.4L369.9,215.4z"/>
	<path class="st0_coughing-71" d="M367.7,200.2c0,0,0.4,4,4.9,3.2"/>
	<path class="st1_coughing-71" d="M371.4,204.2c-1,0-2-0.3-2.8-0.9c-0.9-0.8-1.6-1.9-1.7-3.1c0-0.4,0.3-0.7,0.6-0.8c0.4,0,0.7,0.2,0.8,0.6&#10;&#9;&#9;c0.1,0.8,0.5,1.6,1.2,2.1c0.9,0.6,1.9,0.7,2.9,0.5c0.4-0.1,0.7,0.2,0.8,0.6c0.1,0.4-0.2,0.7-0.5,0.8c0,0,0,0,0,0&#10;&#9;&#9;C372.3,204.2,371.9,204.2,371.4,204.2z"/>
	<path class="st1_coughing-71" d="M368,208.4h-0.1c-0.4-0.1-0.7-0.4-0.6-0.8c0,0,0,0,0,0c0.1-0.5,0.7-4.9,3.3-4.9l0,0c0.4,0,0.7,0.3,0.7,0.7&#10;&#9;&#9;c0,0.4-0.3,0.7-0.7,0.7c0,0,0,0,0,0c-1,0-1.7,2.2-1.9,3.7C368.6,208.2,368.3,208.4,368,208.4z"/>
	<path class="st1_coughing-71" d="M359,204.7c-1.8,0-3.5-1.1-4.2-2.7c-1.9-3.7-2.2-4.7-1.1-7.3c1-2.4,9.6-10.8,10.6-11.8c0.3-0.3,0.7-0.3,1,0&#10;&#9;&#9;s0.3,0.7,0,1c-2.6,2.5-9.5,9.5-10.3,11.4c-0.9,2.1-0.8,2.6,1,6.1c0.7,1.7,2.7,2.4,4.4,1.7c0.1,0,0.1-0.1,0.2-0.1&#10;&#9;&#9;c0.3-0.2,0.8,0,0.9,0.3c0,0,0,0,0,0c0.2,0.3,0,0.8-0.3,0.9C360.6,204.5,359.8,204.7,359,204.7z"/>
	<path class="st1_coughing-71" d="M354.3,202.6c-0.2,0-0.3-0.1-0.5-0.2l0.5-0.5l-0.5,0.5c-0.6-0.5-5.5-4.7-6.4-8.3c-1-3.9,7.4-12.7,8.3-13.7&#10;&#9;&#9;c0.3-0.3,0.7-0.3,1,0c0,0,0,0,0,0c0.3,0.3,0.3,0.7,0,1c0,0,0,0,0,0c-3.4,3.6-8.6,10-8,12.4c0.7,2.6,4,6,6,7.6&#10;&#9;&#9;c0.3,0.2,0.4,0.7,0.1,1c-0.1,0.1-0.2,0.2-0.3,0.2C354.5,202.6,354.4,202.6,354.3,202.6z"/>
	<polygon class="st1_coughing-71" points="297.8,415.1 317.9,216.4 260.7,209.6 224.1,415.1 &#9;"/>
	<path class="st2_coughing-71 targetColor" d="M245.1,415.1c4.1-40.1,24.1-168.9,25.6-193.1c1.8-28.7-11.6-42.8-11.6-42.8s-35,5-57.3,57.6&#10;&#9;&#9;s-63.1,178-63.1,178l2.7,0.3L245.1,415.1z" style="fill: rgb(76, 244, 50);"/>
	<path class="st2_coughing-71 targetColor" d="M283.8,415.1h38.5c-2.6-8-8.8-27.3-9.7-38.3c-0.8-9,16.4-124.8,15.7-142.6s-10.4-17.8-10.4-17.8L299.5,230&#10;&#9;&#9;l5.3,5.1C304.8,235.1,286.3,369.4,283.8,415.1z" style="fill: rgb(76, 244, 50);"/>
	<path class="st2_coughing-71 targetColor" d="M324.3,224.3l13.6,42.6l15.3-44.6l32.5,16.6c0,0-13,134-37.8,124.7S310.7,331,310.7,331L324.3,224.3z" style="fill: rgb(76, 244, 50);"/>
	<path class="st0_coughing-71" d="M228,358.1c6.8,0.2,12.3,0.8,12.3,0.8s15.9,19.7,19.8,16.6s-10.6-21.8-11.6-22.8c0,0,8.7,1.8,14,4.8&#10;&#9;&#9;s11.7,10,16.5,9.2s5.1-3,0.4-8s-15-11.7-21.6-13.8c0,0,3.7-2.3,11-0.7s20.4,11.8,24.3,7.1s-3.3-10.4-11.9-13.6s-14.2-5.2-19.1-5.8&#10;&#9;&#9;c0,0,10.6-2.9,16.8-2.1s17.2,3.2,20.7,0.8s0.3-5-3.1-6.5s-23.4-4.7-26.8-4.7S250.9,326,243,327s-16-3.9-16-3.9l-18.1,27&#10;&#9;&#9;C208.9,350.1,221.3,358,228,358.1z"/>
	<path class="st1_coughing-71" d="M259.2,376.5c-5.1,0-16.4-13.5-19.3-16.9c-1.2-0.1-6.2-0.6-12-0.8l0,0c-6.9-0.2-18.9-7.9-19.5-8.2&#10;&#9;&#9;c-0.3-0.2-0.4-0.6-0.2-0.9c0,0,0,0,0-0.1l18.1-27c0.2-0.3,0.6-0.4,0.9-0.2c0.1,0,8,4.7,15.5,3.8c4.3-0.5,10.8-2.6,16.6-4.5&#10;&#9;&#9;c4.8-1.6,8.6-2.9,10.3-2.9l0,0c3.5,0,23.5,3.1,27.1,4.7c3.2,1.5,4.9,3.1,5,4.7c0.1,1.1-0.5,2.1-1.8,3c-3.1,2.2-11.1,0.9-17.5-0.1&#10;&#9;&#9;c-1.3-0.2-2.5-0.4-3.6-0.5c-3.9-0.5-9.6,0.5-13.2,1.3c4.1,0.9,8.9,2.6,15.3,5l0.6,0.2c5.7,2.1,12.1,5.8,13.3,10.1&#10;&#9;&#9;c0.4,1.6,0,3.3-1.1,4.6c-2.9,3.5-9.5,0.2-16-3c-3.4-1.7-6.6-3.3-9.1-3.8c-2.9-0.7-5.9-0.7-8.8,0c6.9,2.7,15.9,8.9,20.1,13.3&#10;&#9;&#9;c2.9,3.1,4,5.2,3.4,6.8s-2.7,2.1-4.3,2.4c-3.6,0.5-7.7-2.6-11.6-5.6c-1.7-1.4-3.5-2.6-5.3-3.7c-3.7-1.9-7.7-3.3-11.8-4.2&#10;&#9;&#9;c3.4,4.2,11.2,15.2,11.1,20c0,0.8-0.3,1.6-0.9,2.1C260.2,376.3,259.7,376.5,259.2,376.5z M228,357.4c6.7,0.2,12.3,0.8,12.4,0.8&#10;&#9;&#9;c0.2,0,0.4,0.1,0.5,0.3c6.4,8,16.5,18.3,18.9,16.5c0.3-0.3,0.4-0.7,0.4-1.1c0.1-5.2-11.2-19.8-12.1-20.6c-0.3-0.3-0.3-0.7-0.1-1&#10;&#9;&#9;c0.2-0.2,0.4-0.3,0.7-0.2c0.4,0.1,8.9,1.8,14.2,4.9c1.9,1.2,3.7,2.4,5.5,3.8c3.7,2.8,7.6,5.8,10.6,5.3c1.9-0.3,2.9-0.8,3.2-1.5&#10;&#9;&#9;s-0.1-2.2-3.1-5.4c-4.9-5.2-15-11.7-21.3-13.6c-0.4-0.1-0.6-0.5-0.5-0.9c0.1-0.2,0.2-0.3,0.3-0.4c0.2-0.1,4.1-2.4,11.5-0.8&#10;&#9;&#9;c2.6,0.6,5.9,2.2,9.4,3.9c5.6,2.8,12,6,14.3,3.4c0.8-0.9,1.2-2.1,0.8-3.3c-0.8-3.1-5.7-6.7-12.4-9.1l-0.6-0.2&#10;&#9;&#9;c-8.2-3-13.7-5-18.4-5.5c-0.3,0-0.6-0.3-0.6-0.6c0-0.3,0.2-0.6,0.5-0.7c0.4-0.1,10.9-2.9,17.1-2.1c1.1,0.1,2.3,0.3,3.6,0.5&#10;&#9;&#9;c5.9,0.9,13.9,2.2,16.5,0.3c0.9-0.6,1.3-1.2,1.2-1.8c-0.1-1.1-1.6-2.4-4.2-3.6c-3.2-1.5-22.9-4.6-26.5-4.6l0,0&#10;&#9;&#9;c-1.4,0-5.5,1.4-9.8,2.8c-5.8,1.9-12.5,4.1-16.9,4.6c-6.9,0.8-13.8-2.6-15.8-3.7l-17.3,25.8C212.4,351.4,222.4,357.3,228,357.4&#10;&#9;&#9;L228,357.4z"/>
	<path class="st1_coughing-71" d="M269.9,165.6c0,0,46.3,26.4,49,34.1c2.2,6.3-39.6-2.7-46.9-7.8S269.9,165.6,269.9,165.6z"/>
	<path class="st1_coughing-71" d="M313.6,202.7c-11.6,0-36.7-6.4-42-10.1c-7.6-5.4-2.6-26.2-2.4-27c0.1-0.4,0.5-0.6,0.9-0.5c0,0,0.1,0,0.1,0.1&#10;&#9;&#9;c1.9,1.1,46.6,26.6,49.3,34.5c0.3,0.8,0,1.6-0.6,2.1C318,202.4,316.1,202.7,313.6,202.7z M270.4,166.7c-0.9,4.1-3.9,20.4,2,24.7&#10;&#9;&#9;c8,5.7,42.2,11.8,45.6,9.2c0.2-0.1,0.3-0.3,0.2-0.5c0,0,0,0,0,0C316.1,194,283.8,174.4,270.4,166.7L270.4,166.7z"/>
	<path class="st0_coughing-71" d="M295,94c1.1,0.4,2.4,0.4,3.5,0c1.5-0.7,2.3-2.2,3.3-3.4c3.8-4.5,10-6.1,15.5-3.9c2.2,0.9,4,2.4,6.2,3.3&#10;&#9;&#9;c7.2,2.9,16-1.7,22.9,1.8c1.9,0.9,3.4,2.6,3.8,4.7c0.1,1-0.1,2,0,3c0.7,5.7,11.7,6.8,10.6,12.5c-0.4,2.2-2.8,3.6-3.2,5.8&#10;&#9;&#9;c-0.6,3,2.4,6.3,0.8,8.9c-0.5,0.9-1.5,1.4-2.1,2.3c-2.2,3.1,1.7,7.6,0.4,11.2c-0.7,2.1-2.9,3.2-4.1,5.1c-2.1,3.3-0.6,8.1-3.1,11&#10;&#9;&#9;c-1.1,1.3-2.9,2-4.2,3.1c-2.9,2.4-3.7,6.4-5.7,9.6c-7.5,11.9-41.5-5.8-49.7-11c-8.1-5.2-28-23.9-17.8-34.7c1.4-1.5,3.5-2.8,3.2-4.8&#10;&#9;&#9;c-0.1-1.3-1.2-2.2-1.7-3.4c-0.9-2.2,0.2-4.6,1.4-6.7l3.9-7.2c2.4-4.4,6-9.5,11-8.8C291.5,92.5,293.3,93.5,295,94z"/>
	<path class="st1_coughing-71" d="M330.1,173.7c-13.8,0-35.5-11.9-40.7-15.2c-6-3.8-19.5-15.8-20.8-26.6c-0.5-3.4,0.6-6.8,2.9-9.2&#10;&#9;&#9;c0.3-0.3,0.6-0.6,1-0.9c1.1-1.1,2.2-2.1,2.1-3.3c-0.1-0.7-0.4-1.3-0.9-1.8c-0.3-0.4-0.6-0.9-0.8-1.4c-1.1-2.7,0.5-5.7,1.4-7.3&#10;&#9;&#9;l3.9-7.2c1.4-2.5,5.5-10,11.7-9.2c1.2,0.2,2.4,0.5,3.5,1c0.6,0.2,1.2,0.5,1.9,0.7l0,0c1,0.4,2,0.4,3,0c1-0.6,1.8-1.4,2.4-2.4&#10;&#9;&#9;l0.6-0.8c4-4.8,10.6-6.4,16.3-4c1,0.5,2,1,3,1.6c1,0.6,2.1,1.2,3.2,1.7c3.3,1.3,7.1,1,10.8,0.7c4.1-0.4,8.5-0.7,12.2,1.2&#10;&#9;&#9;c2.2,1,3.7,2.9,4.1,5.3c0,0.5,0,1.1,0,1.6c0,0.5,0,0.9,0,1.4c0.3,2.4,2.8,4,5.3,5.5c2.9,1.8,6,3.8,5.3,7.2&#10;&#9;&#9;c-0.3,1.2-0.9,2.3-1.8,3.2c-0.7,0.7-1.2,1.6-1.5,2.6c-0.1,1.3,0.1,2.6,0.6,3.8c0.6,1.8,1.1,3.6,0.1,5.3c-0.3,0.5-0.8,1-1.2,1.4&#10;&#9;&#9;c-0.3,0.3-0.6,0.6-0.9,0.9c-1,1.4-0.5,3.3,0.1,5.3s1.1,3.9,0.4,5.8c-0.5,1.3-1.4,2.4-2.4,3.3c-2,1.7-3.2,4.3-3,6.9&#10;&#9;&#9;c-0.2,2.2-0.5,4.4-2,6.2c-0.8,0.8-1.7,1.5-2.7,2c-0.6,0.3-1.1,0.7-1.7,1.1c-1.8,1.4-2.7,3.5-3.7,5.8c-0.5,1.3-1.2,2.5-1.9,3.7&#10;&#9;&#9;c-1.4,2.1-3.5,3.6-6,4C332.7,173.6,331.4,173.7,330.1,173.7z M289,92.9c-3.3,0-6.4,2.8-9.5,8.5l-3.9,7.2c-1.1,2-2.1,4.2-1.3,6.1&#10;&#9;&#9;c0.2,0.4,0.4,0.8,0.7,1.2c0.6,0.7,0.9,1.5,1.1,2.4c0.2,1.9-1.2,3.3-2.5,4.5c-0.3,0.3-0.6,0.6-0.9,0.9c-2.1,2.1-3,5.1-2.6,8.1&#10;&#9;&#9;c1.2,9.7,13.7,21.4,20.2,25.6c7.5,4.8,31.9,17.2,43.6,14.6c2.1-0.4,4-1.6,5.2-3.4c0.7-1.1,1.3-2.3,1.8-3.5c1-2.3,2.1-4.6,4.1-6.3&#10;&#9;&#9;c0.6-0.4,1.2-0.9,1.8-1.2c0.9-0.5,1.7-1,2.3-1.8c1.2-1.4,1.4-3.3,1.6-5.4c0.1-1.9,0.6-3.8,1.5-5.6c0.6-0.8,1.2-1.6,1.9-2.2&#10;&#9;&#9;c0.9-0.8,1.5-1.7,2-2.7c0.5-1.5,0-3.1-0.5-4.9c-0.6-2.2-1.3-4.5,0.1-6.5c0.3-0.4,0.7-0.8,1.1-1.1c0.4-0.3,0.7-0.7,1-1.1&#10;&#9;&#9;c0.7-1.2,0.3-2.6-0.2-4.2c-0.6-1.4-0.8-2.9-0.6-4.5c0.3-1.2,0.9-2.2,1.7-3.2c0.7-0.8,1.2-1.7,1.5-2.6c0.5-2.5-1.9-4-4.6-5.7&#10;&#9;&#9;s-5.5-3.5-5.9-6.5c0-0.6,0-1.1,0-1.7c0-0.4,0-0.9,0-1.3c-0.4-1.9-1.6-3.4-3.4-4.2c-3.4-1.8-7.3-1.4-11.5-1.1&#10;&#9;&#9;c-3.8,0.3-7.8,0.7-11.4-0.8c-1.2-0.5-2.3-1.1-3.4-1.8c-0.9-0.6-1.9-1.1-2.9-1.5c-5.2-2.1-11.1-0.6-14.7,3.7&#10;&#9;&#9;c-0.2,0.3-0.4,0.5-0.6,0.8c-0.7,1.2-1.8,2.2-3,2.8c-1.3,0.5-2.7,0.5-4,0.1l0,0c-0.6-0.2-1.3-0.4-2-0.7c-1-0.5-2.1-0.8-3.2-1&#10;&#9;&#9;C289.4,93,289.2,92.9,289,92.9z"/>
	<path class="st0_coughing-71" d="M314.3,190.8l-8.5,26.3c0,0-11.8,16.9-28.1,5.4s-13.9-26.4-13.9-26.4l10.2-31.2c2-6.2,4-12.4,6.1-18.6&#10;&#9;&#9;c0.7-2.1,1.2-4.5,2.5-6.3c2.7-3.6,8.2-3.6,10.4-7.6c1.4-2.5,0.4-5.9,2.1-8.2s5-2.2,6.8-4.2c2.2-2.4,1.9-7.4,5.1-8.1&#10;&#9;&#9;c3.6-0.8,6.1,4.9,9.7,4.3c1.4-0.3,2.5-1.5,3.9-1.9c2-0.5,4,0.9,5.1,2.6s1.7,3.7,2.8,5.5c2.2,3.5,6.1,5.5,10.2,5.2&#10;&#9;&#9;c-0.8,2.5,1,5.2,3.4,6.3c2,1,4.6,1.1,6.8,1.2c0.6,6.6-1.9,14.7-3.2,21.2c-1.8,8.7-3.7,18.3-8.3,26.1&#10;&#9;&#9;C329.8,195.4,314.3,190.8,314.3,190.8z"/>
	<path class="st1_coughing-71" d="M289.1,227.2c-4.3-0.1-8.4-1.6-11.8-4.2c-16.4-11.6-14.2-26.9-14.2-27l12.2-37.5c1.3-4.1,2.7-8.2,4-12.4&#10;&#9;&#9;c0.2-0.5,0.3-1,0.5-1.5c0.4-1.8,1.1-3.5,2.1-5c1.4-1.8,3.4-2.8,5.3-3.7s4-1.9,5-3.8c0.5-1.1,0.8-2.4,0.8-3.6c0-1.7,0.5-3.3,1.4-4.7&#10;&#9;&#9;c1-1.1,2.3-2,3.8-2.4c1.1-0.4,2.2-1,3-1.8c0.8-1.1,1.4-2.3,1.7-3.5c0.7-2.1,1.5-4.3,3.8-4.8s3.8,0.9,5.5,2.2c1.4,1.2,2.8,2.3,4.2,2&#10;&#9;&#9;c0.7-0.2,1.3-0.5,1.8-0.9c0.6-0.4,1.3-0.8,2-1c2.3-0.6,4.7,1,5.9,2.8c0.6,1,1.1,2,1.6,3c0.4,0.9,0.8,1.7,1.2,2.5&#10;&#9;&#9;c2.1,3.3,5.7,5.1,9.6,4.9c0.4,0,0.7,0.3,0.7,0.6c0,0.1,0,0.2,0,0.3c-0.7,2.2,1,4.5,3,5.4s4.4,1,6.5,1.1c0.4,0,0.6,0.3,0.7,0.6&#10;&#9;&#9;c0.5,5.3-1,11.5-2.2,17c-0.4,1.5-0.7,3-1,4.4l-0.2,0.7c-1.7,8.4-3.7,17.9-8.2,25.6c-6.9,11.8-20.2,9.6-23.3,8.9l-8.3,25.7&#10;&#9;&#9;c0,0.1-0.1,0.1-0.1,0.2c-0.2,0.3-5.6,7.9-14.3,9.4C291,227.1,290.1,227.2,289.1,227.2z M307.8,112.6c-0.2,0-0.4,0-0.5,0.1&#10;&#9;&#9;c-1.5,0.4-2.1,2-2.8,3.9c-0.4,1.5-1.1,2.8-2,4c-1,1-2.2,1.7-3.5,2.1c-1.2,0.4-2.3,1.1-3.2,2c-0.7,1.2-1.1,2.6-1.1,4&#10;&#9;&#9;c0,1.4-0.4,2.9-1,4.2c-1.3,2.2-3.5,3.3-5.7,4.3c-1.9,0.9-3.7,1.7-4.8,3.3c-0.9,1.4-1.5,2.9-1.9,4.6c-0.1,0.5-0.3,1-0.5,1.5&#10;&#9;&#9;c-1.3,4.1-2.7,8.2-4,12.4l-12.2,37.4c0,0-2.1,14.5,13.6,25.6c6.5,4.6,13,5.1,19.4,1.6c3-1.7,5.6-4,7.7-6.7l8.4-26.2&#10;&#9;&#9;c0.1-0.4,0.5-0.6,0.9-0.5c0,0,0,0,0,0c0.6,0.2,15.1,4.3,22.4-8.1c4.4-7.5,6.3-16.4,8.1-25.1l0.2-0.7c0.3-1.4,0.6-2.9,1-4.5&#10;&#9;&#9;c1.2-5.2,2.6-11,2.3-15.9c-2.2,0-4.4-0.4-6.5-1.2c-2.3-1.1-4.2-3.6-3.9-6.2c-4.1,0-7.8-2.1-10-5.6c-0.5-0.9-0.9-1.7-1.3-2.7&#10;&#9;&#9;c-0.4-1-0.9-1.9-1.5-2.8c-1-1.4-2.7-2.7-4.4-2.3c-0.6,0.2-1.1,0.5-1.6,0.8c-0.7,0.5-1.5,0.9-2.3,1.1c-2.1,0.4-3.8-1-5.4-2.3&#10;&#9;&#9;C310.2,113.6,309,112.6,307.8,112.6z M305.8,217.1L305.8,217.1z"/>
	<path class="st0_coughing-71" d="M286.2,158.3c-4.1,0.1-8.1-1.3-11.1-4.1c-4.3-4-5.5-9.9-4.4-15.6c0.3-2.1,1.1-4.1,2.3-5.8&#10;&#9;&#9;c1.2-1.7,3.1-2.9,5.3-3.1c2.5-0.1,4.8,1.3,6.9,2.7c3.1,2.1,2.9,4,4.5,7c-0.2-0.3-0.2-1-0.4-1.3"/>
	<path class="st1_coughing-71" d="M285.6,159c-4.1,0-8-1.5-10.9-4.3c-4.2-3.9-5.9-9.8-4.6-16.2c0.3-2.2,1.2-4.3,2.5-6.1c1.3-1.9,3.5-3.1,5.8-3.4&#10;&#9;&#9;c2.9-0.2,5.5,1.6,7.4,2.8c1.8,1.2,3.1,2.9,3.7,5c0.1,0.2,0.2,0.5,0.3,0.7c0.1,0.1,0.2,0.1,0.3,0.2c0.1,0.3,0.2,0.6,0.3,0.9&#10;&#9;&#9;c0,0.1,0.1,0.3,0.1,0.4c0,0,0,0,0,0.1c0.2,0.3,0.1,0.8-0.2,1c-0.3,0.2-0.8,0.1-1-0.2l0,0c0-0.1-0.1-0.1-0.1-0.2&#10;&#9;&#9;c-0.4-0.8-0.7-1.5-1-2.3c-0.5-1.8-1.6-3.3-3.2-4.3c-2.2-1.5-4.3-2.7-6.5-2.6c-1.9,0.2-3.6,1.2-4.7,2.8c-1.1,1.6-1.9,3.5-2.2,5.5&#10;&#9;&#9;c-1.1,5.9,0.4,11.4,4.2,15c2.9,2.7,6.7,4.1,10.6,3.9c0.4,0,0.7,0.3,0.7,0.7c0,0.4-0.3,0.7-0.7,0.7c0,0,0,0,0,0L285.6,159z"/>
	<path class="st1_coughing-71" d="M310.8,201.7c0,0-9.5,3.1-14.4-7.6s-1.8-16.9-1.8-16.9s7,11.3,19.7,13.6L310.8,201.7z"/>
	<path class="st1_coughing-71" d="M307.6,202.8c-3.4,0-8.7-1.3-11.9-8.4c-5-10.9-1.9-17.3-1.8-17.5c0.1-0.2,0.3-0.4,0.6-0.4&#10;&#9;&#9;c0.3,0,0.5,0.1,0.6,0.3c0.1,0.1,7,11.1,19.2,13.3c0.2,0,0.4,0.2,0.5,0.3c0.1,0.2,0.1,0.4,0.1,0.6l-3.5,11c-0.1,0.2-0.2,0.4-0.4,0.4&#10;&#9;&#9;C309.9,202.7,308.8,202.9,307.6,202.8z M310.8,201.7L310.8,201.7z M294.8,178.7c-0.6,2.2-1.3,7.5,2.2,15.1&#10;&#9;&#9;c4.1,9.1,11.5,7.8,13.2,7.4l3.2-9.9C303.3,189.2,296.9,181.6,294.8,178.7L294.8,178.7z"/>
	<path class="st0_coughing-71" d="M324.7,142.5c0,0,4.5,17.6,1.4,19.3s-8.9-2.2-8.9-2.2"/>
	<path class="st1_coughing-71" d="M324.2,162.9c-3.3,0-7.2-2.6-7.5-2.7c-0.3-0.2-0.4-0.7-0.2-1c0.2-0.3,0.7-0.4,1-0.2c1.5,1,5.9,3.4,8.2,2.2&#10;&#9;&#9;c1.6-0.9,0.4-10.3-1.7-18.5c-0.1-0.4,0.1-0.8,0.5-0.8c0.4-0.1,0.8,0.1,0.8,0.5c1.1,4.3,4.4,18.3,1,20.1&#10;&#9;&#9;C325.7,162.8,325,163,324.2,162.9z"/>
	<polyline class="st0_coughing-71" points="304.4,133.6 319.6,138.2 309.5,127.9 &#9;"/>
	<path class="st1_coughing-71" d="M319.6,138.9c-0.1,0-0.1,0-0.2,0l-15.2-4.6c-0.4-0.1-0.6-0.5-0.5-0.9s0.5-0.6,0.9-0.5l12.6,3.8l-8.2-8.4&#10;&#9;&#9;c-0.3-0.3-0.3-0.7,0-1c0,0,0,0,0,0c0.3-0.3,0.7-0.3,1,0l10.1,10.4c0.2,0.2,0.3,0.6,0.1,0.9C320.1,138.8,319.9,138.9,319.6,138.9z"/>
	<polyline class="st0_coughing-71" points="344,141.3 332.9,141.9 345.1,148.2 &#9;"/>
	<path class="st1_coughing-71" d="M345.1,148.9c-0.1,0-0.2,0-0.3-0.1l-12.2-6.4c-0.3-0.1-0.4-0.5-0.4-0.8c0.1-0.3,0.3-0.5,0.6-0.6l11-0.5&#10;&#9;&#9;c0.4,0,0.7,0.3,0.7,0.6c0,0,0,0,0,0c0,0.4-0.3,0.7-0.6,0.7c0,0,0,0,0,0l-8.5,0.4l9.9,5.2c0.3,0.2,0.5,0.6,0.3,0.9c0,0,0,0,0,0&#10;&#9;&#9;C345.6,148.8,345.4,148.9,345.1,148.9z"/>
	<path class="st0_coughing-71" d="M315.2,167.3c-4,2.9-6.6,8.1-4,12.8c1.2,2.2,4.1,2.6,6.3,1.9c3.6-1.1,3.2-3.6,4.3-6.5c0.5-0.9,1-1.8,1.6-2.6&#10;&#9;&#9;c1.1-1.8,1.1-4,0-5.7c-1.5-2.2-4.1-2-6.2-1C316.5,166.4,315.9,166.8,315.2,167.3z"/>
	<path class="st1_coughing-71" d="M315.4,183c-2,0.1-3.8-0.9-4.8-2.6c-2.8-5.2,0.2-10.7,4.2-13.7l0,0c0.7-0.5,1.4-0.9,2.1-1.3&#10;&#9;&#9;c2.9-1.4,5.6-0.9,7.1,1.2c1.2,2,1.2,4.5,0,6.5c-0.2,0.3-0.4,0.7-0.6,1c-0.4,0.5-0.7,1-0.9,1.5c-0.2,0.7-0.4,1.3-0.6,1.9&#10;&#9;&#9;c-0.6,2.1-1.1,4.1-4.2,5C316.9,182.9,316.2,183,315.4,183z M315.6,167.9c-3.5,2.6-6.3,7.4-3.8,11.9c1,1.9,3.6,2.2,5.5,1.6&#10;&#9;&#9;c2.4-0.8,2.7-2.1,3.3-4.1c0.2-0.6,0.4-1.3,0.6-2c0.3-0.7,0.6-1.3,1.1-1.8c0.2-0.3,0.4-0.6,0.6-0.9c1-1.5,1-3.5,0-5&#10;&#9;&#9;c-1.6-2.3-4.5-1.2-5.3-0.8C316.8,167.1,316.2,167.4,315.6,167.9L315.6,167.9z"/>
	<path class="st0_coughing-71" d="M288.7,197.2c-3.9-2.6-6.9-6.1-10.3-10c-4-4.6-8.4-15-8.5-21.5c0,0-12.3,0.4-13.4,7.4c0,0-10.6-3.6-11.4,7.8&#10;&#9;&#9;s19.5,58.4,45.9,57.8c8.1-0.2,16.8-1.1,24.3-4.6c4.9-2.3,11.6-11.1,10.2-16.9c-0.6-2.3-2.6-4.3-2.3-6.6c0.2-1,0.6-2,1.1-2.9&#10;&#9;&#9;c1.6-4-0.4-8.4-4.4-10c-1.4-0.6-3-0.7-4.5-0.3c-2,0.4-3.7,1.7-5.6,2.5c-4.3,1.8-9.1,2.1-13.6,0.8&#10;&#9;&#9;C293.6,199.9,291,198.8,288.7,197.2z"/>
	<path class="st1_coughing-71" d="M290.6,239.3c-8,0-16-4.1-23.7-12.3c-13.7-14.4-23-38-22.5-46.3c0.3-3.6,1.5-6.2,3.7-7.6&#10;&#9;&#9;c2.8-1.9,6.3-1.3,7.9-1c1.9-6.8,13.4-7.2,13.9-7.2c0.2,0,0.4,0.1,0.5,0.2c0.1,0.1,0.2,0.3,0.2,0.5c0.2,6.6,4.6,16.7,8.4,21.1&#10;&#9;&#9;l0.1,0.1c3.4,3.9,6.3,7.2,10,9.8l0,0c2.3,1.5,4.8,2.7,7.4,3.4c4.3,1.3,9,1,13.1-0.7c0.6-0.3,1.2-0.6,1.7-0.9c1.3-0.7,2.6-1.3,4-1.7&#10;&#9;&#9;c4.5-1,9,1.8,10,6.3c0.4,1.7,0.2,3.4-0.4,5c-0.1,0.3-0.3,0.6-0.4,0.9c-0.3,0.6-0.5,1.2-0.6,1.8c0,1.3,0.4,2.5,1.1,3.6&#10;&#9;&#9;c0.5,0.9,0.9,1.8,1.2,2.8c1.5,6.1-5.5,15.2-10.6,17.6c-8.3,3.9-18,4.6-24.5,4.7L290.6,239.3z M252.9,173.2c-1.4,0-2.8,0.3-4,1.1&#10;&#9;&#9;c-1.8,1.2-2.8,3.4-3,6.5c-0.5,7.2,8.3,30.7,22.1,45.2c7.6,8,15.4,12,23.1,11.8c6.5-0.1,16-0.7,24-4.6c4.6-2.2,11.1-10.8,9.9-16&#10;&#9;&#9;c-0.2-0.9-0.6-1.7-1-2.4c-0.9-1.3-1.3-2.9-1.2-4.4c0.1-0.8,0.4-1.5,0.8-2.2c0.1-0.3,0.3-0.6,0.4-0.9c1.4-3.6-0.4-7.7-4-9.1&#10;&#9;&#9;c-1.3-0.5-2.7-0.6-4.1-0.3c-1.3,0.3-2.5,0.9-3.6,1.6c-0.6,0.3-1.2,0.6-1.8,0.9c-4.5,1.9-9.4,2.2-14.1,0.8c-2.8-0.7-5.4-1.9-7.8-3.6&#10;&#9;&#9;l0,0c-3.9-2.6-7-6.2-10.3-10l-0.1-0.1c-3.8-4.4-8.2-14.4-8.7-21.2c-2.5,0.2-11.2,1.3-12.1,6.8c0,0.2-0.2,0.4-0.3,0.5&#10;&#9;&#9;c-0.2,0.1-0.4,0.1-0.6,0.1C255.3,173.4,254.1,173.2,252.9,173.2z"/>
	<path class="st0_coughing-71" d="M282.3,191.5c2.5,1.3,4,3.8,4,6.6c0.6,20.2-3.3,25.5-10.4,33.8c-8.9,10.3-15.4,33.4-2.9,55.6&#10;&#9;&#9;c0,0,19.9-4.3,31,2.9c0,0-19.2-31.2-10.1-51.8c4.9-11.2,9.5-21.3,11.2-32.9S282.3,191.5,282.3,191.5z"/>
	<path class="st1_coughing-71" d="M304,291.1c-0.1,0-0.3,0-0.4-0.1c-10.7-7-30.3-2.9-30.5-2.8c-0.3,0.1-0.6-0.1-0.8-0.3&#10;&#9;&#9;c-5.6-9.9-8-21.3-6.6-32.6c1.1-9.2,4.6-17.9,9.6-23.7c7.1-8.3,10.8-13.5,10.2-33.3c0.1-2.5-1.3-4.8-3.5-6c-0.3-0.1-0.5-0.5-0.4-0.8&#10;&#9;&#9;c0.1-0.3,0.4-0.6,0.8-0.5c0.7,0.1,16.3,1.7,21.7,8.6c1.4,1.8,2.1,4.1,1.7,6.3c-1.6,11.2-6,21.1-10.6,31.5l-0.7,1.6&#10;&#9;&#9;c-8.8,20.1,9.8,50.9,10,51.2c0.2,0.3,0.1,0.6-0.1,0.9C304.3,291,304.2,291.1,304,291.1z M285.9,285.5c5.3,0,11.3,0.7,16.2,3.1&#10;&#9;&#9;c-2.8-5.2-5.3-10.5-7.2-16.1c-3.4-9.6-6.4-23.3-1.6-34.2l0.7-1.6c4.6-10.4,8.9-20.2,10.5-31.2c0.3-1.9-0.2-3.8-1.5-5.2&#10;&#9;&#9;c-3.8-4.8-13.4-6.9-18.1-7.7c1.3,1.5,2.1,3.5,2.1,5.5c0.6,20.3-3.2,25.8-10.5,34.3c-14.6,17-9.8,42.1-3.1,54.3&#10;&#9;&#9;C277.5,285.9,281.7,285.5,285.9,285.5L285.9,285.5z"/>
	<path class="st2_coughing-71 targetColor" d="M245.1,180.8C192.2,204,89.2,268,100.5,292.6s74.5,54.2,74.5,54.2l35.2-50.5L245.1,180.8z" style="fill: rgb(76, 244, 50);"/>
	<path class="st1_coughing-71" d="M202,361c-0.1,0-0.2,0-0.3-0.1c-20-10.1-68.5-36.9-69-37.1c-0.4-0.1-0.5-0.6-0.4-0.9c0.1-0.4,0.6-0.5,0.9-0.4&#10;&#9;&#9;c0,0,0.1,0,0.1,0.1c0.5,0.3,48.1,26.6,68.4,36.8l24.4-36.2l-59.4-56c-0.3-0.3-0.3-0.7,0-1s0.7-0.3,1,0l0,0l59.9,56.5&#10;&#9;&#9;c0.2,0.2,0.3,0.6,0.1,0.9l-25,37.2C202.5,360.9,202.2,361,202,361z"/>
	<path class="st1_coughing-71" d="M186.2,285.2c-0.4,0-0.7-0.3-0.7-0.7c0-0.2,0.1-0.3,0.2-0.5c0.3-0.3,26.6-29.1,40.2-43.9c0.3-0.3,0.7-0.3,1,0&#10;&#9;&#9;s0.3,0.7,0,1l0,0c-13.6,14.7-39.9,43.6-40.2,43.9C186.6,285.1,186.4,285.2,186.2,285.2z"/>
	<path class="st1_coughing-71" d="M320.5,180.3c-0.3,0-0.5-0.1-0.6-0.4c-2.8-5-9.7-4.9-9.8-4.9c-0.4,0-0.7-0.3-0.7-0.7c0-0.4,0.3-0.7,0.7-0.7&#10;&#9;&#9;c0,0,0,0,0,0c0.3,0,7.8-0.1,11.1,5.6c0.2,0.3,0.1,0.8-0.3,0.9c0,0,0,0,0,0C320.7,180.3,320.6,180.3,320.5,180.3z"/>
	<path class="st3_coughing-71" d="M280.5,217.7c-0.1,0-0.3,0-0.4-0.1c-15-10.3-22.6-38.6-23-39.8c-0.1-0.4,0.1-0.8,0.5-0.9&#10;&#9;&#9;c0.4-0.1,0.8,0.1,0.9,0.5c0.1,0.3,7.9,29,22.4,39c0.3,0.2,0.4,0.6,0.2,1c0,0,0,0,0,0C280.9,217.6,280.7,217.7,280.5,217.7z"/>
	<path class="st3_coughing-71" d="M309.9,225c-0.4,0-0.7-0.3-0.7-0.7c0-0.3,0.2-0.5,0.4-0.6c3.9-1.7,7.6-7.5,7.7-7.6c0.2-0.3,0.6-0.4,1-0.2&#10;&#9;&#9;c0,0,0,0,0,0c0.3,0.2,0.4,0.6,0.2,1c0,0,0,0,0,0c-0.2,0.2-4,6.2-8.3,8.1C310.2,225,310,225,309.9,225z"/>
	<path class="st3_coughing-71" d="M276,270c-0.3,0-0.6-0.2-0.7-0.6c-0.1-0.7-3.5-17.6,2.4-28c0.2-0.3,0.5-0.4,0.8-0.3c0.3,0.1,0.5,0.4,0.5,0.7&#10;&#9;&#9;c0,0.1-0.1,7.5,2,13.3c0.1,0.4,0,0.8-0.4,0.9c-0.4,0.1-0.8,0-0.9-0.4c0,0,0,0,0,0c-1.2-3.5-1.9-7.2-2-10.9&#10;&#9;&#9;c-3.9,10-1.1,24.3-1.1,24.4c0.1,0.4-0.2,0.7-0.5,0.8c0,0,0,0,0,0L276,270z"/>
	<path class="st3_coughing-71" d="M270.7,222.7c-0.1,0-0.2,0-0.3-0.1c-9.2-5.2-11.7-20.5-11.8-21.2c-0.1-0.4,0.2-0.8,0.5-0.8&#10;&#9;&#9;c0.4-0.1,0.8,0.2,0.8,0.5c0,0,0,0.1,0,0.1c0,0.1,2.5,15.3,11.1,20.2c0.3,0.2,0.5,0.6,0.3,1C271.2,222.6,271,222.7,270.7,222.7z"/>
	<path class="st3_coughing-71" d="M193.5,185.3c-0.3,0-0.6-0.2-0.7-0.5c-0.1-0.4,0.1-0.8,0.4-0.9c0.2-0.1,16.7-5.4,29.4-4.8&#10;&#9;&#9;c0.4,0,0.7,0.3,0.7,0.7c0,0,0,0,0,0c0,0.4-0.3,0.7-0.7,0.7c0,0,0,0,0,0c-12.4-0.6-28.7,4.7-28.9,4.8&#10;&#9;&#9;C193.6,185.3,193.5,185.3,193.5,185.3z"/>
	<path class="st1_coughing-71" d="M313,369.1L313,369.1c-0.4,0-0.7-0.4-0.7-0.8c0.1-1.1,10-107.2,11.6-122.6c0-0.4,0.4-0.7,0.8-0.6&#10;&#9;&#9;c0.4,0,0.7,0.4,0.6,0.8c-1.5,15.4-11.5,121.6-11.6,122.6C313.7,368.9,313.4,369.1,313,369.1z"/>
	<path class="st1_coughing-71" d="M328.1,301.9c-0.1,0-0.1,0-0.2,0c-0.4-0.1-0.6-0.5-0.5-0.9l25.1-78.9c0.1-0.4,0.5-0.6,0.9-0.5c0,0,0,0,0,0&#10;&#9;&#9;c0.4,0.1,0.6,0.5,0.5,0.9l-25.1,79C328.6,301.8,328.4,301.9,328.1,301.9z"/>
	<path class="st3_coughing-71" d="M361.6,161.3c-0.4,0-0.7-0.3-0.7-0.7c0-0.2,0.1-0.4,0.3-0.6l27.6-20c0.3-0.2,0.7-0.2,1,0.1c0,0,0,0,0,0&#10;&#9;&#9;c0.2,0.3,0.2,0.7-0.1,1c0,0,0,0-0.1,0l-27.7,20C361.9,161.3,361.8,161.3,361.6,161.3z"/>
	<path class="st3_coughing-71" d="M367.1,171.1c-0.3,0-0.6-0.2-0.7-0.5c-0.1-0.4,0.1-0.7,0.5-0.9c0,0,0,0,0,0l26-7.1c0.4-0.1,0.8,0.1,0.9,0.5&#10;&#9;&#9;c0.1,0.4-0.1,0.8-0.5,0.9l-26,7.1L367.1,171.1z"/>
	<path class="st3_coughing-71" d="M399.6,184.2L399.6,184.2l-19.7-2.6c-0.4,0-0.7-0.4-0.6-0.8c0-0.4,0.4-0.7,0.8-0.6l19.6,2.6&#10;&#9;&#9;c0.4,0.1,0.6,0.4,0.6,0.8C400.3,184,400,184.2,399.6,184.2z"/>
	<path class="st3_coughing-71" d="M396,199.9c-0.1,0-0.2,0-0.3-0.1l-10.4-4.7c-0.3-0.2-0.5-0.6-0.4-0.9c0.2-0.4,0.6-0.5,0.9-0.4c0,0,0,0,0,0&#10;&#9;&#9;l10.4,4.7c0.4,0.2,0.5,0.6,0.4,0.9C396.6,199.7,396.3,199.9,396,199.9L396,199.9z"/>
</g>
</svg>