<svg width="500" height="500" viewBox="0 0 500 500" fill="none" xmlns="http://www.w3.org/2000/svg">
<path d="M415.434 339.34V334.831C415.434 333.312 414.203 332.081 412.684 332.081H253.431C251.912 332.081 250.681 333.312 250.681 334.831V339.34C250.681 340.859 251.912 342.09 253.431 342.09H412.684C414.203 342.09 415.434 340.859 415.434 339.34Z" fill="#FFC044"/>
<path d="M415.438 384.134V379.625C415.438 378.106 414.206 376.875 412.687 376.875H253.434C251.916 376.875 250.684 378.106 250.684 379.625V384.134C250.684 385.653 251.916 386.884 253.434 386.884H412.687C414.206 386.884 415.438 385.653 415.438 384.134Z" fill="#FFC044"/>
<path d="M261.016 342.09V376.878H405.103V342.09H261.016Z" fill="#EFE4B5"/>
<path d="M53.3812 332.081V386.888H261.016V332.081H53.3812Z" fill="#FFC044"/>
<path d="M70.775 332.081V386.888H80.5719V332.081H70.775Z" fill="#028B34"/>
<path d="M233.822 332.078V386.884H243.619V332.078H233.822Z" fill="#028B34"/>
<path d="M392.7 351.634H274.656" stroke="#020202" stroke-width="1.7" stroke-linecap="round" stroke-linejoin="round"/>
<path d="M392.7 359.109H274.656" stroke="#020202" stroke-width="1.7" stroke-linecap="round" stroke-linejoin="round"/>
<path d="M392.7 366.587H274.656" stroke="#020202" stroke-width="1.7" stroke-linecap="round" stroke-linejoin="round"/>
<path d="M383.903 375.537L377.431 369.859L370.959 375.537V358.625H383.903V375.537Z" fill="#FE3456"/>
<path d="M390.487 206.919V203.694C390.487 202.242 389.311 201.065 387.859 201.065H253.556C252.105 201.065 250.928 202.242 250.928 203.694V206.919C250.928 208.37 252.105 209.547 253.556 209.547H387.859C389.311 209.547 390.487 208.37 390.487 206.919Z" fill="#FFC044"/>
<path d="M390.487 244.862V241.637C390.487 240.186 389.311 239.009 387.859 239.009H253.556C252.105 239.009 250.928 240.186 250.928 241.637V244.862C250.928 246.314 252.105 247.491 253.556 247.491H387.859C389.311 247.491 390.487 246.314 390.487 244.862Z" fill="#FFC044"/>
<path d="M259.681 209.543V239.012H381.734V209.543H259.681Z" fill="#EFE4B5"/>
<path d="M83.8031 201.065V247.49H259.684V201.065H83.8031Z" fill="#FFC044"/>
<path d="M100.159 212.009V236.55H243.328V212.009H100.159Z" fill="#020202"/>
<path d="M371.231 217.628H271.238" stroke="#020202" stroke-width="1.7" stroke-linecap="round" stroke-linejoin="round"/>
<path d="M371.231 223.962H271.238" stroke="#020202" stroke-width="1.7" stroke-linecap="round" stroke-linejoin="round"/>
<path d="M371.231 230.293H271.238" stroke="#020202" stroke-width="1.7" stroke-linecap="round" stroke-linejoin="round"/>
<path d="M429.587 392.09V388.262C429.587 386.982 428.549 385.943 427.269 385.943H292.575C291.294 385.943 290.256 386.982 290.256 388.262V392.09C290.256 393.371 291.294 394.409 292.575 394.409H427.269C428.549 394.409 429.587 393.371 429.587 392.09Z" fill="#FE3456"/>
<path d="M429.587 429.971V426.143C429.587 424.862 428.549 423.824 427.269 423.824H292.575C291.294 423.824 290.256 424.862 290.256 426.143V429.971C290.256 431.252 291.294 432.29 292.575 432.29H427.269C428.549 432.29 429.587 431.252 429.587 429.971Z" fill="#FE3456"/>
<path d="M298.997 394.412V423.831H420.85V394.412H298.997Z" fill="#EFE4B5"/>
<path d="M123.406 385.943V432.29H299V385.943H123.406Z" fill="#FE3456"/>
<path d="M410.363 402.478H310.534" stroke="#020202" stroke-width="1.7" stroke-linecap="round" stroke-linejoin="round"/>
<path d="M410.363 408.8H310.534" stroke="#020202" stroke-width="1.7" stroke-linecap="round" stroke-linejoin="round"/>
<path d="M410.363 415.125H310.534" stroke="#020202" stroke-width="1.7" stroke-linecap="round" stroke-linejoin="round"/>
<path d="M189.178 404.921C189.178 407.64 188.416 409.877 186.891 411.63C185.366 413.384 183.428 414.259 181.072 414.259C179.756 414.259 178.531 414.009 177.388 413.505C176.247 413.002 174.847 412.018 173.184 410.549C171.522 409.08 170.291 408.159 169.488 407.784C168.684 407.409 167.825 407.221 166.913 407.221C165.288 407.221 164.025 407.759 163.119 408.837C162.216 409.915 161.763 411.474 161.763 413.518L158.806 413.546C158.806 410.827 159.547 408.605 161.025 406.88C162.503 405.155 164.466 404.293 166.913 404.293C168.263 404.293 169.547 404.577 170.759 405.143C171.972 405.709 173.419 406.74 175.1 408.237C176.322 409.387 177.372 410.193 178.25 410.659C179.125 411.124 180.066 411.355 181.072 411.355C182.678 411.355 183.956 410.78 184.906 409.63C185.856 408.48 186.331 406.912 186.331 404.921H189.178Z" fill="white"/>
<path d="M263.591 404.606C263.591 407.324 262.828 409.562 261.303 411.315C259.778 413.068 257.841 413.943 255.484 413.943C254.169 413.943 252.944 413.693 251.8 413.19C250.659 412.687 249.259 411.703 247.597 410.234C245.934 408.765 244.703 407.843 243.9 407.468C243.097 407.093 242.238 406.906 241.325 406.906C239.7 406.906 238.437 407.443 237.531 408.521C236.628 409.599 236.175 411.159 236.175 413.203L233.219 413.231C233.219 410.512 233.959 408.29 235.438 406.565C236.916 404.84 238.878 403.978 241.325 403.978C242.675 403.978 243.959 404.262 245.172 404.828C246.384 405.393 247.831 406.424 249.513 407.921C250.734 409.071 251.784 409.878 252.663 410.343C253.538 410.809 254.478 411.04 255.484 411.04C257.091 411.04 258.369 410.465 259.319 409.315C260.269 408.165 260.744 406.596 260.744 404.606H263.591Z" fill="white"/>
<path d="M211.075 412.19C213.257 412.19 215.025 410.422 215.025 408.24C215.025 406.059 213.257 404.29 211.075 404.29C208.893 404.29 207.125 406.059 207.125 408.24C207.125 410.422 208.893 412.19 211.075 412.19Z" fill="white"/>
<path d="M118.075 287.9V331.453H306.491V287.9H118.075Z" fill="#4683EC"/>
<path d="M446.619 294.493V290.397C446.619 289.019 445.502 287.903 444.125 287.903H299.606C298.229 287.903 297.112 289.019 297.112 290.397V294.493C297.112 295.871 298.229 296.987 299.606 296.987H444.125C445.502 296.987 446.619 295.871 446.619 294.493Z" fill="#4683EC"/>
<path d="M446.619 328.959V324.862C446.619 323.485 445.502 322.369 444.125 322.369H299.606C298.229 322.369 297.112 323.485 297.112 324.862V328.959C297.112 330.337 298.229 331.453 299.606 331.453H444.125C445.502 331.453 446.619 330.337 446.619 328.959Z" fill="#4683EC"/>
<path d="M306.491 296.987V322.375H437.244V296.987H306.491Z" fill="#EFE4B5"/>
<path d="M425.987 306.25H318.869" stroke="#020202" stroke-width="1.7" stroke-linecap="round" stroke-linejoin="round"/>
<path d="M425.987 313.034H318.869" stroke="#020202" stroke-width="1.7" stroke-linecap="round" stroke-linejoin="round"/>
<path d="M79.6312 247.49V289.612H300.019V247.49H79.6312Z" fill="#028B34"/>
<path d="M435.678 253.521V250.243C435.678 248.723 434.446 247.49 432.925 247.49H293.838C292.317 247.49 291.084 248.723 291.084 250.243V253.521C291.084 255.042 292.317 256.275 293.838 256.275H432.925C434.446 256.275 435.678 255.042 435.678 253.521Z" fill="#028B34"/>
<path d="M435.678 286.856V283.578C435.678 282.057 434.446 280.825 432.925 280.825H293.838C292.317 280.825 291.084 282.057 291.084 283.578V286.856C291.084 288.376 292.317 289.609 293.838 289.609H432.925C434.446 289.609 435.678 288.376 435.678 286.856Z" fill="#028B34"/>
<path d="M300.153 256.275V280.828H426.609V256.275H300.153Z" fill="#EFE4B5"/>
<path d="M415.725 265.234H312.125" stroke="#020202" stroke-width="1.7" stroke-linecap="round" stroke-linejoin="round"/>
<path d="M415.725 271.796H312.125" stroke="#020202" stroke-width="1.7" stroke-linecap="round" stroke-linejoin="round"/>
<path d="M332.719 85.8124C332.719 85.8124 334.109 90.9686 334.631 92.828C335.153 94.6905 332.587 100.384 331.325 101.691C329.325 103.762 329.866 107.181 328.469 108.119C325.5 110.109 304.609 102.287 304.25 101.047C303.703 99.1718 307.456 96.6124 307.488 94.4905C307.531 91.3562 307.413 89.5655 309.147 86.3749C310.275 84.2968 312.447 83.2749 313.347 80.0093" fill="#020202"/>
<path d="M313.438 93.2939L310.124 106.381L320.439 108.993L323.753 95.9059L313.438 93.2939Z" fill="#FF7C51"/>
<path d="M317.184 97.3343C317.184 97.3343 318.159 103.387 321.172 106.075L323.747 95.903L317.994 94.4468L317.181 97.3343H317.184Z" fill="#020202"/>
<path d="M315.278 113.003C318.216 113.003 320.597 110.622 320.597 107.684C320.597 104.747 318.216 102.366 315.278 102.366C312.341 102.366 309.959 104.747 309.959 107.684C309.959 110.622 312.341 113.003 315.278 113.003Z" fill="#FF7C51"/>
<path d="M321.581 79.5157C324.841 79.5157 327.484 76.8728 327.484 73.6126C327.484 70.3524 324.841 67.7095 321.581 67.7095C318.321 67.7095 315.678 70.3524 315.678 73.6126C315.678 76.8728 318.321 79.5157 321.581 79.5157Z" fill="#020202"/>
<path d="M316.006 91.4971C316.006 91.4971 316.197 92.7596 315.522 94.0408C314.475 96.0283 314.425 98.0127 314.534 99.1096C314.741 101.194 313.897 102.894 312.966 104.047C312.556 104.553 311.809 104.71 311.172 104.425L307.556 102.816L311.706 90.1846L316.006 91.4939V91.4971Z" fill="#020202"/>
<path d="M312.694 84.5375C312.688 84.5656 312.684 84.5938 312.678 84.6219C312.066 87.9781 312.844 91.4406 314.813 94.2281C317.178 97.5813 320.456 101.837 322.391 102.662C327.184 104.706 329.828 102.925 332.138 100.272C333.434 98.7844 334.597 96.2344 335.463 93.9688C336.138 92.2094 336.631 90.6219 336.866 89.8313C336.969 89.4969 337.019 89.3063 337.019 89.3063C337.019 89.3063 337.394 87.7156 337.472 86.1188C337.503 85.5375 337.491 84.9563 337.409 84.4531C337.097 82.55 336.084 76.4031 328.406 74.3188C320.728 72.2344 316.491 75.3313 314.538 78.5969C313.691 80.0125 313.097 82.3469 312.694 84.5406V84.5375Z" fill="#FF7C51"/>
<path d="M328.122 91.6034C328.122 91.6034 328.475 88.6097 326.291 86.9628C324.103 85.3159 321.469 86.4784 321.469 86.4784C321.469 86.4784 320.947 89.369 323.394 91.1003C325.838 92.8315 328.125 91.6034 328.125 91.6034H328.122Z" fill="white"/>
<path d="M324.797 91.6157C326.221 91.6157 327.375 90.4615 327.375 89.0376C327.375 87.6137 326.221 86.4595 324.797 86.4595C323.373 86.4595 322.219 87.6137 322.219 89.0376C322.219 90.4615 323.373 91.6157 324.797 91.6157Z" fill="#020202"/>
<path d="M331.622 92.5692C331.622 92.5692 332.672 94.5067 335.034 94.0754C335.184 94.0504 335.328 94.0129 335.463 93.9692C336.138 92.2098 336.631 90.6223 336.866 89.8317C336.309 89.516 335.594 89.3192 334.75 89.5004C332.6 89.966 331.622 92.5692 331.622 92.5692Z" fill="white"/>
<path d="M336.062 92.3267C336.469 91.076 336.044 89.8169 335.113 89.5143C334.182 89.2117 333.098 89.9803 332.692 91.231C332.285 92.4817 332.71 93.7409 333.641 94.0434C334.571 94.346 335.655 93.5774 336.062 92.3267Z" fill="#020202"/>
<path d="M331.231 90.8818C331.231 90.8818 331.566 92.735 331.059 94.0068C330.556 95.2818 328.834 95.3193 328.834 95.3193" stroke="#020202" stroke-width="1.7" stroke-linecap="round" stroke-linejoin="round"/>
<path d="M328.556 93.8286L327.656 94.3661" stroke="#020202" stroke-width="1.7" stroke-linecap="round" stroke-linejoin="round"/>
<path d="M326.131 97.2223C326.131 97.2223 324.284 96.1723 324.075 94.6973" stroke="#020202" stroke-width="1.7" stroke-linecap="round" stroke-linejoin="round"/>
<path d="M328.913 86.2347C328.913 86.2347 325.972 82.0285 321.75 84.0222" stroke="#020202" stroke-width="1.7" stroke-linecap="round" stroke-linejoin="round"/>
<path d="M336.813 87.4033C336.813 87.4033 335.616 85.9658 332.8 87.2189" stroke="#020202" stroke-width="1.7" stroke-linecap="round" stroke-linejoin="round"/>
<path d="M331.959 80.197C331.959 80.197 335.934 81.3783 336.703 83.747C337.472 86.1158 337.019 89.3033 337.019 89.3033C337.019 89.3033 339.494 82.0908 335.522 77.7939C332.903 74.9595 330.309 74.9627 330.309 74.9627C330.309 74.9627 321.787 69.7845 315.794 75.6439C311.297 80.0408 312.419 91.1595 312.419 91.1595L315.759 89.7877L318.016 87.7002L320.197 82.8658C320.197 82.8658 323.337 83.1908 327.487 82.5408C330.05 82.1408 331.959 80.197 331.959 80.197Z" fill="#020202"/>
<path d="M331.966 78.6597C331.966 78.6597 331.525 81.9034 333.475 83.4222C335.194 84.7597 336.403 86.5659 336.403 86.5659C336.403 86.5659 336.3 83.119 335.341 81.9378C333.766 80.0003 334.816 78.2534 334.816 78.2534" fill="#020202"/>
<path d="M339.014 93.2245C339.619 90.8387 338.41 88.4746 336.316 87.9442C334.221 87.4137 332.033 88.9178 331.429 91.3036C330.825 93.6894 332.033 96.0535 334.128 96.584C336.222 97.1144 338.41 95.6103 339.014 93.2245Z" stroke="#020202" stroke-width="1.7" stroke-linecap="round" stroke-linejoin="round"/>
<path d="M329.729 90.8695C330.334 88.4837 329.002 86.0883 326.755 85.5193C324.508 84.9504 322.197 86.4232 321.592 88.809C320.988 91.1948 322.32 93.5902 324.567 94.1591C326.814 94.7281 329.125 93.2553 329.729 90.8695Z" stroke="#020202" stroke-width="1.7" stroke-linecap="round" stroke-linejoin="round"/>
<path d="M331.481 91.0973L329.831 90.6816" stroke="#020202" stroke-width="1.7" stroke-linecap="round" stroke-linejoin="round"/>
<path d="M321.684 88.422L315.716 84.5845" stroke="#020202" stroke-width="1.7" stroke-linecap="round" stroke-linejoin="round"/>
<path d="M338.919 93.5438L335.987 92.1938" stroke="#020202" stroke-width="1.7" stroke-linecap="round" stroke-linejoin="round"/>
<path d="M313.331 94.5408C316.105 94.5408 318.353 92.2924 318.353 89.5189C318.353 86.7454 316.105 84.4971 313.331 84.4971C310.558 84.4971 308.309 86.7454 308.309 89.5189C308.309 92.2924 310.558 94.5408 313.331 94.5408Z" fill="#FF7C51"/>
<path d="M311.653 86.6406L314.338 91.1469" stroke="#020202" stroke-width="1.7" stroke-linecap="round" stroke-linejoin="round"/>
<path d="M311.356 94.9687L312.259 97.1937C312.316 97.3344 312.494 97.3812 312.613 97.2844L314.466 95.7594C314.541 95.6969 314.569 95.5906 314.531 95.5L313.628 93.275C313.572 93.1344 313.394 93.0875 313.275 93.1844L311.422 94.7094C311.347 94.7719 311.319 94.8781 311.356 94.9687Z" fill="#4683EC"/>
<path d="M328.766 201.447L358.5 204.794L360.522 190.297L330.991 183.731L328.766 201.447Z" fill="#AA3B22"/>
<path d="M328.091 205.834L357.856 209.159L361.238 185.953L331.253 181.781L328.091 205.834Z" fill="#FE3456"/>
<path d="M329.188 205.881C335.886 205.881 341.316 200.451 341.316 193.753C341.316 187.055 335.886 181.625 329.188 181.625C322.489 181.625 317.059 187.055 317.059 193.753C317.059 200.451 322.489 205.881 329.188 205.881Z" fill="#FE3456"/>
<path d="M315.644 260.25C318.916 260.25 321.569 257.598 321.569 254.325C321.569 251.053 318.916 248.4 315.644 248.4C312.371 248.4 309.719 251.053 309.719 254.325C309.719 257.598 312.371 260.25 315.644 260.25Z" fill="#AA3B22"/>
<path d="M354.741 193.197L313.709 247.044L311.609 249.797L310.797 250.925L320.056 258.269L320.975 257.288L323.2 254.638L366.172 202.341L354.741 193.197Z" fill="#AA3B22"/>
<path d="M351.069 190.213L316.256 236.25C312.45 241.285 313.444 248.454 318.478 252.263C323.469 256.035 330.562 255.097 334.4 250.157L369.291 204.975L351.069 190.213Z" fill="#FE3456"/>
<path d="M360.181 209.316C366.653 209.316 371.9 204.069 371.9 197.597C371.9 191.125 366.653 185.878 360.181 185.878C353.709 185.878 348.463 191.125 348.463 197.597C348.463 204.069 353.709 209.316 360.181 209.316Z" fill="#FE3456"/>
<path d="M316.784 284.472C320.436 284.472 323.397 281.512 323.397 277.86C323.397 274.208 320.436 271.247 316.784 271.247C313.132 271.247 310.172 274.208 310.172 277.86C310.172 281.512 313.132 284.472 316.784 284.472Z" fill="#020202"/>
<path d="M316.784 280.906C318.467 280.906 319.831 279.542 319.831 277.859C319.831 276.177 318.467 274.812 316.784 274.812C315.102 274.812 313.738 276.177 313.738 277.859C313.738 279.542 315.102 280.906 316.784 280.906Z" fill="#FFC044"/>
<path d="M315.425 280.65L325.125 287.984C325.125 287.984 325.128 287.975 325.125 287.972C325.128 287.956 325.134 287.937 325.141 287.916C326.122 285.05 326.078 281.934 324.753 279.206C324.212 278.091 322.769 275.047 322.769 275.047L314.934 280.281L315.419 280.65H315.425Z" fill="#FFC044"/>
<path d="M312.725 283.081L318.406 287.359L323.731 291.356C323.759 291.319 324.678 290.091 325.122 287.981L314.937 280.281L312.725 283.081Z" fill="#020202"/>
<path d="M314.947 280.291L322.841 275.2C320.9 270.494 319.356 266.847 318.562 263.828C318.147 262.253 320.384 257.875 320.384 257.875L310.937 250.725C310.937 250.725 308.5 252.684 301.887 260.588C299.119 263.897 298.072 265.075 296.834 266.594L315.419 280.647" fill="#FFC044"/>
<path d="M294.594 269.353L312.725 283.081L314.947 280.291L296.837 266.594L296.831 266.603L294.594 269.353Z" fill="#020202"/>
<path d="M321.191 271.081L318.156 271.709" stroke="#020202" stroke-width="1.7" stroke-linecap="round" stroke-linejoin="round"/>
<path d="M319.878 267.781L315.384 267.709" stroke="#020202" stroke-width="1.7" stroke-linecap="round" stroke-linejoin="round"/>
<path d="M318.566 263.828L314.912 263.372" stroke="#020202" stroke-width="1.7" stroke-linecap="round" stroke-linejoin="round"/>
<path d="M319.194 260.225L316.7 258.678" stroke="#020202" stroke-width="1.7" stroke-linecap="round" stroke-linejoin="round"/>
<path d="M318.006 256.134C318.006 256.134 314.128 263.284 314.253 265.266C314.378 267.247 320.219 275.1 320.219 275.1C320.219 275.1 316.338 276.631 314.072 279.631" stroke="#020202" stroke-width="1.7" stroke-linecap="round" stroke-linejoin="round"/>
<path d="M303.684 272.313C303.684 272.313 305 264.066 301.553 260.991" stroke="#020202" stroke-width="1.7" stroke-linecap="round" stroke-linejoin="round"/>
<path d="M317.584 178.547C325.986 178.547 332.797 171.736 332.797 163.335C332.797 154.933 325.986 148.122 317.584 148.122C309.183 148.122 302.372 154.933 302.372 163.335C302.372 171.736 309.183 178.547 317.584 178.547Z" fill="#020202"/>
<path d="M299.35 192.085L336.356 191.882C338.125 191.872 340.147 189.95 339.909 187.888C339.603 185.188 338.997 180.15 336.866 174.282C336.866 174.282 334.728 167.007 332.778 163.41H302.353C302.353 163.41 296.594 172.828 295.406 189.963C295.263 192.022 297.588 192.094 299.347 192.085H299.35Z" fill="#FE3456"/>
<path d="M334.863 167.594H300.516" stroke="#020202" stroke-width="1.7" stroke-linecap="round" stroke-linejoin="round"/>
<path d="M328.544 163.41L329.787 167.594" stroke="#020202" stroke-width="1.7" stroke-linecap="round" stroke-linejoin="round"/>
<path d="M321.866 163.41L322.272 167.594" stroke="#020202" stroke-width="1.7" stroke-linecap="round" stroke-linejoin="round"/>
<path d="M313.381 163.41V167.594" stroke="#020202" stroke-width="1.7" stroke-linecap="round" stroke-linejoin="round"/>
<path d="M306.369 163.41L305.512 167.594" stroke="#020202" stroke-width="1.7" stroke-linecap="round" stroke-linejoin="round"/>
<path d="M337.094 272.603C340.366 272.603 343.019 269.951 343.019 266.678C343.019 263.406 340.366 260.753 337.094 260.753C333.822 260.753 331.169 263.406 331.169 266.678C331.169 269.951 333.822 272.603 337.094 272.603Z" fill="#AA3B22"/>
<path d="M331.444 194.397L331.194 262.094L331.178 265.556L331.169 266.719L343 267.088L343.344 262.425L346.078 194.794L331.444 194.397Z" fill="#AA3B22"/>
<path d="M338.438 206.341C344.91 206.341 350.156 201.094 350.156 194.622C350.156 188.15 344.91 182.903 338.438 182.903C331.965 182.903 326.719 188.15 326.719 194.622C326.719 201.094 331.965 206.341 338.438 206.341Z" fill="#FE3456"/>
<path d="M339.125 206.338C332.656 206.513 327.266 201.413 327.091 194.941C326.916 188.472 332.016 183.081 338.487 182.906H338.756C345.225 183.081 350.328 188.469 350.153 194.941C349.978 201.409 344.591 206.513 338.119 206.338" stroke="#020202" stroke-width="1.7" stroke-linecap="round" stroke-linejoin="round"/>
<path d="M326.719 194.231V251.947C326.719 258.26 331.837 263.378 338.15 263.378C344.406 263.378 349.5 258.35 349.578 252.097L350.156 195.016L326.719 194.231Z" fill="#FE3456"/>
<path d="M350.116 193.816L349.616 230.344" stroke="#020202" stroke-width="1.7" stroke-linecap="round" stroke-linejoin="round"/>
<path d="M326.503 222.312V254.844" stroke="#020202" stroke-width="1.7" stroke-linecap="round" stroke-linejoin="round"/>
<path d="M352.125 291.463C355.777 291.463 358.738 288.502 358.738 284.85C358.738 281.198 355.777 278.238 352.125 278.238C348.473 278.238 345.513 281.198 345.513 284.85C345.513 288.502 348.473 291.463 352.125 291.463Z" fill="#020202"/>
<path d="M352.125 287.897C353.808 287.897 355.172 286.533 355.172 284.85C355.172 283.167 353.808 281.803 352.125 281.803C350.442 281.803 349.078 283.167 349.078 284.85C349.078 286.533 350.442 287.897 352.125 287.897Z" fill="#FFC044"/>
<path d="M352.703 287.901L364.863 287.988C364.863 287.988 364.863 287.979 364.856 287.976C364.85 287.96 364.844 287.941 364.834 287.919C363.909 285.035 362.013 282.563 359.322 281.166C358.222 280.594 355.247 279.016 355.247 279.016L352.094 287.894H352.703V287.901Z" fill="#FFC044"/>
<path d="M351.991 291.463L359.103 291.5L365.763 291.525C365.763 291.478 365.769 289.944 364.863 287.988L352.094 287.897L351.991 291.463Z" fill="#020202"/>
<path d="M352.103 287.897L355.394 279.1C351.025 276.485 347.609 274.482 345.172 272.535C343.897 271.519 343.163 268.35 343.15 266.722L331.175 266.635C331.175 266.635 330.447 269.61 329.866 279.897C329.622 284.207 329.488 285.772 329.4 287.735L352.697 287.904" fill="#FFC044"/>
<path d="M329.247 291.285L351.991 291.463L352.103 287.897L329.4 287.731V287.741L329.247 291.285Z" fill="#020202"/>
<path d="M351.609 276.782L349.55 279.1" stroke="#020202" stroke-width="1.7" stroke-linecap="round" stroke-linejoin="round"/>
<path d="M348.584 274.919L344.8 277.688" stroke="#020202" stroke-width="1.7" stroke-linecap="round" stroke-linejoin="round"/>
<path d="M345.172 272.535L341.972 274.35" stroke="#020202" stroke-width="1.7" stroke-linecap="round" stroke-linejoin="round"/>
<path d="M343.525 269.269L340.6 269.519" stroke="#020202" stroke-width="1.7" stroke-linecap="round" stroke-linejoin="round"/>
<path d="M340.128 266.7C340.128 266.7 341.288 274.75 342.575 276.266C343.859 277.781 353.234 280.591 353.234 280.591C353.234 280.591 351.038 284.138 351.013 287.897" stroke="#020202" stroke-width="1.7" stroke-linecap="round" stroke-linejoin="round"/>
<path d="M338.306 288.229C338.306 288.229 334.434 280.829 329.834 280.422" stroke="#020202" stroke-width="1.7" stroke-linecap="round" stroke-linejoin="round"/>
<path d="M307.316 200.006L337.159 202.181L338.606 187.613L308.841 182.216L307.316 200.006Z" fill="#AA3B22"/>
<path d="M306.812 204.416L336.684 206.569L339.15 183.247L309.025 180.26L306.812 204.416Z" fill="#FE3456"/>
<path d="M307.434 204.432C314.133 204.432 319.563 199.002 319.563 192.303C319.563 185.605 314.133 180.175 307.434 180.175C300.736 180.175 295.306 185.605 295.306 192.303C295.306 199.002 300.736 204.432 307.434 204.432Z" fill="#FE3456"/>
<path d="M324.372 181.744L338.706 182.888" stroke="#020202" stroke-width="1.7" stroke-linecap="round" stroke-linejoin="round"/>
<path d="M322.559 116.959L328.066 156.575L339.294 155.175L335.669 115.525L322.559 116.959Z" fill="#FF7C51"/>
<path d="M325.559 138.591L342.919 137.566C342.85 136.781 340.884 120.237 334.325 111.984L322.562 116.956L325.563 138.591H325.559Z" fill="#EFE4B5"/>
<path d="M329.087 122.594C332.731 122.594 335.684 119.64 335.684 115.997C335.684 112.353 332.731 109.4 329.087 109.4C325.444 109.4 322.491 112.353 322.491 115.997C322.491 119.64 325.444 122.594 329.087 122.594Z" fill="#EFE4B5"/>
<path d="M342.716 134.297L325.106 135.334" stroke="#020202" stroke-width="1.7" stroke-linecap="round" stroke-linejoin="round"/>
<path d="M333.931 161.381L357.478 158.444L356.797 149.416L333.416 150.078L333.931 161.381Z" fill="#FF7C51"/>
<path d="M333.675 161.391C336.801 161.391 339.334 158.857 339.334 155.731C339.334 152.606 336.801 150.072 333.675 150.072C330.549 150.072 328.016 152.606 328.016 155.731C328.016 158.857 330.549 161.391 333.675 161.391Z" fill="#FF7C51"/>
<path d="M356.813 149.409C356.813 149.409 368.003 149.381 374.191 150.756C374.716 150.872 374.941 151.731 374.269 152.625L370.141 158.772C369.506 160.078 368.066 161.187 366.616 161.125C365.544 161.081 364.666 160.944 363.647 160.678C362.469 160.372 361.322 159.916 359.944 159.341C358.309 158.659 357.541 158.644 355.941 158.391L356.816 149.406L356.813 149.409Z" fill="#FF7C51"/>
<path d="M356.816 158.488C359.322 158.488 361.353 156.456 361.353 153.95C361.353 151.444 359.322 149.413 356.816 149.413C354.31 149.413 352.278 151.444 352.278 153.95C352.278 156.456 354.31 158.488 356.816 158.488Z" fill="#FF7C51"/>
<path d="M380.553 154.915C380.725 155.209 381.569 156.347 380.697 156.84C380.016 157.225 378.919 157.022 377.997 156.1C377.553 155.656 376.672 154.728 376.366 154.39C376.435 154.334 379.156 152.362 379.156 152.362C379.156 152.362 379.91 153.803 380.556 154.919L380.553 154.915Z" fill="#FF7C51"/>
<path d="M377.606 154.906C378.569 154.906 379.35 154.125 379.35 153.162C379.35 152.199 378.569 151.418 377.606 151.418C376.643 151.418 375.863 152.199 375.863 153.162C375.863 154.125 376.643 154.906 377.606 154.906Z" fill="#FF7C51"/>
<path d="M373.931 154.225C374.894 154.225 375.675 153.444 375.675 152.481C375.675 151.518 374.894 150.737 373.931 150.737C372.968 150.737 372.188 151.518 372.188 152.481C372.188 153.444 372.968 154.225 373.931 154.225Z" fill="#FF7C51"/>
<path d="M377.281 154.878L373.606 154.197L374.194 150.759C374.194 150.759 377.506 151.334 378.003 151.466L377.285 154.881L377.281 154.878Z" fill="#FF7C51"/>
<path d="M376.472 155.637C377.435 155.637 378.216 154.857 378.216 153.894C378.216 152.931 377.435 152.15 376.472 152.15C375.509 152.15 374.728 152.931 374.728 153.894C374.728 154.857 375.509 155.637 376.472 155.637Z" fill="#FF7C51"/>
<path d="M378.006 154.725C378.466 153.878 378.153 152.819 377.309 152.359C376.462 151.9 375.403 152.212 374.944 153.056" stroke="#020202" stroke-width="1.7" stroke-linecap="round" stroke-linejoin="round"/>
<path d="M380.253 156.034C380.45 156.312 381.384 157.378 380.556 157.941C379.909 158.381 378.8 158.269 377.803 157.428C377.325 157.025 375.453 155.337 375.341 155.219C375.422 155.138 377.834 152.797 377.834 152.797C377.834 152.797 379.516 154.978 380.253 156.034Z" fill="#FF7C51"/>
<path d="M377.831 152.797C377.831 152.797 379.512 154.978 380.25 156.034" stroke="#020202" stroke-width="1.7" stroke-linecap="round" stroke-linejoin="round"/>
<path d="M371.341 155.162C372.304 155.162 373.084 154.382 373.084 153.419C373.084 152.456 372.304 151.675 371.341 151.675C370.378 151.675 369.597 152.456 369.597 153.419C369.597 154.382 370.378 155.162 371.341 155.162Z" fill="#FF7C51"/>
<path d="M376.272 155.625L371.178 155.156L371.456 151.678C371.456 151.678 376.009 152.112 376.613 152.153L376.269 155.625H376.272Z" fill="#FF7C51"/>
<path d="M371.456 151.678C371.456 151.678 376.009 152.112 376.613 152.153" stroke="#020202" stroke-width="1.7" stroke-linecap="round" stroke-linejoin="round"/>
<path d="M376.169 157.4C377.132 157.4 377.913 156.619 377.913 155.656C377.913 154.693 377.132 153.913 376.169 153.913C375.206 153.913 374.425 154.693 374.425 155.656C374.425 156.619 375.206 157.4 376.169 157.4Z" fill="#FF7C51"/>
<path d="M377.638 156.597C378.156 155.784 377.919 154.706 377.11 154.187C376.297 153.669 375.219 153.906 374.7 154.716" stroke="#020202" stroke-width="1.7" stroke-linecap="round" stroke-linejoin="round"/>
<path d="M380.194 158.55C380.369 158.844 381.228 159.969 380.359 160.472C379.681 160.865 378.584 160.675 377.65 159.765C377.2 159.328 375.113 157.094 374.944 156.9C375.013 156.84 377.588 154.644 377.588 154.644C377.588 154.644 379.531 157.447 380.194 158.553V158.55Z" fill="#FF7C51"/>
<path d="M377.588 154.641C377.588 154.641 379.531 157.444 380.194 158.55" stroke="#020202" stroke-width="1.7" stroke-linecap="round" stroke-linejoin="round"/>
<path d="M370.594 156.919C371.557 156.919 372.338 156.138 372.338 155.175C372.338 154.212 371.557 153.431 370.594 153.431C369.631 153.431 368.85 154.212 368.85 155.175C368.85 156.138 369.631 156.919 370.594 156.919Z" fill="#FF7C51"/>
<path d="M375.969 157.39L370.431 156.912L370.697 153.434C370.697 153.434 376.022 153.822 376.525 153.95L375.966 157.39H375.969Z" fill="#FF7C51"/>
<path d="M370.7 153.434C370.7 153.434 376.025 153.822 376.528 153.95" stroke="#020202" stroke-width="1.7" stroke-linecap="round" stroke-linejoin="round"/>
<path d="M375.844 159.734C376.807 159.734 377.588 158.953 377.588 157.99C377.588 157.027 376.807 156.247 375.844 156.247C374.881 156.247 374.1 157.027 374.1 157.99C374.1 158.953 374.881 159.734 375.844 159.734Z" fill="#FF7C51"/>
<path d="M377.375 158.825C377.834 157.978 377.522 156.918 376.678 156.459C375.831 156 374.772 156.312 374.313 157.156" stroke="#020202" stroke-width="1.7" stroke-linecap="round" stroke-linejoin="round"/>
<path d="M379.622 160.134C379.819 160.412 380.753 161.478 379.925 162.04C379.278 162.481 378.169 162.368 377.172 161.528C376.694 161.124 374.719 159.346 374.709 159.318L377.238 156.946C377.238 156.946 378.881 159.081 379.622 160.137V160.134Z" fill="#FF7C51"/>
<path d="M377.238 156.943C377.238 156.943 378.881 159.078 379.622 160.134C379.697 160.243 379.888 160.471 380.041 160.743" stroke="#020202" stroke-width="1.7" stroke-linecap="round" stroke-linejoin="round"/>
<path d="M370.709 159.262C371.673 159.262 372.453 158.482 372.453 157.519C372.453 156.556 371.673 155.775 370.709 155.775C369.746 155.775 368.966 156.556 368.966 157.519C368.966 158.482 369.746 159.262 370.709 159.262Z" fill="#FF7C51"/>
<path d="M375.7 159.731L370.541 159.256L370.831 155.778C370.831 155.778 375.753 156.156 376.275 156.303L375.7 159.731Z" fill="#FF7C51"/>
<path d="M370.835 155.778C370.835 155.778 375.756 156.156 376.278 156.303" stroke="#020202" stroke-width="1.7" stroke-linecap="round" stroke-linejoin="round"/>
<path d="M370.338 161.353C371.332 161.353 372.138 160.548 372.138 159.553C372.138 158.559 371.332 157.753 370.338 157.753C369.343 157.753 368.538 158.559 368.538 159.553C368.538 160.548 369.343 161.353 370.338 161.353Z" fill="#FF7C51"/>
<path d="M368.691 158.832C369.091 157.922 370.15 157.51 371.06 157.907C371.969 158.307 372.381 159.366 371.985 160.276" stroke="#020202" stroke-width="1.7" stroke-linecap="round" stroke-linejoin="round"/>
<path d="M375.235 160.106C375.463 158.684 374.4 158.141 372.478 157.922C372.138 157.884 371.769 157.853 371.375 157.831C371.041 157.813 370.744 157.775 370.444 157.756L370.353 161.353C372.61 161.438 375.05 161.272 375.238 160.106H375.235Z" fill="#FF7C51"/>
<path d="M372.478 157.922C372.138 157.884 371.769 157.853 371.375 157.831C371.041 157.813 370.744 157.775 370.444 157.756" stroke="#020202" stroke-width="1.7" stroke-linecap="round" stroke-linejoin="round"/>
<path d="M366.791 161.138C367.785 161.138 368.591 160.332 368.591 159.338C368.591 158.343 367.785 157.538 366.791 157.538C365.797 157.538 364.991 158.343 364.991 159.338C364.991 160.332 365.797 161.138 366.791 161.138Z" fill="#FF7C51"/>
<path d="M370.35 161.353L370.36 157.756C368.294 157.669 366.978 157.55 366.978 157.55L366.619 161.131C366.619 161.131 368.406 161.334 370.35 161.356V161.353Z" fill="#FF7C51"/>
<path d="M370.36 157.753C368.294 157.666 366.978 157.547 366.978 157.547" stroke="#020202" stroke-width="1.7" stroke-linecap="round" stroke-linejoin="round"/>
<path d="M295.841 115.563C295.95 113.038 296.2 110.822 298.675 110.041C304.628 108.163 311.166 107.7 311.166 107.7H321.784C321.784 107.7 325.656 107.935 330.928 109.663C333.394 110.472 335.197 113.038 335.306 115.563L340.825 166.316H290.684L295.841 115.563Z" fill="#EFE4B5"/>
<path d="M337.731 137.872L336.072 122.594" stroke="#020202" stroke-width="1.7" stroke-linecap="round" stroke-linejoin="round"/>
<path d="M325.322 135.478L330.056 137.538L334.794 135.478V124.506H325.322V135.478Z" stroke="white" stroke-width="1.7" stroke-linecap="round" stroke-linejoin="round"/>
<path d="M293.784 116.128L292.994 156.132L304.3 156.619L306.938 116.988L293.784 116.128Z" fill="#FF7C51"/>
<path d="M300.369 123.006C304.01 123.006 306.963 120.054 306.963 116.413C306.963 112.771 304.01 109.819 300.369 109.819C296.727 109.819 293.775 112.771 293.775 116.413C293.775 120.054 296.727 123.006 300.369 123.006Z" fill="#EFE4B5"/>
<path d="M305.5 138.591L286.675 137.675C286.744 136.891 288.631 120.584 295.191 112.334L306.953 116.809L305.503 138.591H305.5Z" fill="#EFE4B5"/>
<path d="M305.5 138.591L306.722 121.082" stroke="#020202" stroke-width="1.7" stroke-linecap="round" stroke-linejoin="round"/>
<path d="M287.062 134.297L305.731 135.297" stroke="#020202" stroke-width="1.7" stroke-linecap="round" stroke-linejoin="round"/>
<path d="M298.653 162.035C301.779 162.035 304.313 159.501 304.313 156.375C304.313 153.25 301.779 150.716 298.653 150.716C295.528 150.716 292.994 153.25 292.994 156.375C292.994 159.501 295.528 162.035 298.653 162.035Z" fill="#FF7C51"/>
<path d="M297.191 161.841L334.481 169.935L336.247 161.041L300.113 150.91L297.191 161.841Z" fill="#FF7C51"/>
<path d="M305.847 152.516L300.113 150.91" stroke="#020202" stroke-width="1.7" stroke-linecap="round" stroke-linejoin="round"/>
<path d="M354.009 171.497C352.834 172.722 351.556 171.784 349.869 169.787C349.653 169.531 349.478 169.356 349.281 169.128L352.025 166.8C353.453 168.55 354.831 170.64 354.013 171.494L354.009 171.497Z" fill="#020202"/>
<path d="M350.616 169.725C351.61 169.725 352.416 168.919 352.416 167.925C352.416 166.931 351.61 166.125 350.616 166.125C349.622 166.125 348.816 166.931 348.816 167.925C348.816 168.919 349.622 169.725 350.616 169.725Z" fill="#020202"/>
<path d="M347.216 168.7C348.21 168.7 349.016 167.894 349.016 166.9C349.016 165.906 348.21 165.1 347.216 165.1C346.222 165.1 345.416 165.906 345.416 166.9C345.416 167.894 346.222 168.7 347.216 168.7Z" fill="#020202"/>
<path d="M351.237 166.237L350.056 169.634C348.091 169 346.787 168.647 346.787 168.647L347.634 165.15C347.634 165.15 349.406 165.584 351.237 166.237Z" fill="#020202"/>
<path d="M350.822 168.769C351.785 168.769 352.566 167.988 352.566 167.025C352.566 166.062 351.785 165.281 350.822 165.281C349.859 165.281 349.078 166.062 349.078 167.025C349.078 167.988 349.859 168.769 350.822 168.769Z" fill="#FF7C51"/>
<path d="M336.341 161.053C336.341 161.053 347.513 164.094 350.869 165.278C350.628 165.885 350.506 166.088 350.225 166.66L347.572 171.991C347.234 172.682 346.541 173.125 345.772 173.144C344.672 173.172 343.059 173.285 341.95 173.057C338.122 172.275 334.441 170.688 332.791 169.316L336.344 161.05L336.341 161.053Z" fill="#FF7C51"/>
<path d="M335.106 169.963C337.612 169.963 339.644 167.931 339.644 165.425C339.644 162.919 337.612 160.888 335.106 160.888C332.6 160.888 330.569 162.919 330.569 165.425C330.569 167.931 332.6 169.963 335.106 169.963Z" fill="#FF7C51"/>
<path d="M355.9 169.753C356.863 169.753 357.644 168.972 357.644 168.009C357.644 167.046 356.863 166.266 355.9 166.266C354.937 166.266 354.156 167.046 354.156 168.009C354.156 168.972 354.937 169.753 355.9 169.753Z" fill="#FF7C51"/>
<path d="M360.15 168.903C360.422 169.11 361.634 169.838 361.016 170.625C360.531 171.241 359.441 171.472 358.238 170.972C357.659 170.731 355.316 169.663 355.222 169.616C355.263 169.541 356.894 166.575 356.894 166.575C356.894 166.575 359.125 168.122 360.15 168.903Z" fill="#FF7C51"/>
<path d="M350.822 168.006C351.364 168.006 351.803 167.567 351.803 167.025C351.803 166.483 351.364 166.044 350.822 166.044C350.28 166.044 349.841 166.483 349.841 167.025C349.841 167.567 350.28 168.006 350.822 168.006Z" fill="#FF7C51"/>
<path d="M355.544 169.716L350.488 168.738L351.141 165.31C351.141 165.31 355.941 166.175 356.444 166.35L355.547 169.716H355.544Z" fill="#FF7C51"/>
<path d="M354.15 172.097C355.113 172.097 355.894 171.317 355.894 170.354C355.894 169.391 355.113 168.61 354.15 168.61C353.187 168.61 352.406 169.391 352.406 170.354C352.406 171.317 353.187 172.097 354.15 172.097Z" fill="#FF7C51"/>
<path d="M355.366 171.607C356.056 170.935 356.075 169.832 355.403 169.141C354.731 168.451 353.628 168.432 352.938 169.104" stroke="#020202" stroke-width="1.7" stroke-linecap="round" stroke-linejoin="round"/>
<path d="M357.403 174.094C357.506 174.419 358.081 175.713 357.125 176.003C356.375 176.232 355.35 175.794 354.65 174.694C354.312 174.166 352.687 171.319 352.653 171.247C352.712 171.219 355.778 169.722 355.778 169.722C355.778 169.722 357.012 172.866 357.403 174.094Z" fill="#FF7C51"/>
<path d="M355.778 169.725C355.778 169.725 357.012 172.869 357.403 174.097" stroke="#020202" stroke-width="1.7" stroke-linecap="round" stroke-linejoin="round"/>
<path d="M348.988 169.944C349.951 169.944 350.731 169.163 350.731 168.2C350.731 167.237 349.951 166.457 348.988 166.457C348.024 166.457 347.244 167.237 347.244 168.2C347.244 169.163 348.024 169.944 348.988 169.944Z" fill="#FF7C51"/>
<path d="M353.497 171.972L348.309 169.809L349.637 166.584C349.637 166.584 354.453 168.519 354.891 168.778L353.494 171.975L353.497 171.972Z" fill="#FF7C51"/>
<path d="M350.691 167.041C350.691 167.041 354.456 168.519 354.894 168.778" stroke="#020202" stroke-width="1.7" stroke-linecap="round" stroke-linejoin="round"/>
<path d="M352.013 173.254C352.976 173.254 353.756 172.473 353.756 171.51C353.756 170.547 352.976 169.766 352.013 169.766C351.049 169.766 350.269 170.547 350.269 171.51C350.269 172.473 351.049 173.254 352.013 173.254Z" fill="#FF7C51"/>
<path d="M353.359 172.619C353.972 171.875 353.866 170.775 353.122 170.163C352.378 169.55 351.278 169.656 350.666 170.4" stroke="#020202" stroke-width="1.7" stroke-linecap="round" stroke-linejoin="round"/>
<path d="M355.319 174.328C355.459 174.641 356.175 175.86 355.256 176.256C354.538 176.566 353.469 176.247 352.65 175.231C352.256 174.744 350.653 172.625 350.65 172.597L353.575 170.731C353.575 170.731 354.794 173.153 355.319 174.328Z" fill="#FF7C51"/>
<path d="M353.572 170.731C353.572 170.731 354.791 173.153 355.316 174.328" stroke="#020202" stroke-width="1.7" stroke-linecap="round" stroke-linejoin="round"/>
<path d="M347.063 171.819C348.026 171.819 348.806 171.038 348.806 170.075C348.806 169.112 348.026 168.332 347.063 168.332C346.1 168.332 345.319 169.112 345.319 170.075C345.319 171.038 346.1 171.819 347.063 171.819Z" fill="#FF7C51"/>
<path d="M351.544 173.191L346.556 171.744L347.516 168.391C347.516 168.391 352.278 169.679 352.753 169.932L351.544 173.191Z" fill="#FF7C51"/>
<path d="M347.516 168.391C347.516 168.391 352.278 169.679 352.753 169.932" stroke="#020202" stroke-width="1.7" stroke-linecap="round" stroke-linejoin="round"/>
<path d="M349.016 174.594C349.979 174.594 350.759 173.814 350.759 172.851C350.759 171.888 349.979 171.107 349.016 171.107C348.053 171.107 347.272 171.888 347.272 172.851C347.272 173.814 348.053 174.594 349.016 174.594Z" fill="#FF7C51"/>
<path d="M350.363 173.96C350.975 173.216 350.869 172.116 350.125 171.503C349.381 170.891 348.281 170.997 347.669 171.741" stroke="#020202" stroke-width="1.7" stroke-linecap="round" stroke-linejoin="round"/>
<path d="M351.76 174.907C351.9 175.219 352.616 176.438 351.697 176.835C350.978 177.144 349.91 176.825 349.091 175.81C348.697 175.322 347.681 173.979 347.65 173.935L350.631 172.197C350.631 172.197 351.231 173.729 351.76 174.907Z" fill="#FF7C51"/>
<path d="M350.635 172.2C350.635 172.2 351.235 173.731 351.763 174.91" stroke="#020202" stroke-width="1.7" stroke-linecap="round" stroke-linejoin="round"/>
<path d="M345.434 173.525C346.397 173.525 347.178 172.744 347.178 171.781C347.178 170.818 346.397 170.038 345.434 170.038C344.471 170.038 343.691 170.818 343.691 171.781C343.691 172.744 344.471 173.525 345.434 173.525Z" fill="#FF7C51"/>
<path d="M348.522 174.525L344.934 173.453L345.881 170.097C345.881 170.097 349.281 171.028 349.744 171.266L348.519 174.522L348.522 174.525Z" fill="#FF7C51"/>
<path d="M345.884 170.097C345.884 170.097 349.284 171.028 349.747 171.266" stroke="#020202" stroke-width="1.7" stroke-linecap="round" stroke-linejoin="round"/>
<path d="M387.209 145.547L386.522 148.659L380.766 174.769L379.869 178.828C379.647 179.834 378.753 180.553 377.719 180.553H323.503C322.1 180.553 320.347 182.437 320.647 181.066L322.044 174.769L327.8 148.659L328.697 144.6C328.919 143.591 329.813 142.875 330.847 142.875H385.063C386.466 142.875 387.513 144.175 387.209 145.55V145.547Z" fill="#4683EC"/>
<path d="M387.209 145.547L386.522 148.659H327.803L328.7 144.6C328.922 143.591 329.816 142.875 330.85 142.875H385.066C386.469 142.875 387.516 144.175 387.213 145.55L387.209 145.547Z" fill="#4683EC"/>
<path d="M387.209 145.547L386.522 148.66L380.766 174.772L379.869 178.831C379.647 179.838 378.753 180.556 377.722 180.556H375.603C376.638 180.556 377.531 179.835 377.753 178.831L378.647 174.772L384.403 148.66L385.091 145.547C385.394 144.172 384.35 142.872 382.944 142.872H385.062C386.466 142.872 387.509 144.172 387.209 145.547Z" fill="#4683EC"/>
<path d="M303.106 179.378H379.669L378.906 182.978C378.778 183.584 378.241 184.019 377.619 184.019H303.106C301.594 184.019 300.484 182.594 300.856 181.125C301.119 180.097 302.044 179.375 303.106 179.375V179.378Z" fill="#4683EC"/>
<path d="M357.921 166.544C358.631 163.925 358.07 161.494 356.667 161.114C355.265 160.733 353.552 162.548 352.842 165.166C352.132 167.785 352.694 170.216 354.096 170.596C355.499 170.977 357.211 169.162 357.921 166.544Z" fill="#020202"/>
<path d="M99.9314 366.5V351.955H102.126V358.276H109.377V351.955H111.579V366.5H109.377V360.158H102.126V366.5H99.9314ZM118.375 366.5V351.955H127.494V353.844H120.57V358.276H127.019V360.158H120.57V364.611H127.58V366.5H118.375ZM135.255 366.5H132.925L138.159 351.955H140.695L145.929 366.5H143.6L139.488 354.597H139.374L135.255 366.5ZM135.645 360.804H143.202V362.651H135.645V360.804ZM151.63 366.5V351.955H153.824V364.611H160.415V366.5H151.63ZM168.713 351.955V366.5H166.519V351.955H168.713ZM187.25 351.955V366.5H185.233L177.839 355.832H177.704V366.5H175.51V351.955H177.541L184.941 362.636H185.076V351.955H187.25ZM203.895 356.55C203.757 356.119 203.573 355.733 203.341 355.392C203.113 355.046 202.841 354.753 202.524 354.511C202.207 354.265 201.844 354.078 201.437 353.95C201.035 353.822 200.592 353.759 200.109 353.759C199.29 353.759 198.551 353.969 197.893 354.391C197.235 354.812 196.714 355.43 196.331 356.244C195.952 357.054 195.763 358.046 195.763 359.22C195.763 360.399 195.954 361.396 196.338 362.21C196.721 363.025 197.247 363.643 197.915 364.064C198.582 364.485 199.342 364.696 200.194 364.696C200.985 364.696 201.674 364.535 202.261 364.213C202.853 363.891 203.31 363.437 203.632 362.849C203.959 362.258 204.122 361.562 204.122 360.761L204.69 360.868H200.528V359.057H206.246V360.712C206.246 361.933 205.985 362.994 205.464 363.893C204.948 364.788 204.233 365.48 203.319 365.967C202.41 366.455 201.369 366.699 200.194 366.699C198.878 366.699 197.723 366.396 196.728 365.79C195.739 365.184 194.967 364.324 194.413 363.212C193.859 362.094 193.582 360.768 193.582 359.234C193.582 358.074 193.743 357.033 194.065 356.109C194.387 355.186 194.839 354.402 195.422 353.759C196.009 353.11 196.698 352.615 197.488 352.274C198.284 351.929 199.153 351.756 200.095 351.756C200.881 351.756 201.612 351.872 202.29 352.104C202.971 352.336 203.577 352.665 204.108 353.091C204.643 353.517 205.085 354.024 205.436 354.611C205.786 355.193 206.023 355.839 206.146 356.55H203.895Z" fill="black"/>
<path d="M129.098 316.5V301.955H134.283C135.414 301.955 136.352 302.161 137.095 302.572C137.839 302.984 138.395 303.548 138.764 304.263C139.134 304.973 139.318 305.773 139.318 306.663C139.318 307.558 139.131 308.363 138.757 309.078C138.388 309.788 137.829 310.352 137.081 310.768C136.338 311.18 135.402 311.386 134.276 311.386H130.71V309.526H134.077C134.792 309.526 135.372 309.402 135.817 309.156C136.262 308.905 136.589 308.564 136.797 308.134C137.005 307.703 137.109 307.213 137.109 306.663C137.109 306.114 137.005 305.626 136.797 305.2C136.589 304.774 136.259 304.44 135.81 304.199C135.365 303.957 134.777 303.837 134.048 303.837H131.293V316.5H129.098ZM153.424 305.776C153.348 305.103 153.036 304.582 152.487 304.213C151.937 303.839 151.246 303.652 150.413 303.652C149.816 303.652 149.3 303.747 148.865 303.936C148.429 304.121 148.09 304.376 147.849 304.703C147.612 305.025 147.494 305.392 147.494 305.804C147.494 306.15 147.574 306.448 147.735 306.699C147.901 306.95 148.116 307.161 148.382 307.331C148.651 307.497 148.94 307.636 149.248 307.75C149.556 307.859 149.852 307.949 150.136 308.02L151.556 308.389C152.02 308.503 152.496 308.657 152.984 308.851C153.472 309.045 153.924 309.301 154.34 309.618C154.757 309.935 155.093 310.328 155.349 310.797C155.609 311.266 155.74 311.827 155.74 312.48C155.74 313.304 155.526 314.036 155.1 314.675C154.679 315.314 154.066 315.818 153.261 316.188C152.461 316.557 151.492 316.741 150.356 316.741C149.267 316.741 148.325 316.569 147.529 316.223C146.734 315.877 146.111 315.387 145.661 314.753C145.212 314.114 144.963 313.356 144.916 312.48H147.117C147.16 313.006 147.33 313.444 147.629 313.794C147.932 314.14 148.318 314.398 148.786 314.568C149.26 314.734 149.778 314.817 150.342 314.817C150.962 314.817 151.514 314.72 151.997 314.526C152.484 314.327 152.868 314.052 153.147 313.702C153.427 313.347 153.566 312.932 153.566 312.459C153.566 312.028 153.443 311.675 153.197 311.401C152.955 311.126 152.626 310.899 152.21 310.719C151.798 310.539 151.331 310.38 150.811 310.243L149.092 309.774C147.927 309.457 147.004 308.991 146.322 308.375C145.645 307.759 145.306 306.945 145.306 305.932C145.306 305.094 145.534 304.362 145.988 303.737C146.443 303.112 147.058 302.627 147.835 302.281C148.611 301.931 149.487 301.756 150.463 301.756C151.447 301.756 152.316 301.929 153.069 302.274C153.827 302.62 154.423 303.096 154.859 303.702C155.294 304.303 155.522 304.994 155.541 305.776H153.424ZM160.84 301.955H163.333L167.133 308.567H167.289L171.088 301.955H173.581L168.304 310.79V316.5H166.117V310.79L160.84 301.955ZM190.592 306.685H188.376C188.291 306.211 188.133 305.795 187.9 305.435C187.668 305.075 187.384 304.769 187.048 304.518C186.712 304.268 186.336 304.078 185.919 303.95C185.507 303.822 185.069 303.759 184.605 303.759C183.767 303.759 183.017 303.969 182.354 304.391C181.695 304.812 181.175 305.43 180.791 306.244C180.412 307.059 180.223 308.053 180.223 309.227C180.223 310.411 180.412 311.41 180.791 312.224C181.175 313.039 181.698 313.654 182.361 314.071C183.024 314.488 183.769 314.696 184.598 314.696C185.057 314.696 185.493 314.634 185.905 314.511C186.321 314.384 186.698 314.196 187.034 313.95C187.37 313.704 187.654 313.403 187.886 313.048C188.123 312.688 188.286 312.277 188.376 311.812L190.592 311.82C190.474 312.535 190.244 313.193 189.903 313.794C189.567 314.391 189.134 314.907 188.604 315.342C188.078 315.773 187.477 316.107 186.8 316.344C186.123 316.58 185.384 316.699 184.584 316.699C183.324 316.699 182.202 316.401 181.217 315.804C180.232 315.203 179.456 314.343 178.888 313.226C178.324 312.108 178.043 310.776 178.043 309.227C178.043 307.674 178.327 306.341 178.895 305.229C179.463 304.111 180.24 303.254 181.224 302.658C182.209 302.056 183.329 301.756 184.584 301.756C185.356 301.756 186.075 301.867 186.743 302.089C187.415 302.307 188.019 302.629 188.554 303.055C189.089 303.477 189.532 303.993 189.882 304.604C190.232 305.21 190.469 305.903 190.592 306.685ZM196.818 316.5V301.955H199.013V308.276H206.264V301.955H208.466V316.5H206.264V310.158H199.013V316.5H196.818ZM227.897 309.227C227.897 310.78 227.613 312.116 227.045 313.233C226.477 314.346 225.698 315.203 224.708 315.804C223.723 316.401 222.603 316.699 221.349 316.699C220.089 316.699 218.965 316.401 217.975 315.804C216.99 315.203 216.214 314.343 215.646 313.226C215.077 312.108 214.793 310.776 214.793 309.227C214.793 307.674 215.077 306.341 215.646 305.229C216.214 304.111 216.99 303.254 217.975 302.658C218.965 302.056 220.089 301.756 221.349 301.756C222.603 301.756 223.723 302.056 224.708 302.658C225.698 303.254 226.477 304.111 227.045 305.229C227.613 306.341 227.897 307.674 227.897 309.227ZM225.724 309.227C225.724 308.044 225.532 307.047 225.148 306.237C224.77 305.423 224.249 304.807 223.586 304.391C222.928 303.969 222.182 303.759 221.349 303.759C220.511 303.759 219.763 303.969 219.104 304.391C218.446 304.807 217.925 305.423 217.542 306.237C217.163 307.047 216.974 308.044 216.974 309.227C216.974 310.411 217.163 311.41 217.542 312.224C217.925 313.034 218.446 313.65 219.104 314.071C219.763 314.488 220.511 314.696 221.349 314.696C222.182 314.696 222.928 314.488 223.586 314.071C224.249 313.65 224.77 313.034 225.148 312.224C225.532 311.41 225.724 310.411 225.724 309.227ZM234.233 316.5V301.955H236.428V314.611H243.019V316.5H234.233ZM261.191 309.227C261.191 310.78 260.907 312.116 260.338 313.233C259.77 314.346 258.991 315.203 258.002 315.804C257.017 316.401 255.897 316.699 254.642 316.699C253.383 316.699 252.258 316.401 251.269 315.804C250.284 315.203 249.508 314.343 248.939 313.226C248.371 312.108 248.087 310.776 248.087 309.227C248.087 307.674 248.371 306.341 248.939 305.229C249.508 304.111 250.284 303.254 251.269 302.658C252.258 302.056 253.383 301.756 254.642 301.756C255.897 301.756 257.017 302.056 258.002 302.658C258.991 303.254 259.77 304.111 260.338 305.229C260.907 306.341 261.191 307.674 261.191 309.227ZM259.017 309.227C259.017 308.044 258.826 307.047 258.442 306.237C258.063 305.423 257.543 304.807 256.88 304.391C256.222 303.969 255.476 303.759 254.642 303.759C253.804 303.759 253.056 303.969 252.398 304.391C251.74 304.807 251.219 305.423 250.836 306.237C250.457 307.047 250.267 308.044 250.267 309.227C250.267 310.411 250.457 311.41 250.836 312.224C251.219 313.034 251.74 313.65 252.398 314.071C253.056 314.488 253.804 314.696 254.642 314.696C255.476 314.696 256.222 314.488 256.88 314.071C257.543 313.65 258.063 313.034 258.442 312.224C258.826 311.41 259.017 310.411 259.017 309.227ZM277.371 306.55C277.233 306.119 277.049 305.733 276.817 305.392C276.589 305.046 276.317 304.753 276 304.511C275.683 304.265 275.32 304.078 274.913 303.95C274.511 303.822 274.068 303.759 273.585 303.759C272.766 303.759 272.027 303.969 271.369 304.391C270.711 304.812 270.19 305.43 269.807 306.244C269.428 307.054 269.239 308.046 269.239 309.22C269.239 310.399 269.43 311.396 269.814 312.21C270.197 313.025 270.723 313.643 271.391 314.064C272.058 314.485 272.818 314.696 273.67 314.696C274.461 314.696 275.15 314.535 275.737 314.213C276.329 313.891 276.786 313.437 277.108 312.849C277.435 312.258 277.598 311.562 277.598 310.761L278.166 310.868H274.004V309.057H279.722V310.712C279.722 311.933 279.461 312.994 278.94 313.893C278.424 314.788 277.709 315.48 276.795 315.967C275.886 316.455 274.845 316.699 273.67 316.699C272.354 316.699 271.199 316.396 270.204 315.79C269.215 315.184 268.443 314.324 267.889 313.212C267.335 312.094 267.058 310.768 267.058 309.234C267.058 308.074 267.219 307.033 267.541 306.109C267.863 305.186 268.315 304.402 268.898 303.759C269.485 303.11 270.174 302.615 270.964 302.274C271.76 301.929 272.629 301.756 273.571 301.756C274.357 301.756 275.088 301.872 275.766 302.104C276.447 302.336 277.053 302.665 277.584 303.091C278.119 303.517 278.561 304.024 278.912 304.611C279.262 305.193 279.499 305.839 279.622 306.55H277.371ZM284.497 301.955H286.99L290.79 308.567H290.946L294.746 301.955H297.238L291.961 310.79V316.5H289.774V310.79L284.497 301.955Z" fill="black"/>
<path d="M100.365 264.109C100.289 263.437 99.9764 262.916 99.4271 262.547C98.8779 262.173 98.1866 261.985 97.3533 261.985C96.7567 261.985 96.2406 262.08 95.805 262.27C95.3694 262.454 95.0308 262.71 94.7893 263.037C94.5526 263.359 94.4342 263.726 94.4342 264.137C94.4342 264.483 94.5147 264.781 94.6757 265.032C94.8414 265.283 95.0569 265.494 95.322 265.664C95.5919 265.83 95.8807 265.97 96.1885 266.083C96.4963 266.192 96.7922 266.282 97.0763 266.353L98.4967 266.723C98.9607 266.836 99.4366 266.99 99.9243 267.184C100.412 267.378 100.864 267.634 101.281 267.951C101.697 268.269 102.034 268.662 102.289 269.13C102.55 269.599 102.68 270.16 102.68 270.814C102.68 271.637 102.467 272.369 102.041 273.008C101.619 273.647 101.006 274.152 100.201 274.521C99.4011 274.89 98.4328 275.075 97.2964 275.075C96.2074 275.075 95.2652 274.902 94.4697 274.557C93.6743 274.211 93.0517 273.721 92.6018 273.086C92.152 272.447 91.9034 271.69 91.8561 270.814H94.0578C94.1004 271.339 94.2709 271.777 94.5692 272.128C94.8722 272.473 95.2581 272.731 95.7268 272.902C96.2003 273.067 96.7188 273.15 97.2822 273.15C97.9025 273.15 98.4541 273.053 98.9371 272.859C99.4248 272.66 99.8083 272.386 100.088 272.035C100.367 271.68 100.507 271.266 100.507 270.792C100.507 270.361 100.384 270.009 100.137 269.734C99.8959 269.459 99.5668 269.232 99.1501 269.052C98.7382 268.872 98.2718 268.714 97.751 268.576L96.0322 268.108C94.8675 267.79 93.9442 267.324 93.2624 266.708C92.5853 266.093 92.2467 265.279 92.2467 264.265C92.2467 263.427 92.474 262.696 92.9285 262.071C93.3831 261.446 93.9986 260.96 94.7751 260.615C95.5517 260.264 96.4276 260.089 97.403 260.089C98.3878 260.089 99.2567 260.262 100.01 260.608C100.767 260.953 101.364 261.429 101.799 262.035C102.235 262.637 102.462 263.328 102.481 264.109H100.365ZM108.902 274.833V260.288H118.022V262.177H111.097V266.609H117.546V268.491H111.097V272.944H118.107V274.833H108.902ZM136.293 260.288V274.833H134.276L126.883 264.166H126.748V274.833H124.553V260.288H126.585L133.985 270.97H134.12V260.288H136.293ZM151.028 264.109C150.952 263.437 150.64 262.916 150.09 262.547C149.541 262.173 148.85 261.985 148.017 261.985C147.42 261.985 146.904 262.08 146.468 262.27C146.033 262.454 145.694 262.71 145.453 263.037C145.216 263.359 145.098 263.726 145.098 264.137C145.098 264.483 145.178 264.781 145.339 265.032C145.505 265.283 145.72 265.494 145.985 265.664C146.255 265.83 146.544 265.97 146.852 266.083C147.16 266.192 147.455 266.282 147.74 266.353L149.16 266.723C149.624 266.836 150.1 266.99 150.588 267.184C151.075 267.378 151.527 267.634 151.944 267.951C152.361 268.269 152.697 268.662 152.953 269.13C153.213 269.599 153.343 270.16 153.343 270.814C153.343 271.637 153.13 272.369 152.704 273.008C152.283 273.647 151.669 274.152 150.865 274.521C150.064 274.89 149.096 275.075 147.96 275.075C146.871 275.075 145.928 274.902 145.133 274.557C144.338 274.211 143.715 273.721 143.265 273.086C142.815 272.447 142.567 271.69 142.519 270.814H144.721C144.764 271.339 144.934 271.777 145.232 272.128C145.535 272.473 145.921 272.731 146.39 272.902C146.864 273.067 147.382 273.15 147.946 273.15C148.566 273.15 149.117 273.053 149.6 272.859C150.088 272.66 150.472 272.386 150.751 272.035C151.03 271.68 151.17 271.266 151.17 270.792C151.17 270.361 151.047 270.009 150.801 269.734C150.559 269.459 150.23 269.232 149.813 269.052C149.401 268.872 148.935 268.714 148.414 268.576L146.696 268.108C145.531 267.79 144.607 267.324 143.926 266.708C143.249 266.093 142.91 265.279 142.91 264.265C142.91 263.427 143.137 262.696 143.592 262.071C144.046 261.446 144.662 260.96 145.438 260.615C146.215 260.264 147.091 260.089 148.066 260.089C149.051 260.089 149.92 260.262 150.673 260.608C151.43 260.953 152.027 261.429 152.463 262.035C152.898 262.637 153.125 263.328 153.144 264.109H151.028ZM159.566 274.833V260.288H168.685V262.177H161.76V266.609H168.209V268.491H161.76V272.944H168.77V274.833H159.566ZM196.744 267.561C196.744 269.114 196.46 270.449 195.892 271.566C195.324 272.679 194.545 273.536 193.556 274.137C192.571 274.734 191.451 275.032 190.196 275.032C188.937 275.032 187.812 274.734 186.823 274.137C185.838 273.536 185.061 272.677 184.493 271.559C183.925 270.442 183.641 269.109 183.641 267.561C183.641 266.008 183.925 264.675 184.493 263.562C185.061 262.445 185.838 261.588 186.823 260.991C187.812 260.39 188.937 260.089 190.196 260.089C191.451 260.089 192.571 260.39 193.556 260.991C194.545 261.588 195.324 262.445 195.892 263.562C196.46 264.675 196.744 266.008 196.744 267.561ZM194.571 267.561C194.571 266.377 194.379 265.38 193.996 264.571C193.617 263.756 193.096 263.141 192.433 262.724C191.775 262.303 191.029 262.092 190.196 262.092C189.358 262.092 188.61 262.303 187.952 262.724C187.294 263.141 186.773 263.756 186.389 264.571C186.011 265.38 185.821 266.377 185.821 267.561C185.821 268.744 186.011 269.744 186.389 270.558C186.773 271.368 187.294 271.983 187.952 272.405C188.61 272.821 189.358 273.03 190.196 273.03C191.029 273.03 191.775 272.821 192.433 272.405C193.096 271.983 193.617 271.368 193.996 270.558C194.379 269.744 194.571 268.744 194.571 267.561ZM212.434 260.288H214.636V269.855C214.636 270.873 214.397 271.775 213.919 272.561C213.44 273.342 212.768 273.958 211.902 274.407C211.035 274.852 210.02 275.075 208.855 275.075C207.695 275.075 206.681 274.852 205.815 274.407C204.948 273.958 204.276 273.342 203.798 272.561C203.32 271.775 203.081 270.873 203.081 269.855V260.288H205.275V269.677C205.275 270.335 205.42 270.92 205.708 271.432C206.002 271.943 206.416 272.345 206.951 272.639C207.486 272.928 208.121 273.072 208.855 273.072C209.593 273.072 210.23 272.928 210.765 272.639C211.305 272.345 211.717 271.943 212.001 271.432C212.29 270.92 212.434 270.335 212.434 269.677V260.288ZM220.709 262.177V260.288H231.966V262.177H227.428V274.833H225.241V262.177H220.709ZM246.947 274.833V260.288H252.132C253.263 260.288 254.201 260.494 254.944 260.906C255.688 261.318 256.244 261.881 256.613 262.596C256.983 263.307 257.167 264.107 257.167 264.997C257.167 265.892 256.98 266.697 256.606 267.412C256.237 268.122 255.678 268.685 254.93 269.102C254.187 269.514 253.251 269.72 252.125 269.72H248.559V267.859H251.926C252.641 267.859 253.221 267.736 253.666 267.49C254.111 267.239 254.438 266.898 254.646 266.467C254.854 266.036 254.958 265.546 254.958 264.997C254.958 264.448 254.854 263.96 254.646 263.534C254.438 263.108 254.108 262.774 253.659 262.532C253.214 262.291 252.626 262.17 251.897 262.17H249.142V274.833H246.947ZM263.34 274.833V260.288H268.525C269.652 260.288 270.587 260.482 271.33 260.87C272.078 261.259 272.637 261.796 273.006 262.483C273.375 263.164 273.56 263.953 273.56 264.848C273.56 265.738 273.373 266.521 272.999 267.199C272.63 267.871 272.071 268.394 271.323 268.768C270.58 269.142 269.644 269.329 268.518 269.329H264.59V267.44H268.319C269.029 267.44 269.607 267.338 270.052 267.135C270.501 266.931 270.831 266.635 271.039 266.247C271.247 265.859 271.351 265.392 271.351 264.848C271.351 264.298 271.245 263.823 271.032 263.42C270.823 263.018 270.494 262.71 270.045 262.497C269.599 262.279 269.015 262.17 268.29 262.17H265.535V274.833H263.34ZM270.52 268.271L274.114 274.833H271.614L268.091 268.271H270.52ZM292.466 267.561C292.466 269.114 292.181 270.449 291.613 271.566C291.045 272.679 290.266 273.536 289.277 274.137C288.292 274.734 287.172 275.032 285.917 275.032C284.658 275.032 283.533 274.734 282.544 274.137C281.559 273.536 280.782 272.677 280.214 271.559C279.646 270.442 279.362 269.109 279.362 267.561C279.362 266.008 279.646 264.675 280.214 263.562C280.782 262.445 281.559 261.588 282.544 260.991C283.533 260.39 284.658 260.089 285.917 260.089C287.172 260.089 288.292 260.39 289.277 260.991C290.266 261.588 291.045 262.445 291.613 263.562C292.181 264.675 292.466 266.008 292.466 267.561ZM290.292 267.561C290.292 266.377 290.1 265.38 289.717 264.571C289.338 263.756 288.817 263.141 288.154 262.724C287.496 262.303 286.751 262.092 285.917 262.092C285.079 262.092 284.331 262.303 283.673 262.724C283.015 263.141 282.494 263.756 282.11 264.571C281.732 265.38 281.542 266.377 281.542 267.561C281.542 268.744 281.732 269.744 282.11 270.558C282.494 271.368 283.015 271.983 283.673 272.405C284.331 272.821 285.079 273.03 285.917 273.03C286.751 273.03 287.496 272.821 288.154 272.405C288.817 271.983 289.338 271.368 289.717 270.558C290.1 269.744 290.292 268.744 290.292 267.561Z" fill="black"/>
</svg>
