<svg xmlns="http://www.w3.org/2000/svg" viewBox="0 0 500 500"><g id="freepik--Floor--inject-269"><path id="freepik--floor--inject-269" d="M84.27,440.3c-91.54-52.85-91.54-138.53,0-191.37s239.94-52.85,331.48,0,91.53,138.52,0,191.37S175.8,493.15,84.27,440.3Z" style="fill:#f5f5f5"></path></g><g id="freepik--Clouds--inject-269"><g id="freepik--clouds--inject-269"><path d="M394,86.48l6.81,3.94c0-.31-.05-.61-.05-.91v-2c0-3.52,2.46-4.94,5.51-3.18a10.68,10.68,0,0,1,3.28,3.16c.5-4.42,4-6.07,8.18-3.64,4.55,2.63,8.24,9,8.24,14.28v3a7.74,7.74,0,0,1-.7,3.42l5.66,3.27A6.74,6.74,0,0,1,434,113.1c0,2-1.37,2.74-3.06,1.77L394,93.54a6.75,6.75,0,0,1-3.06-5.29C390.94,86.3,392.31,85.51,394,86.48Z" style="fill:#e6e6e6"></path><path d="M429.77,60.61l3.76,1.45V53.78c0-6.57,5.23-8.15,10.92-4.86h0c5.69,3.28,10.3,11.27,10.3,17.83V68a5.55,5.55,0,0,1,4.78.74h0a16.38,16.38,0,0,1,7.41,12.84v.54l5.24,3a10.79,10.79,0,0,1,4.88,8.45c0,3.11-2.19,4.37-4.88,2.82L429.77,71.88a10.78,10.78,0,0,1-4.88-8.45C424.89,60.32,427.07,59.06,429.77,60.61Z" style="fill:#e6e6e6"></path></g></g><g id="freepik--Sun--inject-269"><circle id="freepik--sun--inject-269" cx="368.42" cy="46.39" r="15.52" transform="translate(30.63 200.62) rotate(-31.72)" style="fill:#f28f8f"></circle></g><g id="freepik--Shadows--inject-269"><ellipse id="freepik--Shadow--inject-269" cx="122.82" cy="392.96" rx="19.54" ry="11.28" style="fill:#e0e0e0"></ellipse><polygon id="freepik--shadow--inject-269" points="320.87 447.57 91.57 315.19 162.44 274.27 391.74 406.66 320.87 447.57" style="fill:#e0e0e0"></polygon></g><g id="freepik--Plants--inject-269"><g id="freepik--plants--inject-269"><g id="freepik--plants--inject-269"><path d="M393.16,381.21a26.83,26.83,0,0,1-2.69,0c-3.32-.26-7.05-2.18-10.37-4-2.2-1.22-5.14-2.88-6.22-5.25a3.3,3.3,0,0,1,.4-3.62c1-1,2.78-1.09,3.39-2.34-2.22-1.79-5.46-2.25-7.19-4.51a10,10,0,0,1-1.8-5.91,5.34,5.34,0,0,1,1.24-3.81c1.09-1,2.83-.73,4.29-.41a3,3,0,0,0,1.18.08,1,1,0,0,0,.82-.76c.07-.48-.33-.89-.71-1.2-.82-.64-1.72-1.18-2.5-1.87a4.68,4.68,0,0,1-1.62-2.59,6.07,6.07,0,0,1,.85-3.56,54,54,0,0,1,3-5.54,40.17,40.17,0,0,0,2.37-4.9,38,38,0,0,1,14.66,5.87c2.46,1.57,5.88,4.27,6,7.5a5.46,5.46,0,0,1-.64,2.62,11.86,11.86,0,0,1-.69,1c-.14.22-.73,1.05,0,.84a1.29,1.29,0,0,0,.42-.28l3.28-3.05a2.58,2.58,0,0,1,1.12-.71c.93-.18,2.82.94,4.31,3.44a8.68,8.68,0,0,1,.9,5.63c-.43,3.05-2,5.8-3.56,8.47l2.79-1.86c3.25-2.18,2.54,3.75,2.18,5a27.43,27.43,0,0,1-5.71,10.08C400,378.26,396.94,380.45,393.16,381.21Z" style="fill:#0ABAB5"></path><path d="M393.16,381.21a26.83,26.83,0,0,1-2.69,0c-3.32-.26-7.05-2.18-10.37-4-2.2-1.22-5.14-2.88-6.22-5.25a3.3,3.3,0,0,1,.4-3.62c1-1,2.78-1.09,3.39-2.34-2.22-1.79-5.46-2.25-7.19-4.51a10,10,0,0,1-1.8-5.91,5.34,5.34,0,0,1,1.24-3.81c1.09-1,2.83-.73,4.29-.41a3,3,0,0,0,1.18.08,1,1,0,0,0,.82-.76c.07-.48-.33-.89-.71-1.2-.82-.64-1.72-1.18-2.5-1.87a4.68,4.68,0,0,1-1.62-2.59,6.07,6.07,0,0,1,.85-3.56,54,54,0,0,1,3-5.54,40.17,40.17,0,0,0,2.37-4.9,38,38,0,0,1,14.66,5.87c2.46,1.57,5.88,4.27,6,7.5a5.46,5.46,0,0,1-.64,2.62,11.86,11.86,0,0,1-.69,1c-.14.22-.73,1.05,0,.84a1.29,1.29,0,0,0,.42-.28l3.28-3.05a2.58,2.58,0,0,1,1.12-.71c.93-.18,2.82.94,4.31,3.44a8.68,8.68,0,0,1,.9,5.63c-.43,3.05-2,5.8-3.56,8.47l2.79-1.86c3.25-2.18,2.54,3.75,2.18,5a27.43,27.43,0,0,1-5.71,10.08C400,378.26,396.94,380.45,393.16,381.21Z" style="fill:#fff;opacity:0.5"></path><path d="M392.73,362.64a35.16,35.16,0,0,1,8.78-12.4l.09-.08a.39.39,0,1,0-.55-.56l-.08.08a36.57,36.57,0,0,0-8.48,11.55c-2.15-12-7.18-22.11-10.76-26.24a.42.42,0,1,0-.63.55c3.53,4.07,8.49,14,10.6,25.87A24,24,0,0,0,377.45,355a.39.39,0,0,0-.41.38.4.4,0,0,0,.2.35.37.37,0,0,0,.18.05,23.21,23.21,0,0,1,14.5,7c.9,5.6,1.11,13.4.18,17.65a.42.42,0,0,0,.15.42.53.53,0,0,0,.17.08.42.42,0,0,0,.5-.32C393.87,376.24,393.64,368.34,392.73,362.64Z" style="fill:#fff"></path></g><g id="freepik--plants--inject-269"><path d="M386.55,403.45c.25.2,2.37,1.18,2.67,1.3,3.43,1.34,8.29,1.07,12.7.68,2.92-.25,6.84-.62,9.36-2.68a4.48,4.48,0,0,0,1.82-4.13c-.37-1.55-2.08-2.53-1.91-4.19,3.28-.87,6.76.21,9.86-1.4a14.11,14.11,0,0,0,5.39-5.55c.81-1.36,1.5-3.36,1.12-4.75-.46-1.65-2.35-2.17-4-2.54a2.77,2.77,0,0,1-1.21-.49,1.09,1.09,0,0,1-.35-1.23,2,2,0,0,1,1.43-1c1.2-.3,2.42-.45,3.61-.82a6.35,6.35,0,0,0,3.2-2,8.11,8.11,0,0,0,1.33-4.27,63.25,63.25,0,0,0,.42-7.51c0-.59.47-6.55.67-6.49-5.6-1.74-12-1.65-18.08-.77-3.38.5-8.41,1.77-10.51,5.22a7.56,7.56,0,0,0-1,3.17,12,12,0,0,0,0,1.47c0,.31.07,1.5-.52.92a1.05,1.05,0,0,1-.24-.51c-.46-1.64-.93-3.28-1.39-4.92a2.42,2.42,0,0,0-.67-1.32c-.8-.66-3.35-.36-6.35,1.63a12.34,12.34,0,0,0-4.33,5.68c-1.45,3.53-1.58,7.3-1.68,10.95l-1.62-3.38c-1.88-4-4.8,2.84-5.19,4.33-1,3.91-1.42,10.06-.53,13.75C381.66,396.92,383.29,400.77,386.55,403.45Z" style="fill:#0ABAB5"></path><path d="M386.55,403.45c.25.2,2.37,1.18,2.67,1.3,3.43,1.34,8.29,1.07,12.7.68,2.92-.25,6.84-.62,9.36-2.68a4.48,4.48,0,0,0,1.82-4.13c-.37-1.55-2.08-2.53-1.91-4.19,3.28-.87,6.76.21,9.86-1.4a14.11,14.11,0,0,0,5.39-5.55c.81-1.36,1.5-3.36,1.12-4.75-.46-1.65-2.35-2.17-4-2.54a2.77,2.77,0,0,1-1.21-.49,1.09,1.09,0,0,1-.35-1.23,2,2,0,0,1,1.43-1c1.2-.3,2.42-.45,3.61-.82a6.35,6.35,0,0,0,3.2-2,8.11,8.11,0,0,0,1.33-4.27,63.25,63.25,0,0,0,.42-7.51c0-.59.47-6.55.67-6.49-5.6-1.74-12-1.65-18.08-.77-3.38.5-8.41,1.77-10.51,5.22a7.56,7.56,0,0,0-1,3.17,12,12,0,0,0,0,1.47c0,.31.07,1.5-.52.92a1.05,1.05,0,0,1-.24-.51c-.46-1.64-.93-3.28-1.39-4.92a2.42,2.42,0,0,0-.67-1.32c-.8-.66-3.35-.36-6.35,1.63a12.34,12.34,0,0,0-4.33,5.68c-1.45,3.53-1.58,7.3-1.68,10.95l-1.62-3.38c-1.88-4-4.8,2.84-5.19,4.33-1,3.91-1.42,10.06-.53,13.75C381.66,396.92,383.29,400.77,386.55,403.45Z" style="fill:#fff;opacity:0.30000000000000004"></path><path d="M396.88,386.07a41,41,0,0,0-1.08-17.77l0-.14a.53.53,0,0,1,.34-.6.4.4,0,0,1,.55.26l0,.13a42.26,42.26,0,0,1,1.3,16.71c9.46-12,22.1-23.16,28.16-25.9a.43.43,0,0,1,.61.24.57.57,0,0,1-.32.66c-6,2.7-18.46,13.74-27.78,25.58a26.42,26.42,0,0,1,18-.07.43.43,0,0,1,.17.61.51.51,0,0,1-.41.29.39.39,0,0,1-.21,0c-.08,0-8.21-3.6-18.6.52-4.31,5.65-7.83,11.42-9.51,16.5a.62.62,0,0,1-.41.38.38.38,0,0,1-.21,0,.44.44,0,0,1-.3-.59C388.9,397.69,392.49,391.82,396.88,386.07Z" style="fill:#fff"></path></g></g></g><g id="freepik--Sign--inject-269"><g id="freepik--Placard--inject-269"><g id="freepik--placard--inject-269"><path d="M133.84,383.45c-6.08-3.51-16-3.51-22,0-3,1.75-4.56,4.06-4.55,6.36v2.38c0,2.3,1.51,4.61,4.55,6.36,6.08,3.51,16,3.51,22,0,3-1.75,4.55-4.06,4.55-6.36v-2.38C138.4,387.51,136.88,385.21,133.84,383.45Z" style="fill:#0ABAB5"></path><ellipse cx="122.82" cy="389.81" rx="15.58" ry="9" style="fill:#0ABAB5"></ellipse><ellipse cx="122.82" cy="389.81" rx="15.58" ry="9" style="fill:#fff;opacity:0.30000000000000004"></ellipse><path d="M121.11,302.5h3.43v87.88h0a.85.85,0,0,1-.5.7,2.67,2.67,0,0,1-2.43,0,.85.85,0,0,1-.5-.7h0Z" style="fill:#0ABAB5"></path><path d="M121.11,322.23l3.43,2V307.7l-3.43.16Z" style="opacity:0.15"></path><polygon points="94.48 304.18 94.48 260.86 96.7 259.57 145.54 287.77 145.54 331.09 143.31 332.38 94.48 304.18" style="fill:#0ABAB5"></polygon><polygon points="145.54 287.77 143.31 289.05 94.48 260.86 96.7 259.57 145.54 287.77" style="fill:#fff;opacity:0.5"></polygon><polygon points="143.31 332.38 94.48 304.18 94.48 260.86 143.31 289.05 143.31 332.38" style="fill:#0ABAB5"></polygon><polygon points="143.31 332.38 94.48 304.18 94.48 260.86 143.31 289.05 143.31 332.38" style="fill:#fff;opacity:0.30000000000000004"></polygon><polygon points="141.27 291 97.46 265.62 97.49 302.76 141.27 328.04 141.27 291" style="fill:#0ABAB5"></polygon><polygon points="141.27 291 141.27 325.98 99.28 301.74 99.28 266.67 141.27 291" style="fill:#fafafa"></polygon><polygon points="99.28 301.74 97.49 302.76 97.46 265.62 99.28 266.67 99.28 301.74" style="opacity:0.25"></polygon></g><path d="M113.1,282.63a.93.93,0,0,1,.34.42,1.34,1.34,0,0,1,.15.61v11a10.54,10.54,0,0,1-.4,3.13,3.59,3.59,0,0,1-1.12,1.81,2.39,2.39,0,0,1-1.72.5,5,5,0,0,1-2.21-.76,9.39,9.39,0,0,1-2.22-1.79,11.12,11.12,0,0,1-1.72-2.49,14.36,14.36,0,0,1-1.11-3.1,15.87,15.87,0,0,1-.39-3.59v-11a.61.61,0,0,1,.14-.44.26.26,0,0,1,.34,0l2.35,1.35a1,1,0,0,1,.34.42,1.46,1.46,0,0,1,.14.6v10.89a7.39,7.39,0,0,0,.53,2.9,3.77,3.77,0,0,0,1.6,1.86c.72.42,1.25.41,1.61,0a3.69,3.69,0,0,0,.52-2.29V281.74a.59.59,0,0,1,.15-.44.26.26,0,0,1,.34,0Z" style="fill:#37474f"></path><path d="M121.57,287.52a9.47,9.47,0,0,1,3.62,3.7,10.78,10.78,0,0,1,1,2.6,12.26,12.26,0,0,1,.35,3,8.11,8.11,0,0,1-.35,2.64,2.66,2.66,0,0,1-1,1.43,2.24,2.24,0,0,1-1.56.32,5.78,5.78,0,0,1-2.06-.78l-2.29-1.32v5.62a.61.61,0,0,1-.14.44.26.26,0,0,1-.34,0l-2.35-1.36a.9.9,0,0,1-.34-.41,1.54,1.54,0,0,1-.14-.61V285a.61.61,0,0,1,.14-.44.26.26,0,0,1,.34,0Zm-2.29,7.31,2.2,1.27a1.37,1.37,0,0,0,1.25.21c.32-.15.49-.61.49-1.39a3.71,3.71,0,0,0-.49-1.95,3.58,3.58,0,0,0-1.25-1.23l-2.2-1.27Z" style="fill:#37474f"></path><polygon points="133.26 293.98 128.59 299.45 131.22 300.97 131.22 314.02 135.29 316.36 135.29 303.32 137.92 304.83 133.26 293.98" style="fill:#0ABAB5"></polygon></g></g><g id="freepik--Stairs--inject-269"><g id="freepik--Strairs--inject-269"><polygon points="108.24 141.89 99.9 137.07 99.9 223.72 170.78 264.64 170.78 298.34 241.65 339.26 241.66 372.96 312.53 413.88 312.53 437.95 320.86 442.76 320.87 409.06 249.99 368.14 249.99 334.45 179.12 293.53 179.12 259.83 108.24 218.91 108.24 141.89" style="fill:#0ABAB5"></polygon><polygon points="108.24 141.89 99.9 137.07 99.9 223.72 170.78 264.64 170.78 298.34 241.65 339.26 241.66 372.96 312.53 413.88 312.53 437.95 320.86 442.76 320.87 409.06 249.99 368.14 249.99 334.45 179.12 293.53 179.12 259.83 108.24 218.91 108.24 141.89" style="opacity:0.25"></polygon><path d="M185.51,91.75,143.29,57.64a4.7,4.7,0,0,0-.67-.46l-8.32-4.81a4,4,0,0,0-5.67,1.8L83.09,143.55c-.7,1.37-.74,2.27-.24,2.57s7.84,4.51,8.34,4.81,1.23.09,2.35-.56l91.51-52.83C187.51,96.12,187.71,93.53,185.51,91.75Z" style="fill:#0ABAB5"></path><path d="M185.05,97.54,93.54,150.37c-2.45,1.42-3.4.52-2.11-2L137,59a4,4,0,0,1,6.32-1.34l42.22,34.11C187.71,93.53,187.51,96.12,185.05,97.54Z" style="fill:#0ABAB5"></path><path d="M134.29,52.37c.22.12,6.52,3.78,8.08,4.67A3.94,3.94,0,0,0,137,59L91.42,148.36c-.68,1.35-.74,2.24-.25,2.56-.72-.43-7.91-4.55-8.32-4.8s-.46-1.19.24-2.57l45.54-89.38A4,4,0,0,1,134.29,52.37Z" style="fill:#fff;opacity:0.30000000000000004"></path><polygon points="108.24 137.07 108.24 218.91 174.95 180.4 174.95 98.56 108.24 137.07" style="fill:#0ABAB5"></polygon><polygon points="108.24 218.91 179.12 259.83 245.82 221.32 174.95 180.4 108.24 218.91" style="fill:#0ABAB5"></polygon><polygon points="108.24 218.91 179.12 259.83 245.82 221.32 174.95 180.4 108.24 218.91" style="fill:#fff;opacity:0.30000000000000004"></polygon><polygon points="245.82 221.32 245.82 255.01 179.12 293.53 179.12 259.83 245.82 221.32" style="fill:#0ABAB5"></polygon><polygon points="179.12 293.53 249.99 334.45 316.69 295.93 245.82 255.02 179.12 293.53" style="fill:#0ABAB5"></polygon><polygon points="179.12 293.53 249.99 334.45 316.69 295.93 245.82 255.02 179.12 293.53" style="fill:#fff;opacity:0.30000000000000004"></polygon><polygon points="316.69 295.93 316.69 329.63 249.99 368.14 249.99 334.45 316.69 295.93" style="fill:#0ABAB5"></polygon><polygon points="249.99 368.14 320.87 409.06 387.57 370.55 316.69 329.63 249.99 368.14" style="fill:#0ABAB5"></polygon><polygon points="249.99 368.14 320.87 409.06 387.57 370.55 316.69 329.63 249.99 368.14" style="fill:#fff;opacity:0.30000000000000004"></polygon><polygon points="387.57 370.55 387.57 404.25 320.86 442.76 320.87 409.06 387.57 370.55" style="fill:#0ABAB5"></polygon></g></g><g id="freepik--Character--inject-269"><path id="freepik--shadow--inject-269" d="M284.34,293.53c-8.09-.34-19.49,0-24.75,2.4-3.89,1.76-5.69,3.6-3.68,7.24,1.11,2,3.18,3,4.62,4.6a2.34,2.34,0,0,1-.35,3.73c-1.9,1.46-3.85,2.84-5.7,4.36-6.34,5.22,1.3,5,3.14,5a74.28,74.28,0,0,0,18.79-3C280.62,316.56,282,316,282,316v33.69s5.09,3.35,11.37,6.75C308,364.38,313.71,368,320.51,369c6.64,1,12.22-1.28,12.32-8.12.14-10.17-3.63-14.44-6.45-17-3.26-2.92-12.91-12.46-12.91-12.46V297.8S303.58,294.33,284.34,293.53Z" style="opacity:0.25"></path><g id="freepik--character--inject-269"><path d="M230,63.11c2.18-1,3.33,4.19,4.69,8,1.25,3.51,3.22,8,4,8.21,1.12.3.47-4.16,1.9-6s2.38-1.08,2.26,1c-.1,1.66.4,6.58-.45,10.16a6.09,6.09,0,0,0,.46,5.19c5.67,9.83,16.19,23.17,16.19,23.17s12.56,5.06,20.23,7.22c5.71,1.6,11.64,3.52,16.27,5.36.46,1.75-1.92,18.48-9.62,16.3-1.38-4.81-18.9-9.08-29.64-13.36-6.52-2.6-8.13-3.44-9.74-6.17-4.66-7.92-5.07-9.35-8.45-16.2-3.84-7.77-4.92-9.32-5.56-10-2-2.18-3.94-3.57-5.19-5.32a23.53,23.53,0,0,1-3.84-7.24,2.67,2.67,0,0,1,.18-2.2c.22-.32.56-.54.79-.85a13.86,13.86,0,0,1,1-1.68c.59-.58,1.8-.5,2.35-1.12.24-.27.54-1.36.87-1.53a6,6,0,0,1,1.67-.45c.33-.09,1.3-.06,1.3-.53a51,51,0,0,0-1.29-5.56C229.66,66.62,228.77,63.67,230,63.11Z" style="fill:#b16668"></path><path d="M295.53,125c-1.06-.4-2.74-1.34-4.85-2s-19-5.9-23.82-7.62-7.62-2.84-7.62-2.84l-7-8.81s-.9,2.17-4.48,4a20.42,20.42,0,0,1-7.81,2s1.69,3.74,4.11,9c2.09,4.58,2.29,5.74,5.92,7.33,4.17,1.84,15.18,5.88,20.23,7.8,6.17,2.34,13.43,5.15,14.53,7.41C284.75,141.34,295,131.86,295.53,125Z" style="fill:#0ABAB5"></path><path d="M295.53,125c-1.06-.4-2.74-1.34-4.85-2s-19-5.9-23.82-7.62-7.62-2.84-7.62-2.84l-7-8.81s-.9,2.17-4.48,4a20.42,20.42,0,0,1-7.81,2s1.69,3.74,4.11,9c2.09,4.58,2.29,5.74,5.92,7.33,4.17,1.84,15.18,5.88,20.23,7.8,6.17,2.34,13.43,5.15,14.53,7.41C284.75,141.34,295,131.86,295.53,125Z" style="fill:#fff;opacity:0.6000000000000001"></path><path d="M252.42,104a9.74,9.74,0,0,1-5.5,5,19.2,19.2,0,0,1-6.54,1.67l-2.9-6a24.15,24.15,0,0,0,7.2-2.62A9.35,9.35,0,0,0,248.19,98Z" style="fill:#0ABAB5"></path><path d="M252.42,104a9.74,9.74,0,0,1-5.5,5,19.2,19.2,0,0,1-6.54,1.67l-2.9-6a24.15,24.15,0,0,0,7.2-2.62A9.35,9.35,0,0,0,248.19,98Z" style="fill:#fff;opacity:0.85"></path><path d="M236.76,77.39c.52,2.36,1.72,4.8.83,5.88a1.9,1.9,0,0,1-2.9-.1,1.89,1.89,0,0,1-.82,1.7,1.77,1.77,0,0,1-1.83,0,1.82,1.82,0,0,1-2.35,1.21c.52.56,1.89,1.26,2.56-.1,0,0,2.09.52,2.69-1.17,0,0-.77,1.87,1.07,4.34a6.77,6.77,0,0,1,0-4.45,2.78,2.78,0,0,0,2.51-1.31C239.27,81.93,236.76,77.39,236.76,77.39Z" style="fill:#9a4a4d"></path><path d="M331.84,89.15a4.78,4.78,0,0,1-.34,1c-.29.66-.93,1.18-1.11,1.88-.4,1.58,1.57,3.4,2.16,4.72,1.06,2.41-1.13,4.45-2.71,5.94a2.92,2.92,0,0,0-.89,2.86,1.3,1.3,0,0,0,1.8.76,1.42,1.42,0,0,1-1.25.69,2.48,2.48,0,0,1-2.64-1.87c-.08.57.2,1.16.17,1.76a2.08,2.08,0,0,1-1.44,2c-.74.27-1.55.36-2.29.67-.91.37-1.17.95-1.73,1.71-1.1,1.49-2.55,1.84-4.35,1.8a6.35,6.35,0,0,1-4.72-2.65c-.46-.56-1-1.08-1.39-1.68-1.38-1.93-3.23-3.45-4.68-5.36a54.17,54.17,0,0,1-4-6.27,77.11,77.11,0,0,1-3.9-8.52,4.54,4.54,0,0,0-.8-1.6,4.11,4.11,0,0,0-1.39-.9c-1.92-.78-4.15-1.09-5.2-3.12a3.3,3.3,0,0,1,1.16-4.58c.61-.31,1.28-1.12.64-1.75-.46-.46-1.17-.5-1.55-1.06-.62-1,.27-2.86,1.51-2.67-1,.44-.4,1.45.5,1.57a1.93,1.93,0,0,0,1.91-.9,2,2,0,0,1,1.18-.77c.55-.11,1,.22,1.55.27,1.43.12,2.11-2.36,3.07-3.11a6.17,6.17,0,0,1,6.45-.7,7.38,7.38,0,0,1,2.3,2.22c.4.5,1.06,1.38,1.68,1.56a4,4,0,0,0,2.52-.29,6.82,6.82,0,0,1,4.9-.56,5.54,5.54,0,0,1,3.56,2,6.54,6.54,0,0,1,.77,3.22A2.55,2.55,0,0,0,325.5,80a2.14,2.14,0,0,0,2-.65,1.11,1.11,0,0,0,.12-1.33,2.2,2.2,0,0,1,1.28,2.63,3,3,0,0,1-2.64,2,7.41,7.41,0,0,1,4.31,1.8A5,5,0,0,1,332,87.56,6.34,6.34,0,0,1,331.84,89.15Z" style="fill:#263238"></path><path d="M325.42,323.27c.27,2.08.86,4.51,1.24,8.77s-.55,4.38,1.65,15.11c1.33,6.45.89,9-3.28,14.11-4.46,5.51-8.74,4.12-11.24-2.4-2.13-5.57-1.85-8.09-1.56-13.72s.32-7.28.3-11.76c0-3.95.45-6.62.36-9.65Z" style="fill:#37474f"></path><path d="M325.43,323.9c.08,3.71,0,9.37.46,14.87.36,4.12,1.4,8.19,1.3,11.11a1.52,1.52,0,0,1-2.1,1.34,13.8,13.8,0,0,0-9.52.11A1.52,1.52,0,0,1,313.5,350c-.73-8-.61-26-.61-26-1.4-13.34-4.87-36.09-5.31-41-.66-7.22-2.18-16.34-2.69-22S301,216,301,216l26-36.45s.29,5.59,4.2,14.05c5.27,11.41,3.8,20.52,2.18,30.87-1.35,8.63-5.07,47.41-5.07,47.41s-.18,8,.21,17.26C329,301.61,325.23,315.6,325.43,323.9Z" style="fill:#b16668"></path><path d="M327,179.53c-15.86,3.5-30.83,4.36-40.19.87-.3,4.81-8,13.73-17.58,28C258.26,224.61,252,234.5,252,234.5c-4,7.34-5.46,9.2-1.61,18.11,4.16,9.63,16.67,28.21,17.79,34.91.28,1.7-.54,6-1.51,9.2s-2.66,7.45-4.26,9.55c0,0-4.63,5.52-3.51,6s11.48,1,16-.65,4.81-5.58,6-12.8,2-18.09,2-18.09a4.6,4.6,0,0,1-1.87-1.65c-1-1.3-2.19-3-2.93-7.22s-2.11-13.19-3.67-18.34a33.73,33.73,0,0,0-3.55-8.13L301.6,218Z" style="fill:#b16668"></path><path d="M288,291.5c-.21,1.68-1.54,3.65-2,6.28a46.09,46.09,0,0,0-.85,9.1v4.26H284v-7.76c0-2.37-.23-4.1-1.36-4.35C282.6,299,282.41,291.5,288,291.5Z" style="fill:#263238"></path><path d="M282.6,280.14c.85,1.93,3.51,4.56,4.69,6.38a7.12,7.12,0,0,1,1.06,3.18,3.42,3.42,0,0,1-.88,2.59,37.32,37.32,0,0,0-3.37,4.16c-1.3,2-3.7,6.53-4.26,9.68s-.84,5.93-3.43,7.62c-2,1.33-10.49,3.48-14.81,4-5.9.71-7.58-2.06-5.5-4.45s5.64-6.49,6.29-7a10.86,10.86,0,0,1,5.54.47c3.39,1.24,4.55,3.11,7.94,1.18,3.06-1.74,4-7.64,3.27-16C278.31,282.42,282.6,280.14,282.6,280.14Z" style="fill:#37474f"></path><path d="M327.43,178.32c2.23,5.35,4.34,8.29,7.16,15.82,2.54,6.78,1.73,16.85-1.22,34.4s-4.22,43.32-4.22,43.32A255.16,255.16,0,0,1,328,300.75s-3.25,2.4-9.37,2.4-8.64-1.83-8.64-1.83-2.88-19.3-3.78-26.63c-1.18-9.63-1.69-15.06-2.79-26.9-1.41-15.1-2.81-26.94-2.81-26.94l-28.79,24.83A35.17,35.17,0,0,1,275,255c1,5.4,1.54,8.11,1.54,8.11s-4.44,4.68-9.05,6a14,14,0,0,1-8.23,0s-8.82-14.45-11.13-20-.48-8,1.85-12.6,25.46-38.28,29.88-44.56,5.6-8.76,6.71-12.08c0,0,2.17,1.42,13.44,1.3S327.43,178.32,327.43,178.32Z" style="fill:#455a64"></path><path d="M271.83,245.68a12.71,12.71,0,0,1-7.71,2.92s6.09,1,8.52-1.22Z" style="fill:#37474f"></path><path d="M300.62,220.85l-.35-5.32a18.57,18.57,0,0,1-11.09-11.43s-.11,6.53,7.23,12.4c0,0,1.24,2.5-2.15,6.22s-18.6,19.65-18.6,19.65Z" style="fill:#37474f"></path><path d="M330.4,155.87c-8.56-4.81-8.59-20.61-7.27-28.34l-9.4-1L295.53,125c-1.72,1.58-4.85,4.81-12.19,14.44-3.8,5-6.31,13,2.13,19.62l1.13,7.71c.7,6.39-2.6,11.18,0,13.14,2.57,2.86,18.1,10,40.41-1.25,1.66-1.13.65-2.42,1-9.64A130.77,130.77,0,0,1,330.4,155.87Z" style="fill:#0ABAB5"></path><path d="M330.4,155.87c-8.56-4.81-8.59-20.61-7.27-28.34l-9.4-1L295.53,125c-1.72,1.58-4.85,4.81-12.19,14.44-3.8,5-6.31,13,2.13,19.62l1.13,7.71c.7,6.39-2.6,11.18,0,13.14,2.57,2.86,18.1,10,40.41-1.25,1.66-1.13.65-2.42,1-9.64A130.77,130.77,0,0,1,330.4,155.87Z" style="fill:#fff;opacity:0.5"></path><path d="M314.66,114.47c1-4.07,4.12-9.8,4.78-15.91s.56-11.33-5.52-15.73a19.86,19.86,0,0,0-15.11-3.53c-2.71.52-5.81,3-5.81,3Z" style="fill:#0ABAB5"></path><path d="M287.07,93c-1.09-2.53-.69-10,5.93-10.64,0,0,8.92-3.31,16.67,2.53a17.33,17.33,0,0,1,7,14.38l-1.85,10.64-.14,3.6Z" style="fill:#263238"></path><path d="M290.71,85.74c-1.43.79-4.23,3.22-4.41,16.72-.16,11.44,3.29,14.39,5.05,15.27s5.22.51,8.6,0l-.26,8.24s-4.11,4-2,7.74c.43.76-1.54,9.59-.67,9.87s3.87-8.51,5.08-8.71c2-.33,4.16-.39,6.14-1.72,5.27-3.54,5.94-6.29,5.94-6.29l.68-17s1.9,2.07,5.35-.85c2.85-2.42,3.94-6.62,1.87-9a4.72,4.72,0,0,0-7.71,1.31c-6.42,0-4-16-10.69-13.72C296.24,90.19,291.32,90.14,290.71,85.74Z" style="fill:#b16668"></path><path d="M314.37,100l-.11,4.84a2.28,2.28,0,0,1-2.29-2.39A2.5,2.5,0,0,1,314.37,100Z" style="fill:#263238"></path><path d="M291.66,99.19a1.38,1.38,0,1,1-1.41-1.41A1.42,1.42,0,0,1,291.66,99.19Z" style="fill:#263238"></path><path d="M303,99.41A1.38,1.38,0,1,1,301.63,98,1.41,1.41,0,0,1,303,99.41Z" style="fill:#263238"></path><path d="M300.13,109.29l-3.83,1.12a1.94,1.94,0,0,0,2.41,1.5A2.18,2.18,0,0,0,300.13,109.29Z" style="fill:#9a4a4d"></path><path d="M288,95.68l2.87-1.91a1.59,1.59,0,0,0-2.3-.58A1.92,1.92,0,0,0,288,95.68Z" style="fill:#263238"></path><path d="M304.09,95.89,301.22,94a1.6,1.6,0,0,1,2.31-.58A1.9,1.9,0,0,1,304.09,95.89Z" style="fill:#263238"></path><polygon points="296.1 98 295.84 107.37 291.52 105.8 296.1 98" style="fill:#9a4a4d"></polygon><path d="M300,117.78c3.54-.35,10.66-2.68,12.13-5.21a7.84,7.84,0,0,1-2.69,3.73c-2.24,1.85-9.5,3.79-9.5,3.79Z" style="fill:#9a4a4d"></path><path d="M340.72,198.14a.85.85,0,0,0-.87,0h0L310.67,215l1.68,24.17,29.18-16.85c.75-.34,1.28-1.86,1.28-4V204.48C342.81,201.65,341.87,198.81,340.72,198.14Z" style="fill:#0ABAB5"></path><path d="M324,207.26c.73-.43,1.84.42,1,4.08s-3.32,12.6-2.89,14.79.79,3.11,2.56.43,4.65-22.46,4.65-22.46Z" style="opacity:0.30000000000000004"></path><path d="M311.54,215c1.15.67,2.08,3.5,2.08,6.34v13.81c0,2.83-.93,4.59-2.08,3.92s-2.09-3.5-2.09-6.33V218.92C309.45,216.09,310.39,214.33,311.54,215Z" style="fill:#0ABAB5"></path><path d="M311.54,215c1.15.67,2.08,3.5,2.08,6.34v13.81c0,2.83-.93,4.59-2.08,3.92s-2.09-3.5-2.09-6.33V218.92C309.45,216.09,310.39,214.33,311.54,215Z" style="opacity:0.30000000000000004"></path><path d="M313.62,222.8c0,1.93,10.81-.81,14.59-3s14.6-10.83,14.6-13.24v1.21s-3.76,6.54-13.95,12.4-15.24,3.27-15.24,3.27Z" style="opacity:0.30000000000000004"></path><path d="M328.34,217.52c.73-.42,1.32.27,1.32,1.53a3.8,3.8,0,0,1-1.32,3c-.72.42-1.31-.26-1.31-1.52A3.84,3.84,0,0,1,328.34,217.52Z" style="fill:#fafafa"></path><path d="M323.13,127.79c7.51,1.1,12,3.07,14.41,9.28s9.34,27.34,10.77,31.74,1,6.37-.87,10.72q-1.79,4.09-3.53,8.2c-1.55,3.63-4.57,9.32-5.1,10.75a14.3,14.3,0,0,0-.63,5,29.59,29.59,0,0,1-.18,4.89,20.45,20.45,0,0,1-1.56,5.6c-.54,1.24-.9,2.59-1.52,3.78a13.75,13.75,0,0,1-1.86,2.24c-.68.83-.95,1.9-1.78,2.63-1.45,1.27-2.94,1.4-4.29,2-.61.82-1.65,2.56-2.32,3.32-1.72,2-2-1.34-1.9-2.45a16.35,16.35,0,0,1,.79-3.51,79.12,79.12,0,0,0,2.33-8.7c.2-1,1.47-7.59-1.14-6.42L320,209.56c.2-1.94,1.71-4.06,5.49-8.86s8.62-27.52,8.62-27.52l-7.15-18a32.18,32.18,0,0,1-5.72-15.95C320.81,130.32,323.13,127.79,323.13,127.79Z" style="fill:#b16668"></path><path d="M323.13,127.53c3.72.43,8.86,1,11.74,4.37s3.24,4.73,7.18,16.34,6.78,20.39,7.11,22,1,4.14-2,9.8c0,0-1.57-2-6.3-3.36s-7.4-.71-7.4-.71l.48-2.81-8.06-18.25a31.93,31.93,0,0,1-5.06-17.15C320.86,129.85,323.13,127.53,323.13,127.53Z" style="fill:#0ABAB5"></path><path d="M323.13,127.53c3.72.43,8.86,1,11.74,4.37s3.24,4.73,7.18,16.34,6.78,20.39,7.11,22,1,4.14-2,9.8c0,0-1.57-2-6.3-3.36s-7.4-.71-7.4-.71l.48-2.81-8.06-18.25a31.93,31.93,0,0,1-5.06-17.15C320.86,129.85,323.13,127.53,323.13,127.53Z" style="fill:#fff;opacity:0.6000000000000001"></path><path d="M333.5,176l-1.74,7.08a18.05,18.05,0,0,1,12.29,4.32l3.15-7.33s-.61-1.67-6-3.34S333.5,176,333.5,176Z" style="fill:#0ABAB5"></path><path d="M333.5,176l-1.74,7.08a18.05,18.05,0,0,1,12.29,4.32l3.15-7.33s-.61-1.67-6-3.34S333.5,176,333.5,176Z" style="fill:#fff;opacity:0.85"></path></g></g></svg>