<svg version="1.1" id="Layer_1" xmlns="http://www.w3.org/2000/svg" xmlns:xlink="http://www.w3.org/1999/xlink" x="0px" y="0px" viewBox="0 0 500 500" style="width: 158px;" xml:space="preserve" data-imageid="family-2-56" imageName="Family 2" class="illustrations_image">
<style type="text/css">
	.st0_family-2-56{fill:#FFFFFF;}
	.st1_family-2-56{fill:#231F20;}
	.st2_family-2-56{fill:#D1D3D4;}
	.st3_family-2-56{fill:#68E1FD;}
	.st4_family-2-56{fill:none;}
</style>
<g id="Chair_family-2-56">
	<polygon class="st0_family-2-56" points="94.3,382.1 82.8,382.1 80.9,366.8 96.2,366.8 &#9;"/>
	<path class="st1_family-2-56" d="M94.3,382.8H82.8c-0.4,0-0.6-0.3-0.7-0.6l-1.9-15.3c0-0.4,0.2-0.7,0.6-0.8c0,0,0,0,0.1,0h15.3&#10;&#9;&#9;c0.2,0,0.4,0.1,0.5,0.2c0.1,0.1,0.2,0.4,0.2,0.5L95,382.2C94.9,382.6,94.6,382.8,94.3,382.8z M83.4,381.4h10.2l1.8-13.9H81.7&#10;&#9;&#9;L83.4,381.4z"/>
	<polygon class="st0_family-2-56" points="403.7,382.1 392.2,382.1 390.3,366.8 405.6,366.8 &#9;"/>
	<path class="st1_family-2-56" d="M403.7,382.8h-11.5c-0.4,0-0.6-0.3-0.7-0.6l-1.9-15.3c0-0.2,0-0.4,0.2-0.5c0.1-0.2,0.3-0.2,0.5-0.2h15.3&#10;&#9;&#9;c0.4,0,0.7,0.3,0.7,0.7c0,0,0,0,0,0.1l-1.9,15.3C404.3,382.6,404,382.8,403.7,382.8z M392.8,381.4h10.2l1.7-13.9h-13.7L392.8,381.4&#10;&#9;&#9;z"/>
	<path class="st0_family-2-56" d="M417.8,213.3c-8.4-43.1-46.1-74.2-90-74.2H172.6c-43.9,0-81.6,31.1-90,74.2H38.1l36.8,135.4h344.7l42.6-135.4&#10;&#9;&#9;H417.8z"/>
	<path class="st1_family-2-56" d="M419.6,349.4H74.9c-0.3,0-0.6-0.2-0.7-0.5L37.4,213.5c-0.1-0.4,0.1-0.8,0.5-0.9c0.1,0,0.1,0,0.2,0H82&#10;&#9;&#9;c8.7-43.1,46.6-74.2,90.6-74.2h155.2c44,0,81.9,31.1,90.6,74.2h43.9c0.2,0,0.4,0.1,0.6,0.3c0.1,0.2,0.2,0.4,0.1,0.6l-42.6,135.4&#10;&#9;&#9;C420.2,349.2,419.9,349.4,419.6,349.4z M75.4,348h343.7l42.2-134h-43.5c-0.3,0-0.6-0.2-0.7-0.6c-8.3-42.7-45.7-73.6-89.3-73.6&#10;&#9;&#9;H172.6c-43.6,0-81,30.9-89.3,73.6c-0.1,0.3-0.4,0.6-0.7,0.6H39L75.4,348z"/>
	<path class="st0_family-2-56" d="M10.3,240.9c0,15.2,12.4,27.6,27.6,27.6h0l17.3,81.8c2.2,10.2,11.2,17.4,21.6,17.4c41.3-0.2,147.5,0,147.5,0&#10;&#9;&#9;c0.5-0.1,157.6-0.2,198.9,0c10.4,0,19.4-7.2,21.6-17.4l17.3-81.8c15.2,0,27.6-12.3,27.6-27.6c0-15.2-12.3-27.6-27.6-27.6&#10;&#9;&#9;c0,0,0,0,0,0c-15.2,0-26,9.7-28.8,26.8l-18.2,82H84.9l-18.2-82c-2.8-17.1-13.6-26.8-28.8-26.8C22.7,213.3,10.3,225.6,10.3,240.9&#10;&#9;&#9;L10.3,240.9"/>
	<path class="st1_family-2-56" d="M9.6,240.9c0-15.6,12.7-28.3,28.3-28.3c15.8,0,26.6,10,29.5,27.4l18,81.4h329.1l18.1-81.5&#10;&#9;&#9;c2.9-17.4,13.6-27.3,29.5-27.3c15.6,0.1,28.2,12.8,28.1,28.5c-0.1,15.3-12.3,27.7-27.6,28.1l-17.2,81.2c-2.2,10.5-11.5,18-22.2,18&#10;&#9;&#9;h-0.1c-42.9-0.2-197.2,0-198.9,0h-0.2c-4.7-0.1-107-0.2-147.3,0c-10.7,0-20-7.5-22.2-18l-17.2-81.2C22,268.8,9.6,256.3,9.6,240.9"/>
	<path class="st1_family-2-56" d="M11,240.9c0,14.8,12.1,26.9,26.9,26.9c0.3,0,0.6,0.2,0.7,0.5l17.3,81.8C58,359.9,66.7,367,76.7,367h0.1&#10;&#9;&#9;c15-0.1,37.3-0.1,57.5-0.1H166c46,0,55.9,0,58.2,0.2V367c0.8-0.1,164.5-0.2,199,0h0.1c10,0,18.7-7,20.8-16.9l17.3-81.8&#10;&#9;&#9;c0.1-0.3,0.4-0.5,0.7-0.5c14.9,0,26.9-12,26.9-26.9c0-14.9-12-26.9-26.9-26.9l0,0c-15.1,0-25.3,9.6-28.1,26.2l-18.2,82.1&#10;&#9;&#9;c-0.1,0.3-0.4,0.5-0.7,0.5H84.9c-0.3,0-0.6-0.2-0.7-0.5L66,240.2C63.3,223.5,53,214,37.9,214C23.1,214,11,226,11,240.9"/>
	<path class="st2_family-2-56" d="M410.8,304.9H87.8c-2,0-3.6-1.6-3.6-3.6c0-0.9,0.4-1.9,1-2.5l28.5-29.4c0.1-0.1,0.3-0.2,0.5-0.2h271.9&#10;&#9;&#9;c0.2,0,0.4,0.1,0.5,0.2l27.3,28.2c1.7,1.7,1.6,4.5-0.1,6.2C413,304.4,411.9,304.9,410.8,304.9z M114.5,270.5l-28.3,29.2&#10;&#9;&#9;c-0.9,0.9-0.8,2.3,0,3.1c0.4,0.4,1,0.6,1.5,0.6h323.1c1.6,0,2.9-1.3,2.9-3c0-0.8-0.3-1.5-0.8-2l-27.1-27.9H114.5z"/>
	<path class="st2_family-2-56" d="M111.5,261.1c-0.3,0-0.6-0.2-0.7-0.5c-8.4-22.8-25.3-38.6-25.4-38.8c-0.3-0.3-0.3-0.7,0-1c0.3-0.3,0.7-0.3,1,0&#10;&#9;&#9;c0,0,0,0,0,0c0.2,0.2,17.3,16.2,25.8,39.3c0.1,0.4,0,0.8-0.4,0.9C111.7,261.1,111.6,261.1,111.5,261.1z"/>
	<path class="st2_family-2-56" d="M390.3,265c-0.4,0-0.7-0.3-0.7-0.7c-0.5-19.1,21.2-42.4,22.1-43.4c0.3-0.3,0.7-0.3,1,0s0.3,0.7,0,1&#10;&#9;&#9;c-0.2,0.2-22.2,23.8-21.8,42.4C391,264.7,390.6,265,390.3,265C390.3,265,390.3,265,390.3,265L390.3,265z"/>
	<path class="st2_family-2-56" d="M37.9,261.1c-11.2,0-20.2-9-20.2-20.2c0-11.2,9-20.2,20.2-20.2s20.2,9,20.2,20.2c0,0,0,0,0,0&#10;&#9;&#9;C58.1,252,49.1,261.1,37.9,261.1z M37.9,222.1c-10.4,0-18.8,8.4-18.8,18.8c0,10.4,8.4,18.8,18.8,18.8s18.8-8.4,18.8-18.8&#10;&#9;&#9;c0,0,0,0,0,0C56.7,230.5,48.3,222.1,37.9,222.1L37.9,222.1z"/>
	<path class="st2_family-2-56" d="M462.1,261.1c-11.2,0-20.2-9.1-20.2-20.2s9.1-20.2,20.2-20.2s20.2,9.1,20.2,20.2&#10;&#9;&#9;C482.3,252,473.2,261.1,462.1,261.1z M462.1,222.1c-10.4,0-18.8,8.4-18.8,18.8c0,10.4,8.4,18.8,18.8,18.8&#10;&#9;&#9;c10.4,0,18.8-8.4,18.8-18.8C480.9,230.5,472.5,222.1,462.1,222.1L462.1,222.1L462.1,222.1z"/>
</g>
<g id="Family_family-2-56">
	<path class="st0_family-2-56" d="M293.2,370.6c0,0,2.2,10.4,1.6,11.5S275.1,402,283,401s31.2-17.5,31.2-17.5l-2-16.8L293.2,370.6z"/>
	<path class="st1_family-2-56" d="M282.4,401.8c-0.7,0.1-1.5-0.3-1.9-0.9c-1.2-2.3,3.6-8.2,11.6-16.9c1-1,1.9-2,2-2.2c0.3-0.8-0.6-6.3-1.6-11&#10;&#9;&#9;c0-0.2,0-0.4,0.1-0.5c0.1-0.2,0.3-0.3,0.5-0.3l19-3.8c0.2,0,0.4,0,0.5,0.1c0.2,0.1,0.3,0.3,0.3,0.5l2,16.8c0,0.3-0.1,0.5-0.3,0.6&#10;&#9;&#9;c-1,0.7-23.6,16.5-31.5,17.6C282.9,401.7,282.6,401.8,282.4,401.8z M294.1,371.2c0.8,4,2,10.2,1.3,11.3c-0.7,0.9-1.4,1.7-2.2,2.5&#10;&#9;&#9;c-8.2,8.9-12.1,14-11.4,15.3c0.1,0.1,0.4,0.2,1.1,0.1c7.1-0.9,27.6-15.1,30.5-17.1l-1.8-15.6L294.1,371.2z"/>
	<path class="st0_family-2-56" d="M323.7,371.5c0,0,0.6,8.6,0,11.8s-10.2,13.5-7.9,14.8s27.6-13.3,27.6-13.3l-1.7-18.8L323.7,371.5z"/>
	<path class="st1_family-2-56" d="M316.1,398.9c-0.2,0-0.4,0-0.6-0.1c-0.3-0.2-0.6-0.5-0.7-0.9c-0.3-1.5,1.4-4.1,4.4-8.3&#10;&#9;&#9;c1.8-2.5,3.6-5.1,3.9-6.3c0.6-3.2,0-11.6,0-11.7c0-0.3,0.2-0.6,0.5-0.7l18.1-5.5c0.2-0.1,0.4,0,0.6,0.1c0.2,0.1,0.3,0.3,0.3,0.5&#10;&#9;&#9;l1.6,18.8c0,0.3-0.1,0.5-0.3,0.7C336.5,389.6,320.1,398.9,316.1,398.9z M324.4,372c0.1,2,0.5,8.6,0,11.5c-0.3,1.5-2.1,4.1-4.1,6.9&#10;&#9;&#9;c-1.6,2.2-4.5,6.4-4.1,7.2c1.6,0.5,14.7-6.3,26.5-13.1l-1.5-17.4L324.4,372z"/>
	<path class="st0_family-2-56" d="M163.3,368.2c0,0,0.3,6.7,0,7.7s-2.3,5.9-2,7.4s16.8,27.6,20.9,23.5s-6.4-23.2-6.4-25.1s1.3-13.5,1.3-13.5&#10;&#9;&#9;H163.3z"/>
	<path class="st1_family-2-56" d="M181.1,408c-0.3,0-0.6,0-0.9-0.1c-6-1.7-19.2-22.5-19.6-24.3c-0.3-1.2,0.5-3.7,1.7-7c0.1-0.3,0.2-0.6,0.3-0.7&#10;&#9;&#9;c0.2-2.5,0.2-5,0-7.5c0-0.4,0.3-0.7,0.6-0.7c0,0,0,0,0.1,0h13.8c0.4,0,0.7,0.3,0.7,0.7c0,0,0,0,0,0.1c0,0.1-1.3,11.5-1.3,13.4&#10;&#9;&#9;c0.5,1.6,1.1,3.1,1.8,4.6c3.9,9,7.4,18,4.4,21C182.3,407.8,181.7,408,181.1,408z M164,369c0.1,2.1,0.2,6.3-0.1,7.2&#10;&#9;&#9;c-0.1,0.2-0.2,0.4-0.3,0.8c-0.5,1.3-1.9,5.2-1.7,6.2c0.6,1.8,13.6,22.1,18.7,23.3c0.3,0.1,0.7,0.1,1-0.2c2.6-2.6-2.1-13.6-4.7-19.5&#10;&#9;&#9;c-1.3-3.1-1.9-4.5-1.9-5.1c0-1.7,0.9-10.1,1.2-12.8L164,369z"/>
	<path class="st0_family-2-56" d="M199.6,370c0,0,0.6,11,0,13.5s-1.8,5.2-1.5,6.7s20.5,19.2,21.5,16.1s-7.2-15.7-7.4-18s2.6-19.5,2.6-19.5&#10;&#9;&#9;L199.6,370z"/>
	<path class="st1_family-2-56" d="M219,407.4L219,407.4c-4-0.2-21.1-15.3-21.5-17c-0.3-1.3,0.3-3.1,0.9-5.1c0.2-0.7,0.4-1.3,0.6-2&#10;&#9;&#9;c0.5-1.9,0.2-10.2,0-13.2c0-0.4,0.3-0.7,0.6-0.7c0,0,0,0,0,0l15.3-1.1c0.2,0,0.4,0.1,0.6,0.2c0.1,0.2,0.2,0.4,0.2,0.6&#10;&#9;&#9;c-0.8,4.8-2.8,17.5-2.6,19.3c0.1,0.7,1.4,3.3,2.7,5.7c3.1,6,5.3,10.4,4.7,12.5C220.2,407.1,219.6,407.5,219,407.4z M200.3,370.6&#10;&#9;&#9;c0.1,2.5,0.5,10.8-0.1,13c-0.2,0.7-0.4,1.4-0.6,2c-0.5,1.7-1.1,3.5-0.9,4.4c0.3,0.6,4.3,4.5,9.6,8.8c6.8,5.6,9.8,7.1,10.6,7.1&#10;&#9;&#9;c0.4-1.8-2.6-7.5-4.6-11.3c-1.8-3.4-2.8-5.3-2.8-6.3c-0.1-2,1.9-15,2.5-18.8L200.3,370.6z"/>
	<path class="st0_family-2-56" d="M67.9,175c0,0-6.6-6.6-7.1-9.1s-1.3-11-3.4-9.4s-1.3,7.7-1.3,7.7s-9.1-10.1-11.5-7.7s-3.4,4.6-3.4,9.1&#10;&#9;&#9;s22.6,22.7,22.6,22.7"/>
	<path class="st1_family-2-56" d="M63.7,189c-0.2,0-0.3-0.1-0.4-0.2c-2.3-1.8-22.8-18.5-22.8-23.2c0-4.5,1-7,3.7-9.6c0.4-0.4,1-0.6,1.5-0.5&#10;&#9;&#9;c2.7,0.1,7.3,4.5,9.6,6.9c-0.1-2.1,0.2-5.2,1.7-6.4c0.4-0.3,0.9-0.4,1.4-0.3c1.5,0.6,2.1,4,2.8,8.3c0.1,0.7,0.2,1.4,0.3,1.8&#10;&#9;&#9;c0.3,1.6,4.4,6.2,6.9,8.7c0.3,0.3,0.3,0.7,0,1c-0.3,0.3-0.7,0.3-1,0c0,0,0,0,0,0c-0.7-0.7-6.8-6.8-7.3-9.4&#10;&#9;&#9;c-0.1-0.4-0.2-1.1-0.3-1.8c-0.3-1.7-1.1-6.9-1.9-7.2c-1.3,1-1.3,4.9-1,7.1c0,0.4-0.2,0.7-0.6,0.8c-0.2,0-0.4-0.1-0.6-0.2&#10;&#9;&#9;c-1.9-2.1-7.5-7.7-10-7.8c-0.2,0-0.4,0-0.5,0.2c-2.4,2.3-3.2,4.4-3.2,8.6c0,3.1,13.7,15.2,22.3,22.1c0.3,0.2,0.4,0.7,0.1,1&#10;&#9;&#9;C64.2,188.9,63.9,189,63.7,189L63.7,189z"/>
	<path class="st1_family-2-56" d="M189.8,245.4l-64.4,3.4c0,0-4,17.7,7,26.4s33.3,17.8,34.6,24.2s-6.7,61.9-5.8,75l19.8,4.7&#10;&#9;&#9;c0,0,17.1-66.3,16.7-77.3s-6.1-16.1-6.1-16.1s15.8,13.5,16.2,16.6s-11.3,73.4-11.3,73.4s20.9,0.8,21.4-0.5s19.8-66.3,14.9-80.4&#10;&#9;&#9;S189.8,245.4,189.8,245.4z"/>
	<path class="st1_family-2-56" d="M181.1,379.8h-0.1l-19.8-4.7c-0.3-0.1-0.4-0.3-0.5-0.6c-0.5-6.8,1.4-24.6,3.2-41.7c1.6-15.5,3.2-30.2,2.6-33.2&#10;&#9;&#9;c-0.7-3.6-9.4-8.6-17.9-13.4c-6-3.4-12.1-7-16.5-10.5c-11.1-8.9-7.4-26.3-7.2-27c0.1-0.3,0.3-0.5,0.6-0.5l64.4-3.4&#10;&#9;&#9;c0.2,0,0.3,0.1,0.4,0.2c1.6,1.4,38.3,35.7,43.1,49.7c4.9,14.4-14.7,80.1-14.9,80.8s-0.6,1.8-22,0.9c-0.3,0-0.6-0.3-0.6-0.6&#10;&#9;&#9;c0,0,0-0.1,0-0.1c4.7-28.2,11.6-71,11.3-73.2c-0.2-1.6-6.4-7.6-11.9-12.6c1.9,3.7,3,7.9,3.1,12.1c0.4,10.9-16,74.7-16.7,77.4&#10;&#9;&#9;C181.5,379.6,181.3,379.8,181.1,379.8z M161.9,374l18.8,4.5c1.7-6.6,16.9-66.3,16.5-76.5c-0.4-10.5-5.9-15.7-5.9-15.7&#10;&#9;&#9;c-0.3-0.2-0.3-0.6-0.1-0.9c0.2-0.3,0.6-0.3,0.9-0.1c1.6,1.4,16,13.8,16.4,17c0.4,3-9.6,63.1-11.2,72.9c9,0.3,18.7,0.3,20.1-0.2&#10;&#9;&#9;c1.1-3.5,19.5-66.3,14.9-79.8c-4.5-13.2-39.7-46.3-42.6-49.1l-63.6,3.3c-0.5,2.8-2.7,17.7,6.9,25.3c4.3,3.5,10.4,7,16.4,10.4&#10;&#9;&#9;c9.4,5.4,17.6,10.1,18.5,14.2c0.6,3.2-0.8,17.3-2.6,33.6C163.4,348.9,161.5,366.9,161.9,374z"/>
	<path class="st3_family-2-56 targetColor" d="M122.5,250.4c0,0,3.8-27.9,7.5-42.4c0,0-10.7,18.7-23.5,19.7s-50.6-42.4-50.6-42.4l10.6-15&#10;&#9;&#9;c0,0,26.4,20.8,41.7,27.5c3.9-9.2,27.3-42.4,40.8-48.9s30.7-1.4,39.9,6.1s68,84.1,68,84.1l-14.5,6.2l-47-48.3l1.4,52.7L122.5,250.4&#10;&#9;&#9;z" style="fill: rgb(76, 244, 50);"/>
	<path class="st0_family-2-56" d="M247.6,320.5c0,0-1.8,10.6,0.2,13.2s13.5,10.8,14.3,7.4c1-4.4-2.2-5.1-4-11.8l0.2-9.3"/>
	<path class="st1_family-2-56" d="M260.8,342.6c-3.8,0-12.1-6.4-13.6-8.5c-2.1-2.8-0.5-12.7-0.3-13.8c0-0.4,0.4-0.7,0.8-0.6&#10;&#9;&#9;c0.4,0,0.7,0.4,0.6,0.8c0,0,0,0,0,0.1c-0.5,2.9-1.4,10.8,0.1,12.7c1.6,2.2,10.4,8.4,12.8,7.9c0.2,0,0.2-0.1,0.3-0.3&#10;&#9;&#9;c0.5-2.2-0.2-3.3-1.2-5.2c-1.2-1.9-2.1-4.1-2.8-6.3c0-0.1,0-0.1,0-0.2l0.2-9.3c0-0.4,0.3-0.7,0.7-0.7c0.4,0,0.7,0.3,0.7,0.7&#10;&#9;&#9;c0,0,0,0,0,0l-0.2,9.2c0.6,2.1,1.4,4,2.6,5.8c1.1,1.9,2,3.4,1.4,6.2c-0.1,0.7-0.7,1.2-1.4,1.3C261.2,342.6,261,342.6,260.8,342.6z"/>
	<path class="st0_family-2-56" d="M275.3,316.2c0,0-0.2,6.4,0,9.2s11.8,17.6,13.6,13.2c0.9-2.2-1.4-9.6-4.4-14.6c1.7-8.1,0.5-11.7,0.5-11.7"/>
	<path class="st1_family-2-56" d="M287.7,340.1c-0.1,0-0.2,0-0.4,0c-4.1-0.6-12.6-12-12.8-14.6c-0.2-2.9,0-9,0-9.3c0-0.4,0.3-0.7,0.7-0.7&#10;&#9;&#9;c0.4,0,0.7,0.3,0.7,0.7c0,0.1-0.2,6.3,0,9.1c0.2,2.2,8.5,12.9,11.6,13.4c0.2,0.1,0.5,0,0.6-0.3c0,0,0,0,0-0.1&#10;&#9;&#9;c0.7-1.8-1.3-8.9-4.4-14c-0.1-0.2-0.1-0.3-0.1-0.5c1.6-7.7,0.5-11.2,0.5-11.3c-0.1-0.4,0.1-0.8,0.4-0.9c0,0,0,0,0,0&#10;&#9;&#9;c0.4-0.1,0.8,0.1,0.9,0.4c0.1,0.1,1.3,3.8-0.4,11.8c2.8,4.8,5.4,12.4,4.3,15C289.2,339.6,288.5,340.1,287.7,340.1z"/>
	<path class="st1_family-2-56" d="M213.8,263c0,0,11.5,17.9,24.4,21c7.8,13.4,5.9,38,5.9,38h14.4c2.9-7.9,4.4-16.3,4.5-24.7&#10;&#9;&#9;c0.1-8.7-5.5-20-5.5-20s13.9,14.3,14.9,22.2s0.7,21.8,0.7,21.8l15-1.3c0,0,3.9-25.8-2.7-40.4s-18-27.1-18-27.1L213.8,263z"/>
	<path class="st1_family-2-56" d="M258.5,322.5h-14.4c-0.3,0-0.6-0.3-0.6-0.6c0,0,0,0,0,0c0-0.2,1.8-24.3-5.7-37.5c-12.9-3.3-24-20.4-24.5-21.2&#10;&#9;&#9;c-0.1-0.2-0.1-0.4,0-0.6c0.1-0.2,0.2-0.3,0.4-0.4l53.5-10.3c0.2,0,0.4,0,0.6,0.2c0.1,0.1,11.6,12.8,18.1,27.2s2.9,39.6,2.7,40.7&#10;&#9;&#9;c0,0.3-0.3,0.5-0.5,0.5l-15.1,1.3c-0.2,0-0.4,0-0.5-0.2c-0.1-0.1-0.2-0.3-0.2-0.5c0-0.1,0.2-14-0.7-21.8&#10;&#9;&#9;c-0.7-5.6-8.1-14.6-12.1-19.1c1.7,4.1,4.1,10.9,4,16.8c-0.1,8.5-1.6,16.9-4.5,24.9C259,322.4,258.8,322.5,258.5,322.5z&#10;&#9;&#9; M244.8,321.3h13.4c2.7-7.7,4.1-15.9,4.2-24c0.1-8.5-5.4-19.6-5.5-19.7c-0.1-0.3,0-0.6,0.2-0.8c0.2-0.2,0.6-0.2,0.8,0.1&#10;&#9;&#9;c0.6,0.6,14,14.6,15,22.6c0.9,6.8,0.8,18.3,0.8,21.2l13.9-1.2c0.5-3.6,3.2-26.4-2.7-39.5s-16-24.8-17.7-26.6l-52.3,10.1&#10;&#9;&#9;c2.4,3.4,12.5,17.3,23.5,19.9c0.2,0,0.3,0.1,0.4,0.3C245.9,295.9,245,317.2,244.8,321.3L244.8,321.3z"/>
	<path class="st1_family-2-56" d="M331.2,233.2c-1.5,1.8-35.7,33.4-39.2,59.6c-1.4,10.6-0.7,81.6-0.7,81.6l24-1.4c0,0,2-66.8,4.9-75.1&#10;&#9;&#9;s20.6-23.5,20.6-23.5s-7.2,4.8-13.6,33.1c-4.4,19.3-5.8,67-5.8,67l22.5-2.4c0,0-0.6-64.8,22.1-82.9c24.2-19.3,17-31.5,16.5-41.8&#10;&#9;&#9;s-8.5-20.6-8.5-20.6L331.2,233.2z"/>
	<path class="st1_family-2-56" d="M321.2,375.1c-0.2,0-0.3-0.1-0.4-0.2c-0.1-0.1-0.2-0.3-0.2-0.5c0-0.5,1.5-48,5.8-67.1&#10;&#9;&#9;c3.4-14.8,6.9-23.2,9.6-27.9c-5.4,5.1-13.5,13.4-15.4,18.6c-2.9,8.1-4.9,74.3-4.9,74.9c0,0.3-0.3,0.6-0.6,0.6l-24,1.4&#10;&#9;&#9;c-0.2,0-0.3-0.1-0.5-0.2c-0.1-0.1-0.2-0.3-0.2-0.4c0-2.9-0.7-71.1,0.7-81.7c1.4-10.8,9.1-29.6,37.8-58.4c0.8-0.8,1.4-1.4,1.5-1.6&#10;&#9;&#9;c0.1-0.1,0.2-0.2,0.4-0.2l42.7-6.5c0.2,0,0.4,0.1,0.6,0.2c0.3,0.4,8.1,10.7,8.6,21c0.1,1.7,0.3,3.4,0.6,5.2&#10;&#9;&#9;c1.4,9.2,3.1,20.8-17.4,37.1c-22.2,17.7-21.9,81.8-21.9,82.4c0,0.3-0.2,0.6-0.5,0.6L321.2,375.1L321.2,375.1z M331.5,233.8&#10;&#9;&#9;c-0.2,0.3-0.7,0.7-1.5,1.5c-28.4,28.5-36,47.1-37.4,57.7c-1.3,10-0.8,73.7-0.7,80.9l22.8-1.3c0.2-6.9,2.1-66.7,4.9-74.8&#10;&#9;&#9;c2.7-7.6,16.8-20.3,20.1-23.2c0.2-0.2,0.5-0.4,0.7-0.6c0.3-0.2,0.7-0.1,0.9,0.1s0.1,0.7-0.1,0.9l-0.5,0.5&#10;&#9;&#9;c-1.7,1.7-7.6,8.9-12.9,32.3c-4,17.7-5.6,60.1-5.8,66.2l21.2-2.3c0.1-11.4,1-22.9,2.6-34.2c3.6-24.7,10.3-41,19.8-48.6&#10;&#9;&#9;c20-15.9,18.3-27,16.9-36c-0.3-1.8-0.5-3.6-0.6-5.3c-0.4-9-6.9-18.2-8.1-20L331.5,233.8z"/>
	<path class="st0_family-2-56" d="M399.4,247.4c-0.7,3-1.8,6-3.1,8.8c-2.2,4.4-1.3,10.7-1.5,13.6s0,5.7,2.3,7s5.6,2.8,6,1.1s1.1-6.2,1.5-8.1&#10;&#9;&#9;s4.5-13.6,4.5-13.6"/>
	<path class="st1_family-2-56" d="M402,279.4c-0.9,0-2.4-0.4-5.2-1.9c-2.6-1.5-2.8-4.5-2.6-7.6c0-0.7,0-1.6,0-2.7c-0.1-3.3-0.2-7.8,1.5-11.2&#10;&#9;&#9;c1.3-2.7,2.4-5.6,3.1-8.6c0.1-0.4,0.5-0.6,0.8-0.5c0.4,0.1,0.6,0.5,0.5,0.8l0,0c-0.7,3.1-1.8,6.1-3.2,8.9&#10;&#9;&#9;c-1.6,3.2-1.5,7.4-1.4,10.6c0,1.1,0,2,0,2.8c-0.2,3,0.1,5.3,1.9,6.3c2.9,1.6,4.4,1.9,4.9,1.7c0,0,0.1,0,0.1-0.1&#10;&#9;&#9;c0.2-0.9,0.5-2.8,0.9-4.6c0.2-1.4,0.5-2.7,0.6-3.5c0.4-1.9,4.3-13.2,4.5-13.7c0.1-0.4,0.5-0.6,0.9-0.4c0,0,0,0,0,0&#10;&#9;&#9;c0.4,0.1,0.6,0.5,0.4,0.9c0,0,0,0,0,0c-1.4,4.1-4.1,12.1-4.4,13.5c-0.2,0.8-0.4,2.1-0.6,3.4c-0.3,1.8-0.6,3.7-0.9,4.7&#10;&#9;&#9;c-0.1,0.5-0.4,0.9-0.9,1.1C402.6,279.3,402.3,279.4,402,279.4z"/>
	<path class="st3_family-2-56 targetColor" d="M386.6,252.6c-1.3,0.7-75.1-2-75.1-2c1.5-8.5-3.2-57.8-1-67c1.2-4.9,1-19.5,3.8-23.7&#10;&#9;&#9;c4.7-7.2,16.7-11.3,24.7-10.6c6.4,0.5,19.7,1.3,26,2.9c9.5,2.4,51.2,40.5,55.9,51.6c8.4,19.4-11.1,55.2-11.1,55.2l-12.7-8.1&#10;&#9;&#9;l2.2-35.8l-20.7-16.5L386.6,252.6z" style="fill: rgb(76, 244, 50);"/>
	<path class="st0_family-2-56" d="M272,168.1c0,0-10-14.6-17.3-14.1s-18.9,5.7-17,8.5s13.8-1.6,13.8-1.6"/>
	<path class="st1_family-2-56" d="M272,168.8c-0.2,0-0.4-0.1-0.6-0.3c-0.1-0.1-9.9-14.2-16.6-13.8c-6.4,0.4-15.3,4.4-16.4,6.7&#10;&#9;&#9;c-0.2,0.4-0.1,0.6,0,0.6c1.1,1.6,8.2-0.1,13-1.9c0.3-0.1,0.7,0,0.9,0.4c0,0,0,0,0,0c0.1,0.4,0,0.8-0.4,0.9&#10;&#9;&#9;c-2.1,0.8-12.5,4.5-14.6,1.4c-0.4-0.6-0.4-1.4-0.1-2c1.6-3.3,11.6-7.2,17.6-7.5c7.6-0.4,17.5,13.8,17.9,14.4c0.2,0.3,0.2,0.8-0.2,1&#10;&#9;&#9;c0,0,0,0,0,0C272.3,168.8,272.2,168.8,272,168.8z"/>
	<path class="st3_family-2-56 targetColor" d="M314.4,159.9c0,0-19.4,26.5-23.3,25.8s-21.3-24.9-21.3-24.9l-13.1,8.9c0,0,18.9,50.4,31.4,50.8&#10;&#9;&#9;s34-19.3,34-19.3" style="fill: rgb(76, 244, 50);"/>
	<path class="st0_family-2-56" d="M280.6,227.1c-6.2,4.2-12.3,8.4-18.4,12.5c-1,0.7-1.9,1.3-2.9,2l-4,2.8c-1.3,0.9-2.7,1.9-4,2.8&#10;&#9;&#9;c-3.5,2.5-7,5.1-10.5,7.6l-0.9,0.6c-1-1.1-1.9-2.3-2.8-3.4c-5.2-6.3-10.4-12.4-15.7-18.6c-1.5-1.8-3.1-3.5-4.6-5.3&#10;&#9;&#9;c-2-2.2-3.9-4.4-5.9-6.6c0.8-1.9,1.7-3.7,2.6-5.4c0.8-1.6,1.8-3.1,2.8-4.6c0.8-1.2,1.7-2.4,2.7-3.5l0,0c0.6-0.7,1.3-1.4,2.1-2.1&#10;&#9;&#9;c0.9-0.7,1.7-1.4,2.6-2c2.9-2,6-3.5,9.3-4.6c3.2-1,6.5-1.7,9.9-2c0.9-0.1,1.8-0.1,2.7-0.2l0,0c0.9,0,1.8,0,2.7,0&#10;&#9;&#9;c1.9,0,3.9,0.2,5.8,0.4c1.4,0.2,2.8,0.4,4.1,0.7s2.4,0.6,3.5,0.9c2.9,0.8,5.7,2,8.3,3.4c1.2,0.7,2.3,1.5,3.2,2.5&#10;&#9;&#9;c1,1.3,1.8,2.7,2.4,4.3c0.4,1,0.8,2,1.1,3.1c0.2,0.6,0.4,1.2,0.6,1.9c0.5,1.6,1,3.4,1.4,5.2C279.5,222.1,280,224.6,280.6,227.1z"/>
	<path class="st1_family-2-56" d="M239.9,256.1c-0.2,0-0.4-0.1-0.5-0.2l-1.2-1.4l-1.6-2c-4.8-5.9-10-11.9-15.7-18.5c-1.5-1.8-3.1-3.5-4.6-5.3&#10;&#9;&#9;c-1.9-2.2-3.9-4.5-5.9-6.7c-0.2-0.2-0.2-0.5-0.1-0.7c0.8-1.9,1.7-3.7,2.7-5.5c0.9-1.6,1.8-3.2,2.8-4.7c0.8-1.2,1.8-2.4,2.8-3.5l0,0&#10;&#9;&#9;c0.7-0.7,1.4-1.4,2.1-2.1c0.8-0.7,1.7-1.4,2.7-2c2.9-2,6.1-3.6,9.5-4.6c3.2-1.1,6.6-1.7,10-2c0.9-0.1,1.8-0.1,2.7-0.2s1.9,0,2.8,0&#10;&#9;&#9;c2,0,3.9,0.2,5.9,0.4c1.4,0.2,2.8,0.4,4.2,0.7s2.4,0.6,3.6,0.9c3,0.8,5.8,2,8.5,3.5c1.3,0.7,2.4,1.6,3.4,2.7&#10;&#9;&#9;c1.1,1.3,1.9,2.9,2.5,4.5c0.4,0.9,0.8,2,1.2,3.2c0.2,0.6,0.4,1.2,0.6,1.9c0.5,1.6,1,3.4,1.5,5.3c0.5,2.1,1.1,4.5,1.7,7.4&#10;&#9;&#9;c0.1,0.3,0,0.5-0.3,0.7c-6.1,4.2-12.3,8.4-18.4,12.5l-6.9,4.7c-1.3,0.9-2.7,1.9-4,2.8c-2,1.4-4,2.9-6,4.4l-4.4,3.2l-0.9,0.6&#10;&#9;&#9;C240.2,256.1,240,256.1,239.9,256.1z M211.6,221.4c1.9,2.1,3.8,4.2,5.6,6.4c1.5,1.8,3.1,3.5,4.6,5.3c5.7,6.6,10.9,12.7,15.7,18.6&#10;&#9;&#9;l1.6,2l0.8,1l0.4-0.3l4.4-3.2c2-1.5,4-2.9,6-4.4c1.3-1,2.7-1.9,4-2.8l7-4.7c6-4.1,12-8.2,18.1-12.3c-0.6-2.7-1.1-4.9-1.6-6.9&#10;&#9;&#9;s-1-3.6-1.4-5.2c-0.2-0.6-0.4-1.2-0.6-1.8c-0.4-1.2-0.8-2.2-1.1-3.1c-0.5-1.5-1.3-2.9-2.2-4.1c-0.9-1-1.9-1.8-3.1-2.4&#10;&#9;&#9;c-2.6-1.5-5.3-2.6-8.1-3.4c-1.1-0.3-2.3-0.6-3.5-0.9c-1.3-0.3-2.7-0.5-4.1-0.7c-1.9-0.3-3.8-0.4-5.8-0.4c-0.9,0-1.8,0-2.7,0&#10;&#9;&#9;s-1.8,0.1-2.7,0.2c-3.3,0.3-6.6,0.9-9.7,1.9c-3.2,1.1-6.3,2.6-9.1,4.5c-0.9,0.6-1.8,1.3-2.6,2c-0.7,0.6-1.4,1.3-2,2l-0.1,0.1&#10;&#9;&#9;c-0.9,1.1-1.8,2.2-2.6,3.3c-1,1.5-1.9,3-2.8,4.5C213.2,218,212.4,219.7,211.6,221.4z"/>
	<path class="st0_family-2-56" d="M234.6,172.2c0,0-7.6,26.8-11.3,32.6l24.6,2.2l1.6-37.4L234.6,172.2z"/>
	<path class="st1_family-2-56" d="M247.9,207.6L247.9,207.6l-24.6-2.2c-0.2,0-0.5-0.2-0.6-0.4c-0.1-0.2-0.1-0.5,0-0.7&#10;&#9;&#9;c3.7-5.6,11.2-32.1,11.2-32.4c0.1-0.3,0.3-0.5,0.6-0.5l14.9-2.6c0.2,0,0.4,0,0.6,0.2c0.2,0.1,0.2,0.3,0.2,0.6l-1.6,37.4&#10;&#9;&#9;c0,0.2-0.1,0.4-0.2,0.5C248.2,207.5,248.1,207.6,247.9,207.6z M224.5,204.1l22.8,2l1.6-35.8l-13.6,2.4&#10;&#9;&#9;C234.2,176.2,228.1,197.3,224.5,204.1L224.5,204.1z"/>
	<path class="st0_family-2-56" d="M241.2,204l-1.5,9.1c0,0,0.9,2.9,8.7,1.7c7.8-1.2,8.2-4.7,8.2-4.7s2.4-17.1,2.4-17.1c0.1-0.9,0.8-9.8,2-17.6&#10;&#9;&#9;c-9.1-1.3-17.2-3.1-17.2-3.1c0.8,1-2.5,0.7-2.5,0.7c-1.5-0.2-3-0.2-4.4,0.1c-1.2,5.2-5.7,19.4-5.4,22.6&#10;&#9;&#9;C232,201.8,241.2,204,241.2,204z"/>
	<path class="st1_family-2-56" d="M245,215.8c-5,0-5.8-2.1-5.9-2.4c0-0.1,0-0.2,0-0.3l1.4-8.6c-2.1-0.6-9.2-3.1-9.7-8.7&#10;&#9;&#9;c-0.2-2.2,1.8-9.4,3.5-15.6c0.8-2.8,1.5-5.5,1.9-7.1c0.1-0.2,0.2-0.4,0.5-0.5c1.5-0.3,3.1-0.3,4.6-0.1c0.6,0.1,1.2,0.1,1.8,0&#10;&#9;&#9;c0-0.1,0-0.3,0.1-0.4c0.1-0.2,0.4-0.3,0.7-0.3c0.1,0,8.2,1.8,17.2,3.1c0.3,0.1,0.6,0.4,0.5,0.7c-1,6.8-1.7,14.5-1.9,17.5l-2.4,17.2&#10;&#9;&#9;c0,0.1-0.5,4-8.7,5.2C247.4,215.7,246.2,215.7,245,215.8z M240.4,213c0.3,0.4,1.8,2.1,7.9,1.2c7.1-1.1,7.6-4.1,7.6-4.1&#10;&#9;&#9;s2.4-17,2.4-17.1c0.2-3,0.9-10.3,1.9-17c-7.2-1.1-13.7-2.4-15.9-2.9v0.1c-0.6,0.7-2.4,0.6-3.1,0.5l0,0c-1.3-0.2-2.5-0.2-3.8,0&#10;&#9;&#9;c-0.4,1.7-1.1,4.2-1.8,6.8c-1.6,5.9-3.7,13.2-3.5,15.2c0.4,5.4,9.2,7.7,9.3,7.7c0.3,0.1,0.5,0.4,0.5,0.7L240.4,213z"/>
	<path class="st0_family-2-56" d="M243.8,188.3c-1.2,1.6-2.4,3.6-2,4.2c0.8,1.1,3.6,0.8,3.6,0.8"/>
	<path class="st1_family-2-56" d="M244.5,194.1c-1,0-2.5-0.2-3.2-1.1c-0.4-0.6-0.5-1.6,2-5c0.2-0.3,0.7-0.4,1-0.1c0.3,0.2,0.4,0.7,0.1,1&#10;&#9;&#9;c-2,2.7-2,3.4-1.9,3.4c0.4,0.5,1.9,0.6,2.9,0.4c0.4-0.1,0.8,0.1,0.8,0.5s-0.1,0.8-0.5,0.8c0,0-0.1,0-0.2,0&#10;&#9;&#9;C245.2,194,244.8,194.1,244.5,194.1z"/>
	<path class="st0_family-2-56" d="M252.4,210.3l0.1-0.6l27.8,3.5c-1.8-5.5-7.2-22.4-7.5-30c-0.3-9.2-1.3-17-12.5-20.6s-19-1.8-24.4,3.6&#10;&#9;&#9;c-3.3,3.4-5,7.9-4.8,12.6c0,0,8.5,1.7,10.8,1.8l1.1-2.5l1.1,2.8l7.7,1.8l1.9-3.3v4.2l4,0.2C257.8,183.8,252.9,198.8,252.4,210.3z"/>
	<path class="st1_family-2-56" d="M280.4,213.8L280.4,213.8l-27.2-3.4c-0.1,0.4-0.4,0.6-0.7,0.6c-0.4,0-0.7-0.3-0.6-0.7&#10;&#9;&#9;c0.4-9.9,4.1-22.5,5.2-25.9l-3.1-0.1c-0.4,0-0.7-0.3-0.7-0.7v-1.7l-0.6,1.1c-0.2,0.3-0.5,0.4-0.8,0.3l-7.7-1.8&#10;&#9;&#9;c-0.2-0.1-0.4-0.2-0.5-0.4l-0.5-1.2l-0.4,1c-0.1,0.3-0.4,0.4-0.7,0.4c-2.3-0.1-10.6-1.7-11-1.8c-0.3-0.1-0.5-0.3-0.6-0.6&#10;&#9;&#9;c-0.2-4.9,1.6-9.6,5-13.1c6-5.9,14.4-7.2,25.1-3.8c11.5,3.7,12.7,11.8,13,21.2c0.2,7.6,5.8,24.8,7.4,29.8c0.1,0.2,0,0.5-0.1,0.7&#10;&#9;&#9;C280.8,213.8,280.6,213.9,280.4,213.8z M253.2,209l26.1,3.3c-2.3-7.1-7-22-7.2-29.2c-0.3-9.2-1.3-16.5-12-19.9&#10;&#9;&#9;c-10.3-3.3-18.1-2.1-23.7,3.4c-3,3.1-4.6,7.2-4.6,11.5c1.8,0.4,7.4,1.4,9.7,1.6l0.9-2.1c0.1-0.3,0.4-0.4,0.6-0.4&#10;&#9;&#9;c0.3,0,0.5,0.2,0.6,0.4l0.9,2.5l6.8,1.6l1.6-2.8c0.2-0.3,0.6-0.4,1-0.2c0.2,0.1,0.3,0.3,0.3,0.6v3.6l3.3,0.1c0.4,0,0.7,0.3,0.7,0.7&#10;&#9;&#9;c0,0.1,0,0.1,0,0.2C258.5,184.1,253.9,198,253.2,209z"/>
	<path class="st1_family-2-56" d="M243.9,198.2c-0.4,0-0.8,0-1.2-0.1c-3.6-0.7-5.6-4.3-5.6-4.4c-0.2-0.3-0.1-0.8,0.2-1c0,0,0,0,0.1,0&#10;&#9;&#9;c0.3-0.2,0.8-0.1,1,0.2c0,0,0,0,0,0c0,0,1.8,3.2,4.7,3.7c1.7,0.3,3.6-0.3,5.5-2c0.3-0.2,0.7-0.2,1,0.1c0.2,0.3,0.2,0.7-0.1,0.9&#10;&#9;&#9;C248,197.2,246,198.1,243.9,198.2z"/>
	<path class="st1_family-2-56" d="M241.2,204c0,0,6.1,0.8,8.7-1c0,0-2.6,2.7-9.6,5.7L241.2,204z"/>
	<path class="st1_family-2-56" d="M240.3,209.5c-0.4,0-0.7-0.3-0.7-0.7c0-0.1,0-0.1,0-0.2l1-4.8c0.1-0.4,0.4-0.6,0.8-0.6&#10;&#9;&#9;c1.6,0.2,6.3,0.5,8.2-0.9c0.3-0.2,0.8-0.1,1,0.2c0.2,0.3,0.2,0.6-0.1,0.9c-0.1,0.1-2.8,2.8-9.9,5.9&#10;&#9;&#9;C240.5,209.5,240.4,209.5,240.3,209.5z M241.8,204.8l-0.6,2.8c1.8-0.8,3.5-1.7,5.1-2.8C244.9,205,243.3,205,241.8,204.8&#10;&#9;&#9;L241.8,204.8z"/>
	<path class="st1_family-2-56" d="M241.9,186.3c-0.3,0-0.5-0.2-0.6-0.4c-0.4-0.9-0.8-1.5-1.3-1.6c-0.6,0-1.1,0.3-1.4,0.7c-0.2,0.3-0.7,0.4-1,0.1&#10;&#9;&#9;c-0.3-0.2-0.4-0.7-0.1-1c0,0,0-0.1,0.1-0.1c0.7-0.8,1.7-1.2,2.7-1.2c1,0.2,1.8,1,2.4,2.5c0.1,0.4,0,0.8-0.4,0.9c0,0,0,0,0,0&#10;&#9;&#9;C242,186.3,241.9,186.3,241.9,186.3z"/>
	<path class="st1_family-2-56" d="M251.5,187.5c-0.3,0-0.6-0.2-0.7-0.4c-0.4-0.9-0.8-1.5-1.3-1.6c-0.6,0-1.1,0.3-1.4,0.7c-0.3,0.3-0.7,0.3-1,0.1&#10;&#9;&#9;c-0.3-0.2-0.3-0.7-0.1-1c0,0,0,0,0,0c0.7-0.8,1.7-1.2,2.7-1.2c1,0.2,1.8,1,2.4,2.5c0.1,0.4,0,0.8-0.4,0.9c0,0,0,0,0,0&#10;&#9;&#9;C251.7,187.5,251.6,187.5,251.5,187.5z"/>
	<polygon class="st0_family-2-56" points="244.1,276.3 204.2,268.1 204.2,210.2 244.1,218.4 &#9;"/>
	<path class="st1_family-2-56" d="M244.1,277h-0.1l-39.8-8.2c-0.3-0.1-0.6-0.4-0.6-0.7v-57.9c0-0.2,0.1-0.4,0.2-0.6c0.2-0.1,0.4-0.2,0.6-0.1&#10;&#9;&#9;l39.9,8.2c0.3,0.1,0.6,0.3,0.6,0.7v57.8c0,0.2-0.1,0.4-0.2,0.5C244.4,276.9,244.2,277,244.1,277z M204.9,267.5l38.4,7.9V219&#10;&#9;&#9;l-38.4-7.9V267.5z"/>
	<polygon class="st0_family-2-56" points="293.2,268.1 253.4,276.3 253.4,218.4 293.2,210.2 &#9;"/>
	<path class="st1_family-2-56" d="M253.4,277c-0.2,0-0.3-0.1-0.4-0.2c-0.2-0.1-0.3-0.3-0.3-0.5v-57.8c0-0.3,0.2-0.6,0.6-0.7l39.8-8.2&#10;&#9;&#9;c0.2,0,0.4,0,0.6,0.1c0.2,0.1,0.3,0.3,0.3,0.6v57.8c0,0.3-0.2,0.6-0.6,0.7l-39.9,8.2H253.4z M254.1,219v56.4l38.5-7.9v-56.4&#10;&#9;&#9;L254.1,219z M293.2,268L293.2,268z"/>
	<rect x="244.1" y="218.5" class="st0_family-2-56" width="9.3" height="57.8"/>
	<path class="st1_family-2-56" d="M253.4,277h-9.3c-0.4,0-0.7-0.3-0.7-0.7v-57.8c0-0.4,0.3-0.7,0.7-0.7h9.3c0.4,0,0.7,0.3,0.7,0.7v57.8&#10;&#9;&#9;C254.1,276.7,253.8,277,253.4,277C253.4,277,253.4,277,253.4,277z M244.8,275.6h7.9v-56.5h-7.9V275.6z"/>
	<path class="st2_family-2-56" d="M261.4,237.5c-0.2,0-0.3,0-0.4-0.1c-0.2-0.1-0.3-0.3-0.3-0.5l-0.3-10.1c0-0.3,0.2-0.6,0.5-0.7l27-6.3&#10;&#9;&#9;c0.2,0,0.4,0,0.6,0.1c0.2,0.1,0.3,0.4,0.2,0.6l-0.2,9.4c0,0.3-0.2,0.6-0.5,0.7l-26.4,6.9C261.5,237.5,261.5,237.5,261.4,237.5z&#10;&#9;&#9; M261.8,227.3l0.3,8.6l25.1-6.6l0.2-8L261.8,227.3z"/>
	<path class="st0_family-2-56" d="M285.5,232.5c0,0.2,0.1,0.5,0.3,0.7c0.2,0.2,0.5,0.2,0.8,0.2c1.1,0,2.2-0.4,3.2-1c-1.6,0.9-2.9,2.2-3.8,3.8&#10;&#9;&#9;c-0.4,0.5-0.5,1.1-0.3,1.7c0.4,0.8,1.5,0.9,2.4,0.6c0.9-0.3,1.8-0.7,2.5-1.2c-1.4,0.6-2.5,1.6-3.2,2.9c-0.1,0.2-0.1,0.4-0.1,0.5&#10;&#9;&#9;c0,0.2,0.3,0.3,0.5,0.4c1.3,0.5,2.8,0.2,3.8-0.8c-1,0.4-1.8,1-2.4,1.9c-0.5,0.3-0.6,0.9-0.3,1.4c0.2,0.3,0.4,0.4,0.7,0.5&#10;&#9;&#9;c2.8,1,6-0.7,7.4-3.3c2-3.6,2.5-10.8-1.4-13.4C292.6,225.3,285.2,228.4,285.5,232.5z"/>
	<path class="st1_family-2-56" d="M291.3,245.1c-0.7,0-1.3-0.1-1.9-0.4c-0.3-0.1-0.7-0.3-0.9-0.6c-0.4-0.6-0.4-1.5,0-2.1c-0.3,0-0.7-0.1-1-0.3&#10;&#9;&#9;c-0.7-0.2-1.1-0.9-0.9-1.6c0-0.1,0.1-0.2,0.2-0.4c0.1-0.2,0.2-0.4,0.3-0.6c-0.9,0.1-1.7-0.4-2.1-1.1c-0.2-0.8-0.1-1.6,0.3-2.3&#10;&#9;&#9;c0.3-0.6,0.7-1.2,1.2-1.7c-0.4,0-0.9-0.1-1.2-0.4c-0.3-0.3-0.5-0.7-0.5-1.1c-0.2-1.9,1-3.8,3.3-5.1s5.8-2.1,7.9-0.7&#10;&#9;&#9;c4.2,2.9,3.8,10.5,1.6,14.3C296.3,243.4,293.9,244.9,291.3,245.1z M290.5,241.8c-0.3,0.2-0.5,0.5-0.7,0.8c-0.2,0.3-0.2,0.6-0.2,0.7&#10;&#9;&#9;c0.1,0.1,0.2,0.1,0.3,0.1c2.5,0.9,5.4-0.8,6.6-3c1.9-3.4,2.3-10.1-1.2-12.4c-1.4-0.9-4.2-0.6-6.4,0.7c-1.8,1-2.7,2.4-2.6,3.8l0,0&#10;&#9;&#9;c0,0.1,0,0.1,0,0.2c0,0,0,0,0.2,0h0.1c0.9,0,1.7-0.2,2.5-0.6l0.5-0.3c0.3-0.2,0.8,0,0.9,0.3c0.2,0.3,0.1,0.7-0.2,0.9l-0.5,0.3&#10;&#9;&#9;c-1.3,0.8-2.3,1.9-3.1,3.2c-0.3,0.5-0.4,0.8-0.3,1.1s0.9,0.4,1.5,0.2c0.3-0.1,0.6-0.2,0.9-0.3c0.5-0.4,1-0.7,1.6-0.9&#10;&#9;&#9;c0.4-0.1,0.8,0,0.9,0.4c0.1,0.3,0,0.6-0.2,0.8c-0.5,0.3-1,0.6-1.5,0.9c-0.6,0.5-1.1,1.1-1.5,1.8l0,0c0.6,0.2,1.2,0.3,1.7,0.1&#10;&#9;&#9;c0.5-0.4,1-0.7,1.5-0.9c0.4-0.1,0.8,0,0.9,0.4c0.1,0.3,0,0.5-0.2,0.7C291.7,241.2,291.1,241.6,290.5,241.8L290.5,241.8z&#10;&#9;&#9; M286.3,232.7L286.3,232.7z"/>
	<path class="st0_family-2-56" d="M214.4,233.6c0,0.2-0.1,0.5-0.3,0.7c-0.2,0.2-0.5,0.2-0.8,0.2c-1.1,0-2.2-0.4-3.2-1c1.6,0.9,2.9,2.2,3.8,3.8&#10;&#9;&#9;c0.4,0.5,0.5,1.1,0.3,1.7c-0.4,0.8-1.5,0.9-2.4,0.6c-0.9-0.3-1.8-0.7-2.6-1.2c1.4,0.5,2.5,1.6,3.2,2.9c0.1,0.2,0.1,0.4,0.1,0.5&#10;&#9;&#9;c-0.1,0.2-0.3,0.4-0.5,0.4c-1.3,0.5-2.8,0.2-3.8-0.8c1,0.4,1.8,1,2.4,1.9c0.4,0.4,0.4,1,0.2,1.5c-0.2,0.2-0.4,0.3-0.6,0.4&#10;&#9;&#9;c-2.8,1-6-0.7-7.4-3.3c-2-3.6-2.5-10.8,1.4-13.4C207.4,226.4,214.8,229.5,214.4,233.6z"/>
	<path class="st1_family-2-56" d="M208.6,246.1c-2.7-0.1-5.1-1.6-6.4-3.9c-2.2-3.8-2.6-11.4,1.6-14.3c2.1-1.4,5.6-0.7,7.9,0.7s3.5,3.2,3.3,5.1&#10;&#9;&#9;l0,0c0,0.4-0.2,0.8-0.5,1.1c-0.3,0.3-0.8,0.4-1.2,0.4c0.5,0.5,0.9,1.1,1.2,1.7c0.5,0.7,0.6,1.5,0.3,2.3c-0.4,0.8-1.2,1.2-2.1,1.2&#10;&#9;&#9;c0.1,0.2,0.2,0.4,0.3,0.6c0.4,0.6,0.2,1.4-0.4,1.8c-0.1,0.1-0.2,0.1-0.3,0.2c-0.3,0.1-0.7,0.2-1,0.3c0.5,0.6,0.5,1.5,0,2.1&#10;&#9;&#9;c-0.2,0.3-0.5,0.5-0.9,0.6C209.9,246,209.3,246.1,208.6,246.1z M206.8,228.5c-0.8,0-1.5,0.2-2.1,0.6c-3.5,2.3-3.1,9.1-1.2,12.4&#10;&#9;&#9;c1.2,2.1,4.1,3.9,6.6,3c0.2-0.1,0.3-0.1,0.3-0.1s0-0.3-0.2-0.7c-0.2-0.3-0.4-0.6-0.7-0.8c-0.6-0.2-1.2-0.5-1.6-1&#10;&#9;&#9;c-0.2-0.2-0.3-0.6-0.1-0.9c0.2-0.3,0.5-0.4,0.8-0.3c0.6,0.2,1.1,0.5,1.6,0.9c0.6,0.2,1.2,0.1,1.7-0.1l0,0c-0.3-0.7-0.8-1.3-1.5-1.8&#10;&#9;&#9;c-0.5-0.2-1-0.5-1.5-0.9c-0.3-0.2-0.4-0.6-0.2-0.9c0.2-0.3,0.5-0.5,0.9-0.3c0.6,0.2,1.1,0.5,1.6,0.9c0.3,0.1,0.6,0.2,0.9,0.3&#10;&#9;&#9;c0.6,0.2,1.4,0.1,1.5-0.2c0.1-0.2,0-0.6-0.3-1.1c-0.7-1.3-1.8-2.4-3.1-3.3c-0.2-0.1-0.3-0.2-0.5-0.3c-0.3-0.2-0.4-0.7-0.1-1&#10;&#9;&#9;c0.2-0.3,0.5-0.3,0.8-0.2c0.2,0.1,0.3,0.2,0.5,0.3c0.7,0.4,1.6,0.6,2.4,0.6c0.1,0,0.2,0,0.3,0c0-0.1,0-0.1,0-0.2l0,0&#10;&#9;&#9;c0.1-1.3-0.9-2.7-2.6-3.8C209.8,229,208.3,228.5,206.8,228.5L206.8,228.5z"/>
	<path class="st0_family-2-56" d="M195.3,110c0,0,2.9,33,6.1,40.5l-30.1,3.4l7.2-50.2L195.3,110z"/>
	<path class="st1_family-2-56" d="M171.3,154.5c-0.2,0-0.4-0.1-0.5-0.2c-0.2-0.2-0.2-0.4-0.2-0.6l7.2-50.2c0-0.2,0.2-0.4,0.3-0.5&#10;&#9;&#9;c0.2-0.1,0.4-0.1,0.6-0.1l16.8,6.3c0.3,0.1,0.4,0.3,0.4,0.6c0,0.3,3,33,6,40.3c0.1,0.2,0.1,0.4-0.1,0.6c-0.1,0.2-0.3,0.3-0.5,0.3&#10;&#9;&#9;L171.3,154.5L171.3,154.5z M179,104.6l-6.9,48.4l28.3-3.2c-2.8-8.4-5.4-35.4-5.8-39.4L179,104.6z"/>
	<path class="st0_family-2-56" d="M180.6,145.7l-0.3,14.3c0,0-0.5,8.9-9.4,5.8c-5.3-1.9-9.4-6-11.3-11.3l2.6-25.6c0.1-1.1,1.2-11.6,1.6-21&#10;&#9;&#9;c10.9,0.5,20.8,0.2,20.8,0.2c-1.1,1,2.8,1.4,2.7,1.4c1.8,0.1,3.5,0.5,5.1,1.1c0.2,6.3,1.5,13.3,1,19.5c-0.3,3.7-0.9,7.4-1.8,11.1&#10;&#9;&#9;C189.7,148.2,180.6,145.7,180.6,145.7z"/>
	<path class="st1_family-2-56" d="M174.3,167.2c-1.2,0-2.4-0.3-3.6-0.7c-5.5-1.9-9.8-6.3-11.7-11.8c0-0.1,0-0.2,0-0.2c0,0,2.6-25.4,2.6-25.5&#10;&#9;&#9;c0.4-3.7,1.2-12.8,1.6-21c0-0.2,0.1-0.3,0.2-0.4c0.1-0.1,0.3-0.2,0.5-0.2c10.8,0.5,20.6,0.2,20.7,0.2c0.3,0,0.5,0.2,0.6,0.4&#10;&#9;&#9;c0.1,0.2,0.1,0.3,0,0.5c0.7,0.3,1.5,0.4,2.2,0.5l0,0c1.8,0.1,3.6,0.5,5.3,1.2c0.2,0.1,0.4,0.3,0.4,0.6c0.1,2.2,0.3,4.6,0.5,6.9&#10;&#9;&#9;c0.5,4.2,0.7,8.5,0.5,12.7c-0.3,3.8-0.9,7.5-1.8,11.2c-1.5,5.5-7.5,5.8-11,5.1l-0.3,13.5c0,0.2-0.3,4.2-3.1,6.1&#10;&#9;&#9;C176.8,166.9,175.6,167.2,174.3,167.2z M160.3,154.5c1.9,5,5.8,9,10.9,10.8c2.5,0.9,4.5,0.8,5.9-0.2c2.4-1.6,2.6-5.1,2.6-5.1&#10;&#9;&#9;l0.3-14.3c0-0.2,0.1-0.4,0.2-0.5c0.2-0.1,0.4-0.2,0.6-0.1c0.4,0.1,8.6,2.2,10.2-4c0.9-3.6,1.5-7.3,1.8-11c0.2-4.2,0-8.3-0.5-12.5&#10;&#9;&#9;c-0.2-2.2-0.4-4.4-0.5-6.6c-1.5-0.5-3-0.8-4.6-0.9c-3-0.3-3.4-1.1-3.5-1.4c-2.5,0.1-10.6,0.2-19.4-0.2c-0.4,8-1.2,16.8-1.6,20.3&#10;&#9;&#9;C162.8,129.1,162.8,129.1,160.3,154.5L160.3,154.5z"/>
	<path class="st0_family-2-56" d="M180.1,123.9c0,0,4.3,7.4,3.1,8.6s-4.3,0.1-4.3,0.1"/>
	<path class="st1_family-2-56" d="M181.4,133.7c-0.9,0-1.8-0.2-2.7-0.4c-0.4-0.1-0.5-0.5-0.4-0.9c0.1-0.3,0.5-0.5,0.8-0.4c0.9,0.3,2.9,0.7,3.6,0&#10;&#9;&#9;c0.3-0.6-1.2-4.2-3.2-7.7c-0.2-0.3-0.1-0.8,0.2-1c0.3-0.2,0.8-0.1,1,0.3l0,0c2.1,3.6,4.3,8.1,3,9.4&#10;&#9;&#9;C183,133.5,182.2,133.8,181.4,133.7z"/>
	
		<ellipse transform="matrix(2.146596e-02 -0.9998 0.9998 2.146596e-02 57.8938 306.362)" class="st1_family-2-56" cx="185.5" cy="123.6" rx="1.5" ry="0.8"/>
	
		<ellipse transform="matrix(2.146596e-02 -0.9998 0.9998 2.146596e-02 46.7383 294.7953)" class="st1_family-2-56" cx="174" cy="123.5" rx="1.5" ry="0.8"/>
	<path class="st0_family-2-56" d="M184.9,118.1l-0.8-3.2l-1.9,3.1l-9.4,0.4l-1.5-4.2l-1,5l-4.7-0.7c0,0,3.2,23.8-0.5,37.1c0,0-27.8,0.6-33.3-5.7&#10;&#9;&#9;c0,0,14.1-24.7,16.4-35.4s5.2-19.6,19.1-21.3s22.6,2.1,27.7,9.6c3.1,4.6,4.1,10.3,2.8,15.7C197.9,118.4,187.6,118.5,184.9,118.1z"/>
	<path class="st1_family-2-56" d="M163,156.2c-6.7,0-26.9-0.5-31.7-6c-0.2-0.2-0.2-0.5-0.1-0.8c0.1-0.2,14.1-24.7,16.4-35.2&#10;&#9;&#9;c2.4-10.9,5.5-20.1,19.7-21.8c13.2-1.6,22.7,1.7,28.4,9.9c3.2,4.8,4.3,10.7,2.9,16.3c-0.1,0.3-0.4,0.5-0.7,0.5&#10;&#9;&#9;c-0.4,0-10.4,0.1-13.2-0.3c-0.3,0-0.5-0.3-0.6-0.5l-0.4-1.5l-1,1.6c-0.1,0.2-0.3,0.3-0.6,0.3l-9.4,0.4c-0.3,0-0.6-0.2-0.7-0.5&#10;&#9;&#9;l-0.6-1.8l-0.5,2.5c-0.1,0.4-0.4,0.6-0.8,0.6l-3.8-0.6c0.6,4.6,2.7,24.5-0.6,36.4c-0.1,0.3-0.4,0.5-0.7,0.5&#10;&#9;&#9;C165,156.2,164.2,156.2,163,156.2z M132.7,149.7c5.5,5.2,28.1,5.2,31.9,5.1c3.4-13.1,0.4-36.1,0.4-36.3c0-0.2,0-0.4,0.2-0.6&#10;&#9;&#9;c0.2-0.2,0.4-0.2,0.6-0.2l4.1,0.6l0.9-4.3c0.1-0.4,0.5-0.6,0.8-0.5c0.2,0,0.4,0.2,0.5,0.4l1.3,3.7l8.5-0.3l1.7-2.8&#10;&#9;&#9;c0.2-0.2,0.4-0.4,0.7-0.3c0.3,0,0.5,0.3,0.6,0.5l0.6,2.7c2.7,0.3,9.9,0.2,11.9,0.2c1-5.1,0-10.3-2.8-14.6&#10;&#9;&#9;c-5.4-7.8-14.3-10.9-27.1-9.3c-13.3,1.6-16.1,10-18.5,20.7C146.7,124.5,134.7,146.1,132.7,149.7L132.7,149.7z"/>
	<path class="st0_family-2-56" d="M185.6,137.7c0,0-8.6,6.3-13.1-3.7"/>
	<path class="st1_family-2-56" d="M179.8,140.4c-0.7,0-1.3-0.1-2-0.2c-2.5-0.7-4.5-2.6-5.9-5.8c-0.1-0.4,0-0.8,0.4-0.9c0.4-0.2,0.8,0,0.9,0.4&#10;&#9;&#9;c1.2,2.8,2.9,4.5,5,5c3.5,0.9,7-1.6,7-1.6c0.3-0.2,0.8-0.1,1,0.2c0.2,0.3,0.1,0.7-0.1,0.9C184.1,139.6,182,140.3,179.8,140.4z"/>
	<path class="st1_family-2-56" d="M180.6,145.7c0,0-7.2-2-9.8-4.7c0,0,2.1,10.6,9.6,15.7L180.6,145.7z"/>
	<path class="st1_family-2-56" d="M180.3,157.4c-0.1,0-0.3,0-0.4-0.1c-7.7-5.2-9.8-15.6-9.9-16.1c-0.1-0.4,0.2-0.7,0.6-0.8c0.2,0,0.4,0,0.6,0.2&#10;&#9;&#9;c2.4,2.5,9.4,4.5,9.5,4.5c0.3,0.1,0.5,0.4,0.5,0.7l-0.2,11c0,0.3-0.2,0.5-0.4,0.6C180.6,157.4,180.4,157.4,180.3,157.4z M172,142.9&#10;&#9;&#9;c0.9,3,3.2,8.8,7.7,12.5l0.2-9.1C177.1,145.5,174.5,144.3,172,142.9z"/>
	<path class="st1_family-2-56" d="M55.9,173.7c-0.3,0-0.5-0.2-0.6-0.4c-1.5-3-1.4-6.6,0.3-9.5c0.2-0.3,0.6-0.4,1-0.2s0.4,0.6,0.2,1l0,0&#10;&#9;&#9;c-1.4,2.5-1.5,5.5-0.2,8.1c0.2,0.3,0,0.8-0.3,0.9c0,0,0,0,0,0C56.1,173.7,56,173.7,55.9,173.7z"/>
	<path class="st0_family-2-56" d="M126,213.3c0,0,12-15.4,19.8-25"/>
	<path class="st1_family-2-56" d="M126,214c-0.2,0-0.3-0.1-0.4-0.1c-0.3-0.2-0.4-0.7-0.1-1c0,0,0,0,0,0c0.1-0.1,12.1-15.5,19.8-25&#10;&#9;&#9;c0.2-0.3,0.7-0.3,1-0.1s0.3,0.7,0.1,1l0,0c-7.6,9.4-19.7,24.8-19.8,25C126.4,213.9,126.2,214,126,214z"/>
	<line class="st4_family-2-56" x1="194.9" y1="179.1" x2="196.6" y2="243.3"/>
	<path class="st1_family-2-56" d="M196.6,244c-0.4,0-0.7-0.3-0.7-0.7l-1.6-64.2c0-0.4,0.3-0.7,0.7-0.7c0,0,0,0,0,0c0.4,0,0.7,0.3,0.7,0.7&#10;&#9;&#9;c0,0,0,0,0,0l1.6,64.2C197.3,243.7,197,244,196.6,244C196.6,244,196.6,244,196.6,244L196.6,244z"/>
	<path class="st0_family-2-56" d="M256.8,157.6c0,0-9.1,11.5-2.2,9.3s9.4-6.2,9.4-6.2"/>
	<path class="st1_family-2-56" d="M253.1,167.9c-0.6,0-1.2-0.2-1.5-0.7c-1.4-2,2.8-7.7,4.6-10c0.2-0.3,0.7-0.4,1-0.1c0,0,0,0,0,0&#10;&#9;&#9;c0.3,0.2,0.4,0.7,0.1,1c0,0,0,0,0,0c-2.9,3.7-5.1,7.6-4.6,8.4c0,0.1,0.5,0.2,1.6-0.2c6.5-2.1,9-5.9,9-5.9c0.2-0.3,0.6-0.4,1-0.2&#10;&#9;&#9;c0.3,0.2,0.4,0.6,0.2,1c-0.1,0.2-2.7,4.3-9.8,6.5C254.3,167.8,253.7,167.9,253.1,167.9z"/>
	<path class="st0_family-2-56" d="M310.6,183.6c0,0,1.7,55.3,1.2,59.2"/>
	<path class="st1_family-2-56" d="M311.9,243.5L311.9,243.5c-0.5,0-0.7-0.4-0.7-0.8c0,0,0,0,0,0c0.4-3.9-1.2-58.6-1.3-59.1&#10;&#9;&#9;c0-0.4,0.3-0.7,0.7-0.7c0,0,0,0,0,0c0.4,0,0.7,0.3,0.7,0.7c0.1,2.3,1.7,55.4,1.2,59.3C312.5,243.2,312.2,243.5,311.9,243.5z"/>
	<line class="st4_family-2-56" x1="363.6" y1="187.6" x2="399.4" y2="215.1"/>
	<path class="st1_family-2-56" d="M399.4,215.8c-0.2,0-0.3-0.1-0.4-0.1l-35.9-27.5c-0.3-0.3-0.3-0.7-0.1-1c0.2-0.3,0.6-0.3,0.9-0.1l35.9,27.5&#10;&#9;&#9;c0.3,0.2,0.4,0.7,0.1,1C399.9,215.7,399.7,215.8,399.4,215.8z"/>
	<path class="st0_family-2-56" d="M342.2,99.4c-0.4-0.1-0.7-0.2-1.1-0.3c-2.5-5.1-8.3-6.5-13.4-5.2c-9.8,2.5-23.7,2-27.6,13.6&#10;&#9;&#9;c-5.7,17,14.3,18.3,25.1,21.5c6.7,2,15.6,3.1,21.7-1.4c4.7-3.5,5.4-10.3,4.5-15.6c-0.5-3-1.6-5.8-3.2-8.3c-0.7-1.2-1.6-2.2-2.6-3.1&#10;&#9;&#9;C344.5,100.1,343.3,99.7,342.2,99.4z"/>
	<path class="st1_family-2-56" d="M336.1,131.4c-3.8-0.1-7.5-0.7-11.1-1.8c-1.7-0.5-3.6-0.9-5.6-1.4c-7.7-1.8-16.4-3.9-19.7-9.9&#10;&#9;&#9;c-1.7-3-1.8-6.7-0.3-11.1c3.2-9.5,12.8-11.2,21.4-12.7c2.4-0.4,4.6-0.8,6.7-1.3c5-1.3,11.3-0.2,14.1,5.3l0.7,0.2l-0.1,0.7l0.2-0.7&#10;&#9;&#9;c1.3,0.3,2.5,0.7,3.6,1.3c1.1,0.9,2.1,2,2.8,3.2c1.7,2.6,2.8,5.5,3.3,8.6c0.5,2.7,1.4,11.8-4.7,16.3&#10;&#9;&#9;C344.1,130.5,340.1,131.6,336.1,131.4z M331.3,94.2c-1.2,0-2.3,0.2-3.5,0.4c-2.1,0.6-4.4,1-6.8,1.4c-8.5,1.5-17.4,3-20.3,11.7&#10;&#9;&#9;c-1.4,4-1.3,7.3,0.2,10c3,5.4,11.4,7.4,18.8,9.2c2,0.5,3.9,0.9,5.6,1.4c6.3,1.9,15.1,3.2,21.1-1.3c4.4-3.2,5-9.8,4.2-15&#10;&#9;&#9;c-0.5-2.9-1.5-5.6-3.1-8.1c-0.7-1.1-1.5-2.1-2.5-2.9c-1-0.4-2.1-0.7-3.2-1l0,0l0.2-0.7l-0.3,0.7c-1.2-0.4-1.3-0.4-1.4-0.7&#10;&#9;&#9;C338.6,95.7,335,94.2,331.3,94.2z"/>
	<path class="st0_family-2-56" d="M323,148.5l1,12.4c0,0,0.4,6.9,10.9,5.1c9.1-1.6,13.3-12.9,13.3-12.9l-5-25.9c0,0-8.3-2.6-9.2-19.2&#10;&#9;&#9;c-7.6,5.1-16.4,8.1-25.5,8.7c0,0-1.2,18.5,1.5,26.1S323,148.5,323,148.5z"/>
	<path class="st1_family-2-56" d="M331.6,167c-2.1,0.1-4.2-0.5-5.9-1.8c-1.4-1.1-2.2-2.6-2.4-4.3l-0.9-11.6c-2.5,0.2-10.7,0.4-13.2-6.4&#10;&#9;&#9;c-2.7-7.6-1.6-25.6-1.5-26.4c0-0.4,0.3-0.6,0.6-0.7c9-0.5,17.7-3.5,25.2-8.5c0.2-0.2,0.5-0.2,0.7-0.1c0.2,0.1,0.4,0.3,0.4,0.6&#10;&#9;&#9;c0.9,15.9,8.6,18.6,8.7,18.6c0.2,0.1,0.4,0.3,0.5,0.5l5,25.9c0,0.1,0,0.2,0,0.4c-0.2,0.5-4.4,11.7-13.8,13.3&#10;&#9;&#9;C333.8,166.9,332.7,167,331.6,167z M323,147.8c0.2,0,0.3,0.1,0.4,0.1c0.2,0.1,0.3,0.3,0.3,0.5l1,12.4c0.2,1.3,0.9,2.5,1.9,3.4&#10;&#9;&#9;c1.8,1.4,4.5,1.8,8.1,1.1c8-1.4,12.1-10.8,12.7-12.2l-4.9-25.4c-1.7-0.7-8-4.4-9.1-18.5c-7.3,4.6-15.6,7.4-24.3,8&#10;&#9;&#9;c-0.2,3.2-0.9,18.6,1.5,25.2C313,149.4,322.8,147.8,323,147.8L323,147.8z"/>
	<path class="st1_family-2-56" d="M323.8,159c3.8-1.9,7.1-4.6,9.6-7.9c3.6-5.1,2.9-8.9,2.9-8.9s-7.1,5.9-13.3,6.3L323.8,159z"/>
	<path class="st1_family-2-56" d="M323.8,159.7c-0.1,0-0.2,0-0.4-0.1c-0.2-0.1-0.3-0.3-0.4-0.5l-0.8-10.5c0-0.2,0-0.4,0.2-0.5&#10;&#9;&#9;c0.1-0.1,0.3-0.2,0.5-0.2c5.9-0.4,12.8-6.1,12.9-6.2c0.2-0.2,0.4-0.2,0.7-0.1c0.2,0.1,0.4,0.3,0.5,0.5c0,0.2,0.8,4.2-3,9.5&#10;&#9;&#9;c-2.6,3.4-6,6.2-9.9,8.1C324,159.7,323.9,159.7,323.8,159.7z M323.7,149.1l0.7,8.8c3.3-1.8,6.2-4.2,8.4-7.2&#10;&#9;&#9;c1.6-2.1,2.6-4.6,2.8-7.1C333.5,145.1,328.5,148.5,323.7,149.1z"/>
	<path class="st1_family-2-56" d="M306,133.3c-2.1,0-3.9-1.5-4.2-3.6l-0.6-3.5c-0.4-2.4,1.2-4.6,3.5-5c0,0,0,0,0,0l7.6-1.3&#10;&#9;&#9;c1.1-0.2,2.3,0.1,3.2,0.7c0.9,0.7,1.6,1.7,1.8,2.8l0.6,3.5c0.4,2.4-1.2,4.6-3.5,5c0,0,0,0,0,0l0,0l-7.6,1.3&#10;&#9;&#9;C306.5,133.3,306.2,133.3,306,133.3z M313,121.3c-0.2,0-0.3,0-0.5,0l-7.6,1.3c-1.6,0.3-2.7,1.8-2.4,3.4l0.6,3.5&#10;&#9;&#9;c0.3,1.6,1.8,2.7,3.3,2.4c0,0,0,0,0,0l7.6-1.3c1.6-0.3,2.7-1.8,2.4-3.4c0,0,0,0,0,0l-0.6-3.5C315.6,122.3,314.4,121.3,313,121.3&#10;&#9;&#9;L313,121.3z M314.2,131.3L314.2,131.3z"/>
	<path class="st1_family-2-56" d="M323.2,130.3c-2.1,0-3.9-1.5-4.3-3.6l-0.6-3.5c-0.4-2.3,1.2-4.6,3.5-5c0,0,0,0,0,0l7.6-1.3&#10;&#9;&#9;c2.4-0.4,4.6,1.2,5,3.5l0.6,3.5c0.4,2.4-1.2,4.6-3.5,5c0,0,0,0,0,0l0,0l-7.6,1.3C323.7,130.3,323.5,130.3,323.2,130.3z&#10;&#9;&#9; M330.2,118.3c-0.2,0-0.3,0-0.5,0l-7.6,1.3c-0.8,0.1-1.5,0.6-1.9,1.2c-0.4,0.6-0.6,1.4-0.5,2.2l0.6,3.5c0.3,1.6,1.8,2.7,3.4,2.4&#10;&#9;&#9;c0,0,0,0,0,0l7.6-1.3l0,0c1.6-0.3,2.7-1.8,2.4-3.4l-0.6-3.5C332.9,119.3,331.7,118.3,330.2,118.3L330.2,118.3z M331.5,128.3&#10;&#9;&#9;L331.5,128.3z"/>
	<path class="st1_family-2-56" d="M316.8,125.5c-0.4,0-0.7-0.3-0.7-0.7c0-0.3,0.2-0.6,0.6-0.7l2-0.3c0.4-0.1,0.7,0.2,0.8,0.6&#10;&#9;&#9;c0.1,0.4-0.2,0.7-0.6,0.8l0,0l-2,0.3L316.8,125.5z"/>
	
		<ellipse transform="matrix(0.9718 -0.2358 0.2358 0.9718 -20.3401 79.7362)" class="st1_family-2-56" cx="323.2" cy="124.9" rx="1.3" ry="1.9"/>
	
		<ellipse transform="matrix(0.9263 -0.3767 0.3767 0.9263 -24.7215 126.4264)" class="st1_family-2-56" cx="310.9" cy="126.4" rx="1.3" ry="1.9"/>
	<path class="st1_family-2-56" d="M317.4,141.4c-1.2,0-2.3-0.1-3.5-0.2c-0.4,0-0.7-0.4-0.6-0.8c0-0.4,0.4-0.7,0.8-0.6c0,0,0,0,0.1,0&#10;&#9;&#9;c0.1,0,9.9,1.6,13.9-4c0.2-0.3,0.7-0.4,1-0.2c0,0,0,0,0,0c0.3,0.2,0.4,0.7,0.2,1c0,0,0,0,0,0C326.3,140.7,321,141.4,317.4,141.4z"/>
	<path class="st0_family-2-56" d="M318.5,126c0,0-1.9,7.2-0.4,8.4s4.9-0.3,4.9-0.3"/>
	<path class="st1_family-2-56" d="M319.7,135.6c-0.7,0-1.5-0.2-2.1-0.6c-1.7-1.4-0.3-7.3,0.1-9.1c0.1-0.4,0.5-0.6,0.8-0.5c0,0,0,0,0,0&#10;&#9;&#9;c0.4,0.1,0.6,0.5,0.5,0.8c-0.9,3.6-1.2,7.2-0.6,7.7c0.8,0.7,3,0.1,4.2-0.4c0.3-0.2,0.8-0.1,1,0.3c0.2,0.3,0.1,0.8-0.3,1&#10;&#9;&#9;c0,0-0.1,0-0.1,0.1C322.1,135.3,320.9,135.5,319.7,135.6z"/>
	<path class="st1_family-2-56" d="M344.4,123.5h-0.1l-10.4-1.5c-0.4-0.1-0.6-0.4-0.6-0.8s0.4-0.6,0.8-0.6l10.4,1.5c0.4,0.1,0.6,0.4,0.6,0.8&#10;&#9;&#9;C345.1,123.2,344.8,123.5,344.4,123.5z"/>
	<path class="st0_family-2-56" d="M337.9,125.3c0.1-1.5,0.6-2.8,1.6-3.9c1.3-1.7,3.3-2.9,5.5-3.2c2.1-0.2,3.9,1.6,4.6,3.5&#10;&#9;&#9;c0.6,1.8,0.6,3.7-0.1,5.4c-1.5,4-5.3,6.7-9.6,5.7"/>
	<path class="st1_family-2-56" d="M341.7,133.7c-0.7,0-1.3-0.1-2-0.2c-0.4-0.1-0.6-0.5-0.5-0.9c0.1-0.3,0.4-0.5,0.8-0.5c3.8,0.9,7.4-1.3,8.8-5.2&#10;&#9;&#9;c0.6-1.6,0.6-3.3,0.1-4.9c-0.6-1.6-2.2-3.2-3.9-3.1c-2,0.3-3.8,1.4-5,3c-0.8,1-1.3,2.2-1.4,3.5c0,0.4-0.3,0.7-0.7,0.7c0,0,0,0,0,0&#10;&#9;&#9;c-0.4,0-0.7-0.3-0.7-0.7c0,0,0,0,0,0c0.1-1.6,0.7-3.1,1.7-4.4c1.5-1.9,3.6-3.1,5.9-3.4c2.5-0.2,4.6,1.9,5.4,3.9&#10;&#9;&#9;c0.7,1.9,0.7,4-0.1,5.9C349,131.1,345.6,133.6,341.7,133.7z"/>
</g>
</svg>