<svg version="1.1" id="Layer_1" xmlns="http://www.w3.org/2000/svg" xmlns:xlink="http://www.w3.org/1999/xlink" x="0px" y="0px" viewBox="0 0 500 500" style="width: 158px;" xml:space="preserve" data-imageid="meditation-15" imageName="Meditation" class="illustrations_image">
<style type="text/css">
	.st0_meditation-15{fill:#D1D3D4;}
	.st1_meditation-15{fill:#FFFFFF;}
	.st2_meditation-15{fill:#231F20;}
	.st3_meditation-15{fill:#68E1FD;}
</style>
<g id="background_plant_meditation-15">
	<path class="st0_meditation-15" d="M66.4,340.3H43.2c-0.4,0-0.8-0.3-0.8-0.7c-1.5-16.2,10.4-30.6,26.7-32.1c2.5-0.2,5-0.1,7.5,0.3&#10;&#9;&#9;c-2.4-9.2,3.2-18.7,12.4-21.1c3.7-0.9,7.5-0.7,11,0.8c-0.1-14.5,3.7-28.7,11-41.3c5.8-9.9,16.1-19.9,28-18.1&#10;&#9;&#9;c6.7,1,12.2,5.7,16.7,9.5c0.4,0.2,0.5,0.7,0.3,1.1c-0.2,0.4-0.7,0.5-1.1,0.3c-0.1,0-0.1-0.1-0.2-0.1c-4.3-3.6-9.7-8.2-15.9-9.1&#10;&#9;&#9;c-11-1.7-20.8,7.8-26.3,17.3c-7.3,12.7-11,27.1-10.7,41.7c0,0.3-0.1,0.5-0.4,0.7c-0.2,0.1-0.5,0.1-0.8,0&#10;&#9;&#9;c-7.7-3.9-17.2-0.9-21.1,6.8c-1.9,3.8-2.2,8.2-0.9,12.2c0.1,0.4-0.1,0.9-0.5,1c-0.1,0-0.3,0-0.4,0c-15.1-3.2-29.9,6.4-33.1,21.5&#10;&#9;&#9;c-0.5,2.5-0.7,5.1-0.5,7.6h22.3c0.4,0,0.8,0.4,0.8,0.8c0,0.4-0.4,0.8-0.8,0.8V340.3z"/>
	<path class="st0_meditation-15" d="M126.6,223.5c-0.2,0-0.4-0.1-0.6-0.3c-8-9.1-18.8-15.3-30.6-17.8c-4.1-0.9-8.2-1.1-12.4-0.6&#10;&#9;&#9;c-0.4,0-0.8-0.3-0.9-0.7c-0.1-0.4,0.3-0.8,0.7-0.9c0,0,0,0,0,0c4.3-0.5,8.6-0.3,12.9,0.7c12.2,2.6,23.2,9,31.5,18.3&#10;&#9;&#9;c0.3,0.3,0.3,0.8-0.1,1.1c0,0,0,0,0,0C126.9,223.4,126.8,223.5,126.6,223.5z"/>
	<path class="st0_meditation-15" d="M89,220.2c-2.3,0-4.5-0.2-6.7-0.7c-8-1.5-15.2-5.4-22.1-9.1c-0.5-0.2-1-0.6-1.3-1.1c-0.5-1,0-2.1,1.3-3.2&#10;&#9;&#9;c6-4.6,14.1-10.1,23.2-11.6c8-1.4,18.4,0.8,23.8,8.5c0.3,0.4,0.2,0.9-0.2,1.1c-0.4,0.2-0.9,0.2-1.1-0.2c-5-7.2-14.8-9.1-22.2-7.9&#10;&#9;&#9;c-8.7,1.5-16.3,6.5-22.5,11.3c-0.6,0.5-1,1-0.9,1.2c0.2,0.2,0.3,0.3,0.6,0.4c6.9,3.6,14,7.4,21.7,8.9c8.5,1.7,16.5,0,21.8-4.4&#10;&#9;&#9;c0.3-0.3,0.8-0.4,1.1-0.1c0.3,0.3,0.4,0.8,0.1,1.1c-0.1,0.1-0.1,0.1-0.2,0.2C101.1,218.3,95.4,220.2,89,220.2z"/>
	<path class="st0_meditation-15" d="M461.4,344.5h-57.5c-0.4,0-0.8-0.4-0.8-0.8c0-0.4,0.4-0.8,0.8-0.8l0,0h56.5c-3.5-13-16.2-22.4-29.3-21.5&#10;&#9;&#9;c-0.4,0-0.8-0.3-0.8-0.7c0-0.1,0-0.3,0.1-0.4c3.9-7.4,0.6-18-7.1-22.6c-7.1-4.3-17.4-3.7-24.9,1.5c-0.4,0.3-0.8,0.2-1.1-0.2&#10;&#9;&#9;c-0.1-0.1-0.2-0.3-0.1-0.5c0.1-10.3-8.1-18.7-18.4-18.8c-2.3,0-4.6,0.4-6.8,1.2c-0.4,0.1-0.8-0.1-1-0.5c-0.1-0.4,0.1-0.8,0.5-1&#10;&#9;&#9;c10.4-4,22.1,1.3,26,11.7c0.7,1.9,1.2,3.9,1.3,5.9c8-4.9,18.1-5.3,25.5-0.8c7.9,4.8,11.5,15.5,8.2,23.5h0.4&#10;&#9;&#9;c13.5,0,26.3,10.1,29.5,23.8c0.1,0.4-0.2,0.9-0.6,1C461.5,344.5,461.4,344.5,461.4,344.5L461.4,344.5z"/>
	<path class="st0_meditation-15" d="M150.9,217.4c-0.4,0-0.7-0.2-0.8-0.6c-7.9-32.7-28.4-60.8-57-78.4c-0.4-0.3-0.5-0.8-0.2-1.1&#10;&#9;&#9;c0.3-0.4,0.8-0.5,1.1-0.2c29,17.8,49.7,46.3,57.7,79.4c0.1,0.4-0.1,0.9-0.5,1c0,0,0,0-0.1,0C151,217.4,150.9,217.4,150.9,217.4z"/>
	<path class="st0_meditation-15" d="M135.1,199.4c-0.1,0-0.3,0-0.4-0.1c-32.8-17.8-56.3-48.9-64.6-85.3c-0.1-0.2,0-0.5,0.2-0.7&#10;&#9;&#9;c0.2-0.2,0.4-0.3,0.7-0.3c7.7,0.3,15,3.8,21.5,6.8c10.9,5.1,22.3,10.4,31.8,18.4c14.1,11.8,23.9,29.4,27.6,49.6&#10;&#9;&#9;c0.1,0.4-0.2,0.9-0.7,0.9c-0.4,0.1-0.9-0.2-0.9-0.6l0,0c-3.6-19.8-13.2-37.1-27.1-48.7c-9.3-7.8-20.6-13.1-31.4-18.1&#10;&#9;&#9;c-6-2.8-12.8-6-19.8-6.6c8.4,35.5,31.5,65.7,63.5,83.2c0.4,0.2,0.5,0.7,0.3,1.1C135.6,199.3,135.4,199.4,135.1,199.4L135.1,199.4z"/>
	<path class="st0_meditation-15" d="M340.7,235.5c-0.1,0-0.2,0-0.4-0.1c-0.4-0.2-0.6-0.7-0.4-1.1c19-38.9,48.1-72.1,84.3-96&#10;&#9;&#9;c0.4-0.2,0.9-0.1,1.1,0.2c0.2,0.4,0.1,0.9-0.2,1.1c0,0,0,0,0,0c-35.9,23.8-64.8,56.7-83.7,95.4C341.3,235.4,341,235.5,340.7,235.5z&#10;&#9;&#9;"/>
	<path class="st0_meditation-15" d="M367.2,213.4c-0.3,0-0.6-0.2-0.7-0.5c-0.2-0.4,0-0.9,0.4-1.1c35.7-16.5,64.5-48.5,77.1-85.8&#10;&#9;&#9;c0.3-0.7,0.4-1.5,0.2-2.3c-0.5-1.1-2.4-1.1-3.5-1c-19.1,1.8-38.4,11.3-58.9,29.1s-31.4,35-33.5,52.9c-0.1,0.4-0.5,0.8-0.9,0.7&#10;&#9;&#9;c-0.4-0.1-0.8-0.5-0.7-0.9c2.2-18.3,13.3-36,34-53.9s40.4-27.7,59.9-29.5c3.4-0.3,4.7,0.9,5.1,2c0.4,1.1,0.3,2.4-0.2,3.4&#10;&#9;&#9;c-12.7,37.7-41.8,70.1-77.9,86.7C367.5,213.4,367.3,213.4,367.2,213.4z"/>
	<path class="st0_meditation-15" d="M330.9,229c-0.1,0-0.2,0-0.3-0.1c-0.4-0.2-0.6-0.6-0.5-1c2.4-6.2,2.9-13,3-19.4c0.7-39.8-10.1-78.9-31.1-112.7&#10;&#9;&#9;c-0.2-0.4-0.1-0.9,0.2-1.1s0.9-0.1,1.1,0.2c21.2,34,32.1,73.5,31.4,113.6c-0.1,6.6-0.6,13.5-3.1,19.9&#10;&#9;&#9;C331.5,228.8,331.2,229,330.9,229z"/>
	<path class="st0_meditation-15" d="M323.7,198.1c-0.2,0-0.4-0.1-0.5-0.2c-32.9-31.1-44.7-82.4-28.8-124.8c0.1-0.2,0.3-0.4,0.5-0.5&#10;&#9;&#9;c0.2-0.1,0.5-0.1,0.7,0.1c37.3,23.3,57.6,69.8,49.3,113.1c-0.1,0.4-0.5,0.7-0.9,0.7c-0.4-0.1-0.7-0.5-0.7-0.9c0,0,0,0,0-0.1&#10;&#9;&#9;c8.1-42.3-11.5-87.7-47.7-110.9c-15.2,41.6-3.5,91.7,28.7,122.1c0.3,0.3,0.3,0.8,0,1.1C324.2,198,324,198.1,323.7,198.1&#10;&#9;&#9;L323.7,198.1z"/>
	<path class="st0_meditation-15" d="M168.4,194.9h-0.1c-0.4-0.1-0.7-0.5-0.7-0.9c2.5-14.8,7.2-29,14-42.4c0.9-1.8,1.9-3.5,3.1-5.1&#10;&#9;&#9;c0.3-0.3,0.8-0.3,1.1,0c0.2,0.3,0.3,0.7,0.1,1c-1.1,1.5-2.1,3.1-2.9,4.8c-6.7,13.2-11.4,27.3-13.8,41.9&#10;&#9;&#9;C169.1,194.6,168.8,194.9,168.4,194.9z"/>
	<path class="st0_meditation-15" d="M180.6,181.5c-0.2,0-0.4-0.1-0.6-0.2c-0.3-0.3-0.3-0.8,0-1.1c13.2-12.6,17.8-33.9,10.7-50.8&#10;&#9;&#9;c-0.2-0.4-0.2-0.5-0.3-0.5s-0.1-0.1-0.6,0.2c-1.9,1.2-3.6,2.7-5.2,4.3c-7.4,7.1-12.1,13.5-14.8,20.1c-3.5,8.4-3.5,17.1-0.1,24&#10;&#9;&#9;c0.2,0.4,0,0.9-0.4,1.1c-0.4,0.2-0.9,0-1.1-0.4l0,0c-3.6-7.3-3.6-16.5,0.1-25.4c2.8-6.8,7.6-13.4,15.2-20.6&#10;&#9;&#9;c1.7-1.7,3.5-3.2,5.4-4.5c0.8-0.7,2-0.7,2.7,0.1c0.2,0.2,0.4,0.5,0.5,0.9c7.3,17.4,2.7,39.5-11.1,52.6&#10;&#9;&#9;C180.9,181.4,180.8,181.5,180.6,181.5z"/>
</g>
<g id="carpet_meditation-15">
	<polygon class="st1_meditation-15" points="434.3,426.6 38.7,426.6 81.8,343.6 391.2,343.6 &#9;"/>
	<path class="st0_meditation-15" d="M434.3,427.4H38.7c-0.3,0-0.5-0.2-0.7-0.4c-0.1-0.2-0.1-0.5,0-0.8l43.1-83c0.1-0.3,0.4-0.4,0.7-0.4h309.4&#10;&#9;&#9;c0.3,0,0.6,0.2,0.7,0.4l43.1,83c0.1,0.2,0.1,0.5,0,0.8C434.9,427.3,434.6,427.4,434.3,427.4z M40,425.8h393l-42.3-81.4H82.3&#10;&#9;&#9;L40,425.8z"/>
	<path class="st0_meditation-15" d="M82.6,427.4c-0.1,0-0.2,0-0.3-0.1c-0.4-0.2-0.6-0.6-0.4-1l33.5-83c0.2-0.4,0.7-0.6,1.1-0.4&#10;&#9;&#9;c0.4,0.2,0.5,0.6,0.4,1l-33.5,83C83.2,427.2,83,427.4,82.6,427.4z"/>
	<path class="st0_meditation-15" d="M126.6,427.4c-0.1,0-0.2,0-0.2,0c-0.4-0.1-0.7-0.6-0.5-1c0,0,0,0,0,0l24-83c0.1-0.4,0.5-0.7,0.9-0.6&#10;&#9;&#9;c0.4,0.1,0.7,0.5,0.6,0.9c0,0.1,0,0.1,0,0.2l-24,83C127.3,427.2,126.9,427.4,126.6,427.4z"/>
	<path class="st0_meditation-15" d="M170.6,427.4h-0.1c-0.4-0.1-0.7-0.5-0.6-0.9l14.4-83c0.1-0.4,0.5-0.7,0.9-0.6c0.4,0.1,0.7,0.5,0.7,0.9&#10;&#9;&#9;c0,0,0,0,0,0l-14.4,83C171.3,427.1,170.9,427.4,170.6,427.4z"/>
	<path class="st0_meditation-15" d="M214.5,427.4L214.5,427.4c-0.4,0-0.8-0.4-0.8-0.8c0,0,0,0,0,0l4.8-83c0-0.4,0.4-0.8,0.8-0.8c0,0,0,0,0,0&#10;&#9;&#9;c0.4,0,0.8,0.4,0.8,0.9l-4.8,83C215.3,427.1,214.9,427.4,214.5,427.4z"/>
	<path class="st0_meditation-15" d="M258.5,427.4c-0.4,0-0.8-0.3-0.8-0.8l-4.8-83c0-0.4,0.3-0.8,0.7-0.8c0,0,0,0,0,0l0,0c0.4,0,0.8,0.3,0.8,0.8&#10;&#9;&#9;l4.8,83C259.2,427,258.9,427.4,258.5,427.4C258.5,427.4,258.5,427.4,258.5,427.4L258.5,427.4z"/>
	<path class="st0_meditation-15" d="M302.4,427.4c-0.4,0-0.7-0.3-0.8-0.7l-14.4-83c-0.1-0.4,0.2-0.9,0.6-0.9s0.9,0.2,0.9,0.6l14.4,83&#10;&#9;&#9;c0.1,0.4-0.2,0.8-0.7,0.9L302.4,427.4z"/>
	<path class="st0_meditation-15" d="M346.4,427.4c-0.4,0-0.7-0.2-0.8-0.6l-24-83c-0.2-0.4,0-0.9,0.4-1s0.9,0,1,0.4c0,0,0,0.1,0,0.2l24,83&#10;&#9;&#9;c0.1,0.4-0.1,0.9-0.5,1c0,0,0,0,0,0L346.4,427.4z"/>
	<path class="st0_meditation-15" d="M389.6,425.6c-0.3,0-0.6-0.2-0.7-0.5l-33.2-82.3c-0.2-0.4,0-0.9,0.4-1c0.4-0.2,0.9,0,1,0.4l33.2,82.3&#10;&#9;&#9;c0.1,0.4-0.1,0.8-0.5,1C389.8,425.6,389.7,425.6,389.6,425.6z"/>
</g>
<g id="Character_meditation-15">
	<path class="st2_meditation-15" d="M268.8,121.8c-0.1-5-0.7-10.2-3.4-14.4c-4-6.3-11.7-8.9-18.8-11.1c-8.1-2.5-16.9-4.9-24.8-2&#10;&#9;&#9;c-2.6,1-5,2.4-7.1,4.1c-4.1,3.1-7.7,7.1-9.6,12s-1.6,10.6,1.4,14.8c6.2,8.6,20.9,7.8,25.9,17.1c1.6,3.1,1.9,6.8,4,9.6&#10;&#9;&#9;c1.4,1.7,3.2,3,5.3,3.9c4.2,2,9.2,3.1,13.5,1.5C269.2,152.1,269.1,133.9,268.8,121.8z"/>
	<path class="st2_meditation-15" d="M250.7,158.8c-3.2-0.1-6.4-0.9-9.3-2.4c-2.1-0.9-4.1-2.3-5.6-4.1c-1.2-1.7-2-3.6-2.5-5.7&#10;&#9;&#9;c-0.4-1.4-0.9-2.7-1.5-4c-2.5-4.6-7.5-6.6-12.8-8.8c-4.9-2-10-4-13-8.3s-3.6-10.1-1.5-15.6c1.7-4.5,5-8.6,9.8-12.3&#10;&#9;&#9;c2.2-1.8,4.7-3.2,7.4-4.2c8.5-3.1,18.2-0.1,25.3,2c7.9,2.4,15.2,5.1,19.3,11.4c2.8,4.4,3.4,10,3.5,14.8&#10;&#9;&#9;c0.3,10.7,0.8,30.7-14.1,36.2C254,158.6,252.4,158.8,250.7,158.8z M229.7,93.7c-2.6,0-5.2,0.4-7.6,1.3c-2.5,1-4.9,2.3-7,4&#10;&#9;&#9;c-4.6,3.5-7.7,7.4-9.3,11.6c-1.9,5-1.4,10.4,1.3,14.1c2.8,3.9,7.7,5.8,12.4,7.7c5.3,2.1,10.9,4.4,13.6,9.5c0.7,1.4,1.2,2.8,1.6,4.3&#10;&#9;&#9;c0.5,1.8,1.2,3.6,2.3,5.2c1.3,1.6,3.1,2.9,5,3.6c3.4,1.6,8.4,3.2,12.9,1.5c13.8-5.1,13.3-24.4,13-34.7l0,0c-0.1-4.6-0.6-9.9-3.2-14&#10;&#9;&#9;c-3.7-5.9-10.8-8.4-18.4-10.7C240.4,95.2,234.9,93.7,229.7,93.7L229.7,93.7z"/>
	<path class="st2_meditation-15" d="M196,322.2l-1.8,6.4c0,0-75.7-7-82.4,5s27.9,51.2,97.8,53.9s163.1-23.4,168.5-46.9s-88.7-14.9-88.7-14.9&#10;&#9;&#9;l-1.8-8.1C287.5,317.7,208.2,323.5,196,322.2z"/>
	<path class="st2_meditation-15" d="M219.9,388.5c-3.5,0-7-0.1-10.4-0.2c-24.2-0.9-46.7-6.4-65.2-15.9c-14.8-7.6-26.2-17.3-31.5-26.8&#10;&#9;&#9;c-2.8-5-3.4-9.4-1.7-12.4c6.7-11.8,74.6-6.2,82.6-5.5l1.6-5.8c0.1-0.4,0.5-0.6,0.9-0.6c12,1.3,90.6-4.5,91.3-4.5&#10;&#9;&#9;c0.4,0,0.8,0.2,0.8,0.6l1.6,7.4c8-0.7,74.5-5.9,87,8.4c1.8,2,2.6,4.8,1.9,7.5C373.6,363.7,288.8,388.5,219.9,388.5z M151.5,327.4&#10;&#9;&#9;c-18.7,0-36.2,1.5-39,6.6c-1.4,2.5-0.8,6.3,1.8,10.9c8.8,15.7,41.4,39.7,95.4,41.8c68.3,2.7,162.3-23.3,167.6-46.2&#10;&#9;&#9;c0.6-2.2,0-4.4-1.5-6.1c-12.5-14.4-85.6-7.9-86.4-7.8c-0.4,0-0.8-0.2-0.9-0.6l-1.6-7.4c-8.2,0.6-76.8,5.6-90.3,4.5l-1.6,5.8&#10;&#9;&#9;c-0.1,0.4-0.5,0.6-0.8,0.6C184.6,328.5,167.6,327.4,151.5,327.4L151.5,327.4z"/>
	<path class="st1_meditation-15" d="M111.8,333.6c1.9-3.4,17.1-7.5,42.8,0s108.1,44.5,113.5,47.1s28.2,6.8,26.7,13.5s-50.4-5.6-54.5-7.6&#10;&#9;&#9;s-53.8,6.9-97.3-9.5C104.3,362.6,107.3,341.5,111.8,333.6z"/>
	<path class="st2_meditation-15" d="M288.4,397c-14,0-44.8-8-48.4-9.7c-0.9-0.4-5.6-0.2-11,0.1c-17.5,0.9-53.8,2.7-86.3-9.5&#10;&#9;&#9;c-18-6.8-29.1-15.6-32.9-26.2c-2.3-6-1.8-12.8,1.2-18.4c2.2-3.8,17.7-8,43.7-0.4s108.7,44.8,113.7,47.1c2.3,0.9,4.7,1.7,7.2,2.4&#10;&#9;&#9;c9.5,2.8,21.2,6.3,20,12c-0.2,0.8-0.8,1.5-1.6,1.8C292.3,396.8,290.4,397.1,288.4,397z M237.3,385.5c1.2-0.1,2.3,0,3.4,0.4&#10;&#9;&#9;c4.1,2,45.6,12.3,52.7,8.9c0.4-0.2,0.7-0.4,0.7-0.7c0.9-4.2-11.5-7.9-18.9-10.1c-2.5-0.7-5-1.5-7.4-2.5&#10;&#9;&#9;c-5-2.4-87.4-39.5-113.4-47.1c-25.4-7.4-40.2-3.3-41.9-0.4c-2.8,5.3-3.2,11.5-1.1,17.1c3.6,10,14.7,18.8,32,25.3&#10;&#9;&#9;c32.1,12.1,68.3,10.3,85.6,9.4C232.7,385.6,235.4,385.5,237.3,385.5z M111.8,333.6L111.8,333.6z"/>
	<path class="st1_meditation-15" d="M166.3,223.5l-14.2,53.7L129,250.2c0,0-4-6.6-6.5-7.5c-3-1.1-11.8-3.1-15.9-6.5s-10.1-2.9-10.4-0.3&#10;&#9;&#9;c-0.5,3.5,8.5,7.6,10.7,9.4c-2.6,1.1-6.5,0.7-9.3,0.2c-1.1-0.1-2.1-0.5-2.9-1.2c-2.3-2.1,1.1-5.4,0.5-7.9c-0.6-2.1-2.9-3.3-5-2.7&#10;&#9;&#9;c-0.3,0.1-0.6,0.2-0.8,0.3c-2,1.3-2.3,4-3.2,6.2c-2,4.7-7.1,7.3-9,11.9c-2.2,5.2,2,9.3,7.4,8.9c8.8-0.6,17.5-3,26-5.6&#10;&#9;&#9;c0,0,24.2,69.1,59.4,78.2c3.9,1,16.1-43,20.8-72.4c18.5-12.9,18.1-20.8,18.8-27.8c2-21.1-15.5-30.6-15.5-30.6&#10;&#9;&#9;S172.9,198.9,166.3,223.5z"/>
	<path class="st2_meditation-15" d="M170,334.4c-0.1,0-0.2,0-0.3,0c-14.8-3.8-29.4-18.2-43.4-42.9c-6.3-11.3-11.8-23-16.3-35.1&#10;&#9;&#9;c-8.6,2.6-16.9,4.9-25.4,5.4c-3,0.3-5.9-0.9-7.7-3.2c-1.4-2-1.6-4.6-0.5-6.8c1.2-2.3,2.7-4.4,4.7-6.2c1.8-1.6,3.3-3.6,4.4-5.8&#10;&#9;&#9;c0.2-0.6,0.4-1.2,0.6-1.8c0.6-1.8,1.2-3.7,2.9-4.8c1.2-0.8,2.7-0.9,4.1-0.4c1.1,0.4,2,1.2,2.5,2.2c0.4-0.8,1.1-1.5,2-1.7&#10;&#9;&#9;c2.3-0.9,6.4-0.5,9.6,2.1c3,2.5,8.8,4.2,12.6,5.4c1.3,0.4,2.3,0.7,3.1,1c2.7,1,6.5,7.2,6.9,7.9l22,25.8l13.9-52.3&#10;&#9;&#9;c3.5-13.1,11-18.2,16.8-20.1c3.8-1.3,7.8-1.7,11.7-1.2c0.1,0,0.2,0,0.2,0.1c0.2,0.1,18,10,15.9,31.4l-0.1,1.2&#10;&#9;&#9;c-0.6,6.9-1.3,14.7-18.7,27c-4.3,27.3-15.6,69.3-20.4,72.5C170.7,334.3,170.4,334.5,170,334.4z M110.5,254.7c0.3,0,0.6,0.2,0.8,0.5&#10;&#9;&#9;c0.2,0.7,24.5,68.8,58.8,77.7c3.3-1.1,15-41.3,19.8-71.8c0-0.2,0.2-0.4,0.3-0.5c17.1-12,17.8-19.4,18.3-26l0.1-1.2&#10;&#9;&#9;c1.9-19.5-13.5-28.9-15-29.8c-1.9-0.3-20.5-2.7-26.6,20.2l-14.2,53.7c-0.1,0.3-0.3,0.5-0.6,0.6c-0.3,0.1-0.6,0-0.8-0.3l-23-27.1&#10;&#9;&#9;c-1.6-2.6-4.5-6.7-6.2-7.3c-0.7-0.3-1.8-0.6-3-1c-3.9-1.2-9.9-3-13.2-5.7c-2.7-2.2-6.1-2.6-8-1.9c-0.5,0.2-1.1,0.5-1.1,1.1&#10;&#9;&#9;c-0.3,2.1,4.7,5.1,7.7,6.9c0.9,0.5,1.9,1.1,2.7,1.8c0.3,0.3,0.4,0.8,0.2,1.1c-0.1,0.1-0.2,0.2-0.3,0.3c-2.2,0.9-5.4,1-9.7,0.2&#10;&#9;&#9;c-1.2-0.1-2.4-0.6-3.3-1.4c-1.8-1.6-1-3.7-0.3-5.4c0.5-0.9,0.7-1.9,0.6-2.9c-0.3-1-1-1.8-2-2.1c-0.9-0.4-1.8-0.3-2.6,0.2&#10;&#9;&#9;c-1.2,0.8-1.7,2.4-2.3,4c-0.2,0.6-0.4,1.3-0.7,1.9c-1.2,2.4-2.8,4.5-4.7,6.2c-1.8,1.6-3.3,3.5-4.3,5.7c-0.8,1.7-0.7,3.7,0.3,5.2&#10;&#9;&#9;c1.5,1.9,3.9,2.9,6.3,2.6c8.6-0.5,16.7-2.9,25.8-5.6L110.5,254.7z M96,238.1c-0.2,0.6-0.4,1.3-0.6,1.9c-0.7,1.7-1,2.9-0.1,3.7&#10;&#9;&#9;c0.7,0.6,1.6,0.9,2.5,1c2.4,0.5,4.8,0.6,7.3,0.3l-1.2-0.7C101,242.6,97.4,240.4,96,238.1z M166.4,223.5L166.4,223.5z"/>
	<path class="st1_meditation-15" d="M316.2,223.5l14.2,53.7l23-27.1c0,0,4-6.6,6.5-7.5c3-1.1,11.8-3.1,15.9-6.5s10.1-2.9,10.4-0.3&#10;&#9;&#9;c0.5,3.5-8.5,7.6-10.7,9.4c2.6,1.1,6.5,0.7,9.3,0.2c1.1-0.1,2.1-0.5,2.9-1.2c2.4-2.1-1.1-5.4-0.5-7.9c0.6-2.1,2.8-3.4,4.9-2.7&#10;&#9;&#9;c0.3,0.1,0.6,0.2,0.9,0.4c2,1.3,2.3,4,3.2,6.2c2,4.7,7,7.3,9,11.9c2.2,5.2-2,9.3-7.4,8.9c-8.8-0.6-17.5-3-26-5.6&#10;&#9;&#9;c0,0-24.2,69.1-59.4,78.2c-3.9,1-16.1-43-20.8-72.4c-18.5-12.9-18.1-20.8-18.8-27.8c-2-21.1,15.5-30.6,15.5-30.6&#10;&#9;&#9;S309.7,198.9,316.2,223.5z"/>
	<path class="st2_meditation-15" d="M312.5,334.4c-0.3,0-0.6-0.1-0.9-0.3c-4.9-3.2-16.1-45.1-20.4-72.5c-17.5-12.3-18.1-20.1-18.7-27l-0.1-1.2&#10;&#9;&#9;c-2-21.4,15.7-31.3,15.9-31.4c0.1,0,0.1-0.1,0.2-0.1c0.2-0.1,21.9-3.8,28.5,21.3l13.9,52.3l22-25.9c0.3-0.6,4.1-6.8,6.8-7.8&#10;&#9;&#9;c0.7-0.3,1.8-0.6,3.1-1c3.8-1.2,9.6-2.9,12.6-5.4c3.2-2.6,7.2-3.1,9.6-2.1c0.9,0.3,1.6,0.9,2,1.7c0.6-1,1.5-1.8,2.5-2.2&#10;&#9;&#9;c1.3-0.5,2.9-0.4,4.1,0.4c1.7,1.1,2.3,3,2.9,4.8c0.2,0.6,0.4,1.2,0.6,1.8c1.1,2.2,2.6,4.1,4.4,5.8c1.9,1.7,3.5,3.8,4.7,6.2&#10;&#9;&#9;c1.1,2.2,0.9,4.8-0.5,6.8c-1.8,2.3-4.8,3.6-7.7,3.2c-8.5-0.5-16.9-2.9-25.4-5.4c-4.5,12.1-10,23.8-16.3,35.1&#10;&#9;&#9;c-14,24.6-28.6,39-43.4,42.9C312.7,334.4,312.6,334.4,312.5,334.4z M288.9,203.6c-1.5,0.8-16.8,10.3-15,29.8l0.1,1.2&#10;&#9;&#9;c0.6,6.6,1.2,14.1,18.3,26c0.2,0.1,0.3,0.3,0.3,0.5c4.8,30.4,16.4,70.7,19.9,71.8c34.2-8.8,58.5-77,58.7-77.7&#10;&#9;&#9;c0.1-0.4,0.6-0.6,1-0.5c9,2.7,17.2,5,25.8,5.6c2.4,0.3,4.8-0.7,6.3-2.6c1-1.6,1.2-3.6,0.3-5.2c-1.1-2.1-2.6-4.1-4.3-5.7&#10;&#9;&#9;c-1.9-1.8-3.5-3.9-4.7-6.2c-0.3-0.6-0.5-1.3-0.7-1.9c-0.5-1.6-1-3.2-2.3-4c-0.8-0.5-1.8-0.6-2.6-0.2c-1,0.3-1.7,1.1-2,2.1&#10;&#9;&#9;c-0.1,1,0.2,2,0.6,2.9c0.6,1.7,1.5,3.8-0.3,5.4c-1,0.8-2.1,1.2-3.3,1.4c-4.4,0.8-7.5,0.7-9.7-0.2c-0.4-0.2-0.6-0.6-0.4-1&#10;&#9;&#9;c0.1-0.1,0.1-0.2,0.3-0.3c0.9-0.6,1.8-1.2,2.7-1.8c3-1.8,8-4.8,7.7-6.9c-0.1-0.6-0.7-0.9-1.1-1.1c-1.9-0.7-5.3-0.3-8,1.9&#10;&#9;&#9;c-3.3,2.7-9.2,4.5-13.2,5.7c-1.2,0.4-2.3,0.7-3,1c-1.6,0.6-4.6,4.8-6.1,7.2L331,277.8c-0.2,0.2-0.5,0.3-0.8,0.3&#10;&#9;&#9;c-0.3-0.1-0.5-0.3-0.6-0.6l-14.2-53.8C309.4,200.9,290.8,203.3,288.9,203.6z M377.5,245c2.4,0.3,4.9,0.2,7.3-0.3&#10;&#9;&#9;c0.9-0.1,1.8-0.4,2.5-1c0.9-0.8,0.6-1.9-0.1-3.7c-0.3-0.6-0.5-1.3-0.6-1.9c-1.4,2.3-5,4.5-7.9,6.2L377.5,245z"/>
	<path class="st3_meditation-15 targetColor" d="M213,198.2c0,0-18.3,1.1-22.4,3.8c0,0,9.9,35.1-2.2,60.8c0,0,7.2,44.6,7.6,59.5c0,0,49.9,15.8,91.5-4.5&#10;&#9;&#9;c0.8,7.2-0.7-46.1,4.4-56.5c0,0-2.9-45.2,3-59.9C294.9,201.3,235.4,194.4,213,198.2z" style="fill: rgb(76, 244, 50);"/>
	<path class="st1_meditation-15" d="M227.6,179.3l-0.4,17.4c0,0.6-13,1.3-14.1,1.4c-0.4,0-0.7,0.3-0.8,0.6c0,0,0,0.1,0,0.1&#10;&#9;&#9;c-2.1,13.9,1,27.8,6.8,40.5c3.9,8.6,10.1,17.3,19.3,19.7c30.5,8.2,42.6-59,42.3-59.3s-11.3-1.8-13.7-1.8c-4.9,0-2.3-31.4-1.9-43.4&#10;&#9;&#9;c0.1-1.1,0-2.3-0.4-3.3c-0.6-1-1.5-1.9-2.5-2.6c-4-3.3-6.5-8.2-7.7-13.3s-1.2-10.3-1.1-15.6c0,2.1-14.8,5.9-16.8,6.4&#10;&#9;&#9;c-6,1.5-12.2,2.3-18.5,2.4c-4.2,0-4.1,0-4.7,4.3c-0.5,3.4-1,6.8-1.4,10.2c-0.8,6.8-1,13.6-0.5,20.4c0.3,3.4,1,6.9,3,9.7&#10;&#9;&#9;C217.4,177.2,222.6,178.7,227.6,179.3z"/>
	<path class="st2_meditation-15" d="M243.5,260.7c-1.8,0-3.6-0.3-5.4-0.7c-8-2.1-14.7-8.9-19.8-20.2c-6.5-14.2-8.8-27.9-6.8-40.9&#10;&#9;&#9;c0-0.8,0.7-1.5,1.5-1.5c0,0,0,0,0,0l1.1-0.1c8.2-0.5,11.3-0.9,12.3-1.1l0.4-16.2c-6.2-0.9-10.4-3-12.9-6.4c-2.2-3-2.8-6.8-3.1-10.1&#10;&#9;&#9;c-0.6-6.9-0.4-13.7,0.5-20.6c0.4-3.4,0.9-6.9,1.4-10.2l0.1-0.4c0.6-4.2,1-4.5,5.4-4.5c6.2,0,12.3-0.8,18.3-2.4&#10;&#9;&#9;c8.6-2.2,15.6-4.7,16.2-5.7c0-0.4,0.4-0.7,0.8-0.7l0,0c0.4,0,0.8,0.4,0.8,0.8c0,0,0,0,0,0l0,0c-0.1,5-0.1,10.3,1.1,15.3&#10;&#9;&#9;c0.9,3.8,2.9,9.2,7.4,12.9l0.4,0.3c1,0.6,1.7,1.5,2.3,2.5c0.5,1.2,0.6,2.4,0.5,3.7c-0.1,1.9-0.2,4.3-0.3,6.9&#10;&#9;&#9;c-0.6,11.4-1.7,32.5,1.1,35.4c0.2,0.2,0.3,0.2,0.3,0.2c1.5,0,13.4,1.3,14.2,2c1.2,1-4.6,25.2-12.5,40.4&#10;&#9;&#9;C261.3,253.6,252.9,260.7,243.5,260.7z M213.1,198.9c0,0,0,0.1,0,0.1c-1.9,12.7,0.4,26.1,6.7,40c4.9,10.8,11.2,17.3,18.8,19.3&#10;&#9;&#9;c5.7,1.5,11.1,0.4,16.1-3.4c16.6-12.4,24.4-49.2,25.1-54.6c-4.2-0.8-8.5-1.3-12.8-1.6c-0.6,0-1.1-0.3-1.5-0.7&#10;&#9;&#9;c-3-3.2-2.4-19.1-1.5-36.6c0.1-2.6,0.3-5,0.3-6.9c0.1-1,0-2-0.3-2.9c-0.5-0.8-1.1-1.5-1.9-2l-0.4-0.4c-4.8-4-7-9.7-8-13.8&#10;&#9;&#9;c-0.9-4.6-1.3-9.2-1.2-13.9c-2,1.2-6.3,2.9-15.7,5.3c-6.1,1.6-12.4,2.4-18.7,2.4c-3.4,0-3.4,0-3.9,3.2l-0.1,0.4&#10;&#9;&#9;c-0.5,3.2-1,6.7-1.4,10.1c-0.9,6.7-1,13.5-0.5,20.2c0.3,3.1,0.9,6.6,2.8,9.3c2.3,3.1,6.4,5,12.5,5.8c0.4,0,0.7,0.4,0.7,0.8&#10;&#9;&#9;l-0.3,17.5c0,1,0,1.3-13.8,2.1L213.1,198.9L213.1,198.9z"/>
	<path class="st1_meditation-15" d="M256.5,161.2c3.1,1.1,6.4,0.9,9.4-0.6c4.9-2.4,7.5-8.2,7-13.4c-0.1-1.4-0.5-2.8-1.2-4c-1.5-2.2-3.9-2.5-6.3-2&#10;&#9;&#9;c-3.5,0.6-4.8,2.4-7.1,4.8"/>
	<path class="st2_meditation-15" d="M260.5,162.6c-1.5,0-2.9-0.2-4.3-0.7c-0.4-0.1-0.6-0.6-0.5-1c0.1-0.4,0.6-0.6,1-0.5c2.9,1,6,0.8,8.8-0.5&#10;&#9;&#9;c4.3-2.1,7-7.3,6.5-12.6c-0.1-1.3-0.4-2.5-1.1-3.6c-1.1-1.6-2.9-2.1-5.4-1.7c-2.8,0.5-4,1.8-5.8,3.7l-0.9,1c-0.3,0.3-0.8,0.3-1.1,0&#10;&#9;&#9;c-0.3-0.3-0.3-0.8,0-1.1l0.9-0.9c1.9-2,3.3-3.5,6.7-4.1s5.6,0.2,7.1,2.4c0.8,1.3,1.3,2.8,1.4,4.3c0.5,6-2.5,11.8-7.4,14.2&#10;&#9;&#9;C264.4,162.2,262.5,162.7,260.5,162.6z"/>
	<path class="st2_meditation-15" d="M228.1,192.4c0,0,6.1,0.6,12.4-6.5s5.2-12.4,5.2-12.4s-3.8,6.3-18.1,5.8L228.1,192.4z"/>
	<path class="st2_meditation-15" d="M228.5,193.3h-0.5c-0.4,0-0.7-0.4-0.7-0.8l-0.5-13.1c0-0.2,0.1-0.4,0.2-0.6c0.2-0.2,0.4-0.2,0.6-0.2&#10;&#9;&#9;c13.6,0.5,17.4-5.3,17.4-5.4c0.2-0.4,0.7-0.5,1.1-0.3c0.2,0.1,0.3,0.3,0.4,0.5c0,0.2,1,5.9-5.4,13.1&#10;&#9;&#9;C235.6,192.8,230.1,193.3,228.5,193.3z M228.5,180.1l0.4,11.5c1.7-0.1,6.3-0.9,11-6.2c3.7-4.2,4.7-7.7,5-9.8&#10;&#9;&#9;C242.8,177.5,237.9,180.3,228.5,180.1L228.5,180.1z"/>
	<path class="st1_meditation-15" d="M232.6,142.2c0,0-7.5,12.4-5.5,14.4s7.3,0.4,7.3,0.4"/>
	<path class="st2_meditation-15" d="M230.4,158.3c-1.4,0.1-2.8-0.3-3.9-1.2c-2.2-2.2,3-11.5,5.4-15.3c0.2-0.4,0.7-0.5,1.1-0.3&#10;&#9;&#9;c0.4,0.2,0.5,0.7,0.3,1.1l0,0c-3.8,6.3-6.4,12.6-5.6,13.4c1.4,1.4,5.1,0.6,6.5,0.2c0.4-0.1,0.9,0.1,1,0.5s-0.1,0.9-0.5,1l0,0&#10;&#9;&#9;C233.3,158.1,231.9,158.3,230.4,158.3z"/>
	<path class="st2_meditation-15" d="M229.3,168.1c-3.8,0-7.7-0.5-11.4-1.4c-0.4-0.1-0.7-0.6-0.6-1c0,0,0,0,0,0c0.1-0.4,0.6-0.7,1-0.6&#10;&#9;&#9;c0.1,0.1,15.4,4.3,27.1-2.6c0.4-0.2,0.9-0.1,1.1,0.3s0.1,0.9-0.3,1.1C241.1,166.8,235.3,168.2,229.3,168.1z"/>
	<path class="st2_meditation-15" d="M223.6,143c-1.5,0-3-0.5-4.2-1.5c-0.3-0.3-0.4-0.8-0.1-1.1s0.8-0.4,1.1-0.1c0.1,0.1,2.8,2.3,6.8-0.1&#10;&#9;&#9;c0.4-0.2,0.9-0.1,1.1,0.3c0.2,0.4,0.1,0.8-0.2,1.1c0,0,0,0,0,0C226.7,142.5,225.2,143,223.6,143z"/>
	<path class="st2_meditation-15" d="M242.7,142.4c-1.5,0-3-0.5-4.2-1.5c-0.3-0.3-0.4-0.8-0.1-1.1s0.8-0.4,1.1-0.1c0.1,0.1,2.8,2.3,6.8-0.1&#10;&#9;&#9;c0.4-0.2,0.9,0,1.1,0.4c0.2,0.3,0.1,0.8-0.2,1C245.8,141.9,244.3,142.4,242.7,142.4z"/>
	<path class="st1_meditation-15" d="M378,340.7c-2.5-11.3-11.9-10.3-34.1-7s-81.4,29.5-120.7,39.8c-10.8,6.6-22.8,37.8-15.3,36.3&#10;&#9;&#9;s27.5-15.5,27.5-15.5s83.6-14.5,107.6-19S380.6,352,378,340.7z"/>
	<path class="st2_meditation-15" d="M207.4,410.6c-1,0-2-0.7-2.3-1.6c-2.5-6.4,8.4-30.5,17.7-36.2c0.1,0,0.1-0.1,0.2-0.1c19-4.9,42-13.4,64.4-21.6&#10;&#9;&#9;c23.1-8.5,44.9-16.5,56.4-18.2c21.4-3.2,32.2-4.8,35,7.6c1,4.6-0.5,10.4-4.1,15.9c-6.4,9.8-18.2,17.1-31.5,19.6&#10;&#9;&#9;c-23.2,4.4-103.1,18.2-107.5,19c-2,1.4-20.4,14.1-27.7,15.5C207.9,410.6,207.7,410.6,207.4,410.6z M223.5,374.1&#10;&#9;&#9;c-9,5.6-18.9,29.2-16.9,34.2c0.1,0.5,0.6,0.8,1,0.6c0,0,0.1,0,0.1,0c7.3-1.5,27-15.2,27.2-15.4c0.1-0.1,0.2-0.1,0.3-0.1&#10;&#9;&#9;c0.8-0.1,83.9-14.6,107.6-19c12.9-2.4,24.3-9.5,30.5-18.9c3.4-5.1,4.8-10.5,3.8-14.6l0,0c-2.4-10.4-10.4-9.8-33.2-6.4&#10;&#9;&#9;c-11.4,1.7-33.1,9.7-56.1,18.1C265.6,360.7,242.6,369.2,223.5,374.1L223.5,374.1z"/>
	<path class="st2_meditation-15" d="M114.8,268.1h-0.5c-1.9-0.1-3.6-1-4.8-2.5c-1.2-1.7-1-4,0.4-5.5c0.3-0.3,0.8-0.3,1.1,0c0,0,0,0,0,0&#10;&#9;&#9;c0.3,0.3,0.3,0.8,0,1.1c-0.8,1-0.9,2.4-0.2,3.5c0.8,1.1,2.2,1.8,3.6,1.8c1.5,0,3-0.3,4.4-0.9c6-2.5,10.7-7.5,14.8-11.9&#10;&#9;&#9;c0.6-0.5,1-1.1,1.1-1.8c0-0.8-1.1-1.3-2-1.3c-0.7,0-1.4,0.1-2.1,0.3c-0.5,0.1-1,0.2-1.6,0.3c-0.4,0.1-0.8-0.2-0.9-0.7&#10;&#9;&#9;s0.2-0.8,0.7-0.9l0,0c0.5-0.1,0.9-0.2,1.4-0.3c0.8-0.2,1.6-0.3,2.5-0.4c1.7,0,3.5,1.1,3.6,2.9c-0.1,1.2-0.6,2.2-1.5,3&#10;&#9;&#9;c-4,4.3-9,9.7-15.4,12.3C117.9,267.7,116.4,268.1,114.8,268.1z"/>
</g>
</svg>